<?xml version="1.0" standalone="no"?>
<!DOCTYPE svg PUBLIC "-//W3C//DTD SVG 1.1//EN" "http://www.w3.org/Graphics/SVG/1.1/DTD/svg11.dtd" >
<svg>
<metadata>
Created by FontForge 20090914 at Thu Nov 29 12:06:05 2018
 By www-data
Copyright 2014 Pria Ravichandran (pria.ravichandran@gmail.com)
</metadata>
<defs>
<font id="Catamaran-Black" horiz-adv-x="610" >
  <font-face 
    font-family="Catamaran Black"
    font-weight="900"
    font-stretch="normal"
    units-per-em="1000"
    panose-1="0 0 10 0 0 0 0 0 0 0"
    ascent="770"
    descent="-230"
    x-height="484"
    cap-height="680"
    bbox="-662 -395.002 2698 1320"
    underline-thickness="50"
    underline-position="-75"
    unicode-range="U+000D-U+FB02"
  />
<missing-glyph horiz-adv-x="697" 
d="M94 696v-696h508v696h-508zM440 573v-451h-185v451h185z" />
    <glyph glyph-name=".notdef" horiz-adv-x="697" 
d="M94 696v-696h508v696h-508zM440 573v-451h-185v451h185z" />
    <glyph glyph-name="uni0000" horiz-adv-x="0" 
 />
    <glyph glyph-name="uni0000" horiz-adv-x="0" 
 />
    <glyph glyph-name="nonmarkingreturn" unicode="&#xd;" horiz-adv-x="0" 
 />
    <glyph glyph-name="space" unicode=" " horiz-adv-x="220" 
 />
    <glyph glyph-name="exclam" unicode="!" horiz-adv-x="243" 
d="M51 248l142 -40l20 506h-182zM56.5 156.5c-17.667 -17.667 -26.5 -39.5 -26.5 -65.5s8.83301 -47.667 26.5 -65s39.5 -26 65.5 -26c25.333 0 46.833 8.66699 64.5 26s26.5 39 26.5 65s-8.83301 47.833 -26.5 65.5s-39.167 26.5 -64.5 26.5
c-26 0 -47.833 -8.83301 -65.5 -26.5z" />
    <glyph glyph-name="quotedbl" unicode="&#x22;" horiz-adv-x="453" 
d="M56 713.5c-18 -19 -27 -40.168 -27 -63.501c0 -16 4 -31 12 -45s18.333 -25 31 -33c-2 -8 -8.5 -17 -19.5 -27s-21.833 -18 -32.5 -24l36 -80c44.667 16.667 82 43.334 112 80.001s45 74.667 45 114c0 31.333 -8.83301 57 -26.5 77s-39.5 30 -65.5 30
c-25.333 0 -47 -9.5 -65 -28.5zM266 713.499c-18 -19 -27 -40.168 -27 -63.501c0 -16 4 -31 12 -45s18.333 -25 31 -33c-2 -8 -8.5 -17 -19.5 -27s-21.833 -18 -32.5 -24l36 -80c44.667 16.667 82 43.334 112 80.001s45 74.667 45 114c0 31.333 -8.83301 57 -26.5 77
s-39.5 30 -65.5 30c-25.333 0 -47 -9.5 -65 -28.5z" />
    <glyph glyph-name="numbersign" unicode="#" horiz-adv-x="647" 
d="M433 517l-22 -91h-95l22 91h-149l-22 -91h-137l11 -133h94l-18 -78h-87l11 -133h44l-21 -92l147 -5l23 97h95l-21 -92l147 -5l23 97h139l-10 133h-97l18 78h89l-10 133h-47l22 91h-149zM379 293l-18 -78h-95l18 78h95z" />
    <glyph glyph-name="dollar" unicode="$" horiz-adv-x="547" 
d="M432 664c19.333 -8 36.3311 -16.998 50.998 -26.998l-54 -123c-35.333 12 -62.5 20 -81.5 24s-39.833 6 -62.5 6c-20 0 -36.167 -4.66699 -48.5 -14s-18.5 -20.666 -18.5 -33.999c0 -10 5.16699 -18.833 15.5 -26.5s27.5 -17.834 51.5 -30.501l36 -20
c42 -24 77 -46.167 105 -66.5s51.833 -44.333 71.5 -72s29.5 -58.834 29.5 -93.501c0 -36.667 -10.167 -69.834 -30.5 -99.501s-49.166 -53.167 -86.499 -70.5v-139h-119v110c-7.33301 -0.666992 -19 -1 -35 -1h-13v-106h-118v125c-36 9.33301 -66.667 21.333 -92 36l60 137
c18 -10.667 42.833 -20.5 74.5 -29.5s59.5 -13.5 83.5 -13.5c26.667 0 48 5.5 64 16.5s24 23.167 24 36.5c0 8.66699 -5.83301 17.167 -17.5 25.5s-30.5 20.166 -56.5 35.499l-31 18c-45.333 26.667 -80.666 48.834 -105.999 66.501s-48 40.5 -68 68.5s-30 59.667 -30 95
c0.666992 37.333 11.5 71 32.5 101s50.5 53 88.5 69v121l118 10v-106h14c13.333 0 23.333 -0.333008 30 -1v97l119 10v-135z" />
    <glyph glyph-name="percent" unicode="%" horiz-adv-x="974" 
d="M542 706l-298 -706h187l299 706h-188zM66 385.5c30.667 -32.333 73.666 -48.499 128.999 -48.499c56.667 0 102 16.167 136 48.5s51 76.166 51 131.499c0 56.667 -16 101.667 -48 135s-76.667 50 -134 50c-55.333 0 -99.166 -16.5 -131.499 -49.5
s-48.5 -77.5 -48.5 -133.5c0 -56.667 15.333 -101.167 46 -133.5zM201.999 578.001c15.333 0 26.167 -5.16699 32.5 -15.5s9.5 -25.5 9.5 -45.5s-3.66699 -34.833 -11 -44.5s-19 -14.5 -35 -14.5c-14 0 -24.167 5 -30.5 15s-9.5 25.333 -9.5 46c0 39.333 14.667 59 44 59z
M638 49.501c30.667 -32.333 73.666 -48.499 128.999 -48.499c56.667 0 102 16.167 136 48.5s51 76.166 51 131.499c0 56.667 -16 101.667 -48 135s-76.667 50 -134 50c-55.333 0 -99.166 -16.5 -131.499 -49.5s-48.5 -77.5 -48.5 -133.5
c0 -56.667 15.333 -101.167 46 -133.5zM773.999 242.002c15.333 0 26.167 -5.16699 32.5 -15.5s9.5 -25.5 9.5 -45.5s-3.66699 -34.833 -11 -44.5s-19 -14.5 -35 -14.5c-14 0 -24.167 5 -30.5 15s-9.5 25.333 -9.5 46c0 39.333 14.667 59 44 59z" />
    <glyph glyph-name="ampersand" unicode="&#x26;" horiz-adv-x="689" 
d="M309 696c-43.333 0 -82.1689 -9.33691 -116.502 -28.0039s-61.166 -43.5 -80.499 -74.5s-29 -64.5 -29 -100.5c0 -37.333 11 -72.666 33 -105.999c-26 -22.667 -46.833 -49.667 -62.5 -81s-23.5 -62.666 -23.5 -93.999c0 -51.333 12.167 -94.666 36.5 -129.999
s57.166 -61.833 98.499 -79.5s88 -26.5 140 -26.5c63.333 0 124.333 23 183 69l74 -64l107 132l-76 64c30 58.667 48.667 118.667 56 180l-160 64c-6 -43.333 -17 -86 -33 -128l-129 110c-25.333 22.667 -42.666 40 -51.999 52s-14 23.667 -14 35
c0 14.667 6.33301 27.834 19 39.501s30.334 17.5 53.001 17.5c42.667 0 85.667 -12 129 -36l49 124c-56.667 40.667 -124 61 -202 61zM308.997 125.996c-29.333 0 -51.833 8.16699 -67.5 24.5s-23.5 38.833 -23.5 67.5c0 18.667 4 36 12 52l138 -120
c-20 -16 -39.667 -24 -59 -24z" />
    <glyph glyph-name="quotesingle" unicode="'" horiz-adv-x="243" 
d="M56 713.5c-18 -19 -27 -40.168 -27 -63.501c0 -16 4 -31 12 -45s18.333 -25 31 -33c-2 -8 -8.5 -17 -19.5 -27s-21.833 -18 -32.5 -24l36 -80c44.667 16.667 82 43.334 112 80.001s45 74.667 45 114c0 31.333 -8.83301 57 -26.5 77s-39.5 30 -65.5 30
c-25.333 0 -47 -9.5 -65 -28.5z" />
    <glyph glyph-name="parenleft" unicode="(" horiz-adv-x="370" 
d="M264 148c-21.333 64.667 -31.999 122.665 -31.999 173.998c0 49.333 10.667 105.333 32 168s46.666 114.334 75.999 155.001l-163 37c-42 -60 -73.667 -119.5 -95 -178.5s-32 -119.833 -32 -182.5c0 -64.667 11 -127.5 33 -188.5s53.333 -118.167 94 -171.5l162 38
c-28.667 34.667 -53.667 84.334 -75 149.001z" />
    <glyph glyph-name="parenright" unicode=")" horiz-adv-x="370" 
d="M106 495c21.333 -64.667 31.999 -122.665 31.999 -173.998c0 -49.333 -10.667 -105.333 -32 -168s-46.666 -114.334 -75.999 -155.001l163 -37c42 60 73.667 119.5 95 178.5s32 119.833 32 182.5c0 64.667 -11 127.5 -33 188.5s-53.333 118.167 -94 171.5l-162 -38
c28.667 -34.667 53.667 -84.334 75 -149.001z" />
    <glyph glyph-name="asterisk" unicode="*" horiz-adv-x="424" 
d="M285 782h-144v-96l-97 28l-34 -129l94 -17l-72 -91l117 -74l63 93l63 -93l117 74l-72 91l94 17l-34 129l-95 -28v96z" />
    <glyph glyph-name="plus" unicode="+" horiz-adv-x="583" 
d="M543 345h-167v185h-168v-185h-178l11 -143h167v-194l168 -8v202h177z" />
    <glyph glyph-name="comma" unicode="," horiz-adv-x="243" 
d="M56 118.5c-18 -19 -27 -40.168 -27 -63.501c0 -16 4 -31 12 -45s18.333 -25 31 -33c-2 -8 -8.5 -17 -19.5 -27s-21.833 -18 -32.5 -24l36 -80c44.667 16.667 82 43.334 112 80.001s45 74.667 45 114c0 31.333 -8.83301 57 -26.5 77s-39.5 30 -65.5 30
c-25.333 0 -47 -9.5 -65 -28.5z" />
    <glyph glyph-name="hyphen" unicode="-" horiz-adv-x="352" 
d="M312 345h-282l11 -143h281z" />
    <glyph glyph-name="period" unicode="." horiz-adv-x="243" 
d="M186.5 26c17.667 17.333 26.5 39 26.5 65s-8.83301 47.833 -26.5 65.5s-39.167 26.5 -64.5 26.5c-26 0 -47.833 -8.83301 -65.5 -26.5s-26.5 -39.5 -26.5 -65.5s8.83301 -47.667 26.5 -65s39.5 -26 65.5 -26c25.333 0 46.833 8.66699 64.5 26z" />
    <glyph glyph-name="slash" unicode="/" horiz-adv-x="506" 
d="M308 706l-298 -706h187l299 706h-188z" />
    <glyph glyph-name="zero" unicode="0" horiz-adv-x="678" 
d="M61 131c27.333 -45.333 65.1689 -80.834 113.502 -106.501s102.833 -38.5 163.5 -38.5c61.333 0 116.333 12.833 165 38.5s86.667 61.334 114 107.001s41 97.167 41 154.5c0 56 -13.667 106.333 -41 151s-65.333 79.5 -114 104.5s-103.334 37.5 -164.001 37.5
s-115.334 -12.667 -164.001 -38s-86.667 -60.5 -114 -105.5s-41 -95.5 -41 -151.5c0 -56.667 13.667 -107.667 41 -153zM245.003 390.499c24.667 27 55.666 40.499 92.999 40.499c38.667 0 70.334 -13.833 95.001 -41.5s37 -63.167 37 -106.5s-12.333 -79 -37 -107
s-56 -42 -94 -42s-69.333 14.333 -94 43s-37 65.334 -37 110.001c0 42 12.333 76.5 37 103.5z" />
    <glyph glyph-name="one" unicode="1" horiz-adv-x="439" 
d="M379 0v566h-121l-248 -107l71 -146l116 50v-363h182z" />
    <glyph glyph-name="two" unicode="2" horiz-adv-x="497" 
d="M38 527l23.001 -147.999c22.667 12.667 49 24.334 79 35.001s58.333 16 85 16c26 0 46.333 -4 61 -12s22 -20 22 -36c0 -14 -5.83301 -27.833 -17.5 -41.5s-29.5 -30.834 -53.5 -51.501c-10.667 -8 -18.334 -14.333 -23.001 -19l-189 -164v-106h452l-12 143h-182l41 35
c50 42 86.833 80.167 110.5 114.5s35.5 71.166 35.5 110.499c0 60.667 -21.167 105.167 -63.5 133.5s-100.833 42.5 -175.5 42.5c-70.667 0 -135 -17.333 -193 -52z" />
    <glyph glyph-name="three" unicode="3" horiz-adv-x="536" 
d="M21 505l86.9961 -123.003c48 32.667 91 49 129 49c24.667 0 43.334 -4.16699 56.001 -12.5s19 -19.166 19 -32.499c0 -16.667 -8.66699 -30.167 -26 -40.5s-40 -15.5 -68 -15.5h-82l15 -143h103c20.667 0 37.334 -5.33301 50.001 -16s19 -25.667 19 -45
c0 -17.333 -7.5 -31.166 -22.5 -41.499s-33.833 -15.5 -56.5 -15.5c-24 0 -47.5 3.83301 -70.5 11.5s-48.5 20.5 -76.5 38.5l-97 -121c37.333 -24 77.833 -42.667 121.5 -56s84.167 -20 121.5 -20c52.667 0 99.334 8.5 140.001 25.5s72.167 40.5 94.5 70.5
s33.5 64.333 33.5 103c0 28.667 -8.33301 57.5 -25 86.5s-37 50.5 -61 64.5c18.667 10 35.834 28.333 51.501 55s23.5 51.667 23.5 75c0 34.667 -10.167 65.334 -30.5 92.001s-49 47.5 -86 62.5s-79.833 22.5 -128.5 22.5c-93.333 0 -171.333 -24.667 -234 -74z" />
    <glyph glyph-name="four" unicode="4" horiz-adv-x="611" 
d="M591 197h-100v374h-136l-345 -384l21 -133h278v-117h182v117h91zM309 297v-100h-85z" />
    <glyph glyph-name="five" unicode="5" horiz-adv-x="533" 
d="M247 210c10.667 8.66699 23.3301 12.999 37.9971 12.999c18.667 0 34 -6.16699 46 -18.5s18 -29.166 18 -50.499c0 -23.333 -8.16699 -42.166 -24.5 -56.499s-37.166 -21.5 -62.499 -21.5c-23.333 0 -46.333 4 -69 12s-50 20.667 -82 38l-91 -129
c32.667 -22.667 71.334 -41 116.001 -55s85.667 -21 123 -21c51.333 0 96.166 9.83301 134.499 29.5s67.833 47.167 88.5 82.5s31 75.666 31 120.999c0 40 -8.16699 76.667 -24.5 110s-40.166 60 -71.499 80s-68.666 30 -111.999 30c-22.667 0 -43.334 -5.33301 -62.001 -16
v65h223l18 143h-394l-19 -386h153c4.66699 11.333 12.334 21.333 23.001 30z" />
    <glyph glyph-name="six" unicode="6" horiz-adv-x="585" 
d="M446 372.5c37.333 -17 66.5 -40.9961 87.5 -71.9961s31.5 -66.167 31.5 -105.5c0 -40 -10.167 -75.833 -30.5 -107.5s-49.666 -56.334 -87.999 -74.001s-83.166 -26.5 -134.499 -26.5c-56.667 0 -107.167 11.333 -151.5 34s-78.833 54.167 -103.5 94.5
s-37 85.833 -37 136.5c0 93.333 25.167 167.666 75.5 222.999s109.666 94.5 177.999 117.5s137.166 36.833 206.499 41.5l18 -167l-36 -5c-49.333 -6.66699 -90.666 -14.834 -123.999 -24.501s-61.333 -26.834 -84 -51.501c21.333 8 43 12 65 12
c47.333 0 89.666 -8.5 126.999 -25.5zM356 155.504c14 14.333 21.001 32.167 21.001 53.5c0 20.667 -7.83301 37.667 -23.5 51s-35.167 20 -58.5 20c-26 0 -54 -10.667 -84 -32c2 -34 11.667 -61.5 29 -82.5s39.666 -31.5 66.999 -31.5c18.667 0 35 7.16699 49 21.5z" />
    <glyph glyph-name="seven" unicode="7" horiz-adv-x="518" 
d="M289 -77l209 571l-34 72h-454l17 -143h272l-191 -453z" />
    <glyph glyph-name="eight" unicode="8" horiz-adv-x="572" 
d="M163 620c-37.333 -15.333 -66.832 -37.1709 -88.499 -65.5039s-32.5 -60.833 -32.5 -97.5c0 -21.333 5.83301 -42.166 17.5 -62.499s26.167 -38.166 43.5 -53.499c-24 -16.667 -43.833 -38 -59.5 -64s-23.5 -52.667 -23.5 -80c0 -65.333 24.167 -116.666 72.5 -153.999
s113.166 -56 194.499 -56c54.667 0 102 8.83301 142 26.5s70.5 42.334 91.5 74.001s31.5 68.167 31.5 109.5c0 27.333 -7.66699 53.833 -23 79.5s-35 46.834 -59 63.501c17.333 14.667 31.666 32.5 42.999 53.5s17 42.167 17 63.5c0 36.667 -11 69.167 -33 97.5
s-51.5 50.166 -88.5 65.499s-77.5 23 -121.5 23c-45.333 0 -86.666 -7.66699 -123.999 -23zM326.501 478.995c9.66699 -10 14.5 -20.667 14.5 -32c0 -13.333 -4.83301 -25.666 -14.5 -36.999s-22.834 -18.333 -39.501 -21c-17.333 2.66699 -31 9.5 -41 20.5
s-15 23.167 -15 36.5c0 11.333 4.83301 22.166 14.5 32.499s22.834 15.5 39.501 15.5c18 0 31.833 -5 41.5 -15zM343.501 252.995c14.333 -16 21.501 -32 21.501 -48c0 -18 -8.16699 -34.167 -24.5 -48.5s-34.5 -21.5 -54.5 -21.5s-38 7.16699 -54 21.5s-24 30.5 -24 48.5
c0 16 7 32 21 48s33.333 26 58 30c23.333 -4 42.166 -14 56.499 -30z" />
    <glyph glyph-name="nine" unicode="9" horiz-adv-x="585" 
d="M424.5 545c44.333 -22.667 78.834 -54.1709 103.501 -94.5039s37 -85.833 37 -136.5c0 -93.333 -25.167 -167.666 -75.5 -222.999s-109.666 -94.5 -177.999 -117.5s-137.166 -36.833 -206.499 -41.5l-18 167l36 5c49.333 6.66699 90.666 14.834 123.999 24.501
s61.333 26.834 84 51.501c-20.667 -8 -42.334 -12 -65.001 -12c-47.333 0 -89.666 8.5 -126.999 25.5s-66.5 41 -87.5 72s-31.5 66.167 -31.5 105.5c0 40 10.167 75.833 30.5 107.5s49.666 56.334 87.999 74.001s83.166 26.5 134.499 26.5
c56.667 0 107.167 -11.333 151.5 -34zM231.501 305.996c15.667 -13.333 35.166 -20.001 58.499 -20.001c26 0 54 10.667 84 32c-2 34 -11.667 61.5 -29 82.5s-39.666 31.5 -66.999 31.5c-18.667 0 -35 -7.16699 -49 -21.5s-21 -32.166 -21 -53.499
c0 -20.667 7.83301 -37.667 23.5 -51z" />
    <glyph glyph-name="colon" unicode=":" horiz-adv-x="243" 
d="M186.5 319c17.667 17.333 26.5 39 26.5 65s-8.83301 47.833 -26.5 65.5s-39.167 26.5 -64.5 26.5c-26 0 -47.833 -8.83301 -65.5 -26.5s-26.5 -39.5 -26.5 -65.5s8.83301 -47.667 26.5 -65s39.5 -26 65.5 -26c25.333 0 46.833 8.66699 64.5 26zM186.5 26
c17.667 17.333 26.5 39 26.5 65s-8.83301 47.833 -26.5 65.5s-39.167 26.5 -64.5 26.5c-26 0 -47.833 -8.83301 -65.5 -26.5s-26.5 -39.5 -26.5 -65.5s8.83301 -47.667 26.5 -65s39.5 -26 65.5 -26c25.333 0 46.833 8.66699 64.5 26z" />
    <glyph glyph-name="semicolon" unicode=";" horiz-adv-x="244" 
d="M57.5 449.5c-17.667 -17.667 -26.5 -39.5 -26.5 -65.5s8.83301 -47.667 26.5 -65s39.5 -26 65.5 -26c25.333 0 46.833 8.66699 64.5 26s26.5 39 26.5 65s-8.83301 47.833 -26.5 65.5s-39.167 26.5 -64.5 26.5c-26 0 -47.833 -8.83301 -65.5 -26.5zM56 154.5
c-18 -19 -27 -40.168 -27 -63.501c0 -16 4 -31 12 -45s18.333 -25 31 -33c-2 -8 -8.5 -17 -19.5 -27s-21.833 -18 -32.5 -24l36 -80c44.667 16.667 82 43.334 112 80.001s45 74.667 45 114c0 31.333 -8.83301 57 -26.5 77s-39.5 30 -65.5 30c-25.333 0 -47 -9.5 -65 -28.5z
" />
    <glyph glyph-name="less" unicode="&#x3c;" horiz-adv-x="382" 
d="M362 157l-135 96l135 95l-33 157l-299 -212v-81l299 -214z" />
    <glyph glyph-name="equal" unicode="=" horiz-adv-x="543" 
d="M503 426h-473l11 -133h472zM503 215h-473l11 -133h472z" />
    <glyph glyph-name="greater" unicode="&#x3e;" horiz-adv-x="382" 
d="M352 291l-299 214l-33 -159l135 -96l-135 -95l33 -157l299 212v81z" />
    <glyph glyph-name="question" unicode="?" horiz-adv-x="467" 
d="M10 649l23 -149c62.667 35.333 117.667 53 165 53c14.667 0 26.834 -3.83301 36.501 -11.5s14.5 -17.5 14.5 -29.5c0 -18 -14.167 -37.333 -42.5 -58s-64.5 -38 -108.5 -52l7 -159l143 -39l12 115c62 22 107 48.667 135 80s42 68 42 110c0 38 -9.83301 71.5 -29.5 100.5
s-47.5 51.5 -83.5 67.5s-77 24 -123 24c-66.667 0 -130.334 -17.333 -191.001 -52zM101.5 156.5c-17.667 -17.667 -26.5 -39.5 -26.5 -65.5s8.83301 -47.667 26.5 -65s39.5 -26 65.5 -26c25.333 0 46.833 8.66699 64.5 26s26.5 39 26.5 65s-8.83301 47.833 -26.5 65.5
s-39.167 26.5 -64.5 26.5c-26 0 -47.833 -8.83301 -65.5 -26.5z" />
    <glyph glyph-name="at" unicode="@" horiz-adv-x="812" 
d="M548 444l-88.9941 0.00195312c-39.333 0 -77 -6.66699 -113 -20s-65.833 -36 -89.5 -68s-35.5 -74.333 -35.5 -127s15.667 -94.5 47 -125.5s78 -46.5 140 -46.5c27.333 0 53.666 6.33301 78.999 19c17.333 -14.667 40.666 -22 69.999 -22
c37.333 0 74.166 10.167 110.499 30.5s66.166 49.833 89.499 88.5s35 84 35 136c0 57.333 -15.667 110.5 -47 159.5s-74.5 88.167 -129.5 117.5s-115.833 44 -182.5 44c-84.667 0 -158.167 -18.167 -220.5 -54.5s-110 -84.5 -143 -144.5s-49.5 -124.333 -49.5 -193
c0 -73.333 18 -136.333 54 -189s83.833 -92.5 143.5 -119.5s125.167 -40.5 196.5 -40.5c40 0 77.167 3.16699 111.5 9.5s70.5 19.5 108.5 39.5l-44 101c-20 -7.33301 -47.333 -13 -82 -17s-63 -6 -85 -6c-44 0 -84.5 8.16699 -121.5 24.5s-66.667 40.666 -89 72.999
s-33.5 71.5 -33.5 117.5c0 52 11.167 98 33.5 138s53.166 70.833 92.499 92.5s84 32.5 134 32.5c46 0 84.167 -8.83301 114.5 -26.5s52.833 -40.834 67.5 -69.501s22 -60 22 -94c0 -22 -4.5 -41.5 -13.5 -58.5s-19.333 -30.333 -31 -40s-20.834 -14.5 -27.501 -14.5
c-4 0 -5.66699 3 -5 9l23 183zM427.006 225.002c-0.666992 -6.66699 -2.83203 -12.667 -6.49902 -18s-8.5 -8 -14.5 -8c-12.667 0 -22.334 3.83301 -29.001 11.5s-10 16.5 -10 26.5c0 26 6.16699 47.167 18.5 63.5s30.5 24.5 54.5 24.5z" />
    <glyph glyph-name="A" unicode="A" horiz-adv-x="711" 
d="M265 680l-255 -680h181l47 134h235l49 -144l179 18l-254 672h-182zM421 277h-133l65 185z" />
    <glyph glyph-name="B" unicode="B" horiz-adv-x="645" 
d="M543.5 47.5c54.333 31.667 81.502 83.5029 81.502 155.503c0 31.333 -8.16699 60.666 -24.5 87.999s-38.5 50.666 -66.5 69.999c19.333 19.333 34.666 38.666 45.999 57.999s17 41 17 65c0 65.333 -26.5 114.333 -79.5 147s-119.833 49 -200.5 49h-237v-680h257
c83.333 -0 152.166 15.833 206.499 47.5zM383.002 521.003c17.333 -10.667 26 -26 26 -46c0 -17.333 -10.167 -30.5 -30.5 -39.5s-45.5 -13.5 -75.5 -13.5h-41v115h49c30.667 0 54.667 -5.33301 72 -16zM411.002 260.003c17.333 -12.667 25.999 -30.333 25.999 -53
c0 -20.667 -8.66699 -36.5 -26 -47.5s-40.666 -16.5 -69.999 -16.5h-79v136h77c30.667 0 54.667 -6.33301 72 -19z" />
    <glyph glyph-name="C" unicode="C" horiz-adv-x="596" 
d="M485.5 678c-36.333 10 -71.832 15.002 -106.499 15.002c-66.667 0 -126.5 -15.167 -179.5 -45.5s-94.5 -72.5 -124.5 -126.5s-45 -115.333 -45 -184s14.167 -129.334 42.5 -182.001s69.166 -93.834 122.499 -123.501s116 -44.5 188 -44.5c35.333 0 71.5 4.5 108.5 13.5
s68.5 21.167 94.5 36.5l-69 136c-41.333 -24.667 -84.333 -37 -129 -37c-28.667 0 -56.167 8.16699 -82.5 24.5s-47.5 39.833 -63.5 70.5s-24 66.334 -24 107.001c0 40 7.83301 75.667 23.5 107s36 55.666 61 72.999s51.167 26 78.5 26c22.667 0 43.5 -2 62.5 -6
s46.167 -12 81.5 -24l54 123c-26 17.333 -57.167 31 -93.5 41z" />
    <glyph glyph-name="D" unicode="D" horiz-adv-x="739" 
d="M553 42c49.333 28 87.668 67.999 115.001 119.999s41 112.667 41 182c0 65.333 -12.333 123.333 -37 174s-61.167 90.334 -109.5 119.001s-106.5 43 -174.5 43h-308v-680h304c63.333 0 119.666 14 168.999 42zM483.502 483.499c25 -35.667 37.5 -82.166 37.5 -139.499
c0 -64.667 -13.833 -114.334 -41.5 -149.001s-63.5 -52 -107.5 -52h-110v394h117c44.667 0 79.5 -17.833 104.5 -53.5z" />
    <glyph glyph-name="E" unicode="E" horiz-adv-x="598" 
d="M578 0l-17 143h-299v127h226l-17 143h-209v124h286l-17 143h-451v-680h498z" />
    <glyph glyph-name="F" unicode="F" horiz-adv-x="558" 
d="M471 400h-209v136h276l-17 143h-441v-679h182v257h226z" />
    <glyph glyph-name="G" unicode="G" horiz-adv-x="666" 
d="M462 259l-0.000976562 -116.999c-22.667 -4 -44 -6 -64 -6c-30.667 0 -59.667 7 -87 21s-49.666 36.167 -66.999 66.5s-26 68.5 -26 114.5c0 44 9.16699 81.5 27.5 112.5s41.666 54.333 69.999 70s56.833 23.5 85.5 23.5c25.333 0 50.666 -2.16699 75.999 -6.5
s54.666 -12.166 87.999 -23.499l54 123c-25.333 17.333 -59.166 31 -101.499 41s-81.833 15 -118.5 15c-67.333 0 -129.166 -14.333 -185.499 -43s-101 -70 -134 -124s-49.5 -117 -49.5 -189c0 -72.667 14.833 -135.334 44.5 -188.001s71.834 -92.834 126.501 -120.501
s118.667 -41.5 192 -41.5c38 0 80.167 4.5 126.5 13.5s81.833 21.167 106.5 36.5v355h-265l-16 -133h117z" />
    <glyph glyph-name="H" unicode="H" horiz-adv-x="762" 
d="M682 0v680h-182v-271h-238v277l-182 -6v-680h182v266h238v-266h182z" />
    <glyph glyph-name="I" unicode="I" horiz-adv-x="342" 
d="M262 0v680h-182v-680h182z" />
    <glyph glyph-name="J" unicode="J" horiz-adv-x="345" 
d="M76.5 81.5c-11 -15.667 -33.167 -30.165 -66.5 -43.498l74 -144c48.667 15.333 86.5 31.166 113.5 47.499s46.667 35.666 59 57.999s18.5 50.5 18.5 84.5v596h-182v-543c0 -21.333 -5.5 -39.833 -16.5 -55.5z" />
    <glyph glyph-name="K" unicode="K" horiz-adv-x="730" 
d="M489 0l-174 254l-53 -50v-204h-182v680h182v-236l273 251l141 -102l-231 -216l275 -377h-231z" />
    <glyph glyph-name="L" unicode="L" horiz-adv-x="578" 
d="M551 143h-289v537h-182v-680h488z" />
    <glyph glyph-name="M" unicode="M" horiz-adv-x="799" 
d="M445 205l92 124v-329h182v680h-121l-188 -259l-205 259h-125v-680h182v329l110 -134z" />
    <glyph glyph-name="N" unicode="N" horiz-adv-x="773" 
d="M262 0v358l261 -358h170v680h-182v-369l-262 369h-169v-680h182z" />
    <glyph glyph-name="O" unicode="O" horiz-adv-x="763" 
d="M200 648.5c-53.333 -30.333 -95.001 -72.665 -125.001 -126.998s-45 -115.833 -45 -184.5c0 -65.333 14.333 -124.666 43 -177.999s69.5 -95.5 122.5 -126.5s114.833 -46.5 185.5 -46.5c68.667 0 129.667 15.167 183 45.5s94.833 72.666 124.5 126.999
s44.5 116.166 44.5 185.499c0 65.333 -14.167 124.666 -42.5 177.999s-69 95.333 -122 126s-115.5 46 -187.5 46c-67.333 0 -127.666 -15.167 -180.999 -45.5zM239.499 444.501c15 31 35 55 60 72s52.833 25.5 83.5 25.5c49.333 0 88.833 -18.5 118.5 -55.5
s44.5 -84.5 44.5 -142.5c0 -66 -15.5 -116.833 -46.5 -152.5s-70.833 -53.5 -119.5 -53.5c-50.667 0 -90.5 18.667 -119.5 56s-43.5 85.333 -43.5 144c0 40 7.5 75.5 22.5 106.5z" />
    <glyph glyph-name="P" unicode="P" horiz-adv-x="666" 
d="M262 198h95.999c51.333 0 98.833 8.66699 142.5 26s78.834 43.833 105.501 79.5s40 79.5 40 131.5c0 52.667 -12.5 97.5 -37.5 134.5s-58.667 64.667 -101 83s-89.5 27.5 -141.5 27.5h-286v-680h182v198zM431.499 509c17.667 -18.667 26.5 -43.333 26.5 -74
c0 -26.667 -9 -49 -27 -67s-41 -27 -69 -27h-100v196h98c30 0 53.833 -9.33301 71.5 -28z" />
    <glyph glyph-name="Q" unicode="Q" horiz-adv-x="763" 
d="M713.5 217c-13 -39.333 -31.832 -74.667 -56.499 -106l60 -66l-112 -97l-67 70c-46.667 -21.333 -99 -32 -157 -32c-70.667 0 -132.5 15.5 -185.5 46.5s-93.833 73.167 -122.5 126.5s-43 112.666 -43 177.999c0 68.667 15 130.167 45 184.5s71.667 96.666 125 126.999
s113.666 45.5 180.999 45.5c72 0 134.5 -15.333 187.5 -46s93.667 -72.667 122 -126s42.5 -112.666 42.5 -177.999c0 -45.333 -6.5 -87.666 -19.5 -126.999zM419.001 141.999l-83 87l120 102l75 -82c10 26 15 57.667 15 95c0 58 -14.833 105.5 -44.5 142.5
s-69.167 55.5 -118.5 55.5c-30.667 0 -58.5 -8.5 -83.5 -25.5s-45 -41 -60 -72s-22.5 -66.5 -22.5 -106.5c0 -58.667 14.5 -106.667 43.5 -144s68.833 -56 119.5 -56c15.333 0 28.333 1.33301 39 4z" />
    <glyph glyph-name="R" unicode="R" horiz-adv-x="714" 
d="M80 0l182 0.000976562v214h121l110 -214h211l-150 268c28.667 19.333 51.167 44.166 67.5 74.499s24.5 65.5 24.5 105.5c0 77.333 -26.333 135.333 -79 174s-119.667 58 -201 58h-286v-680zM432.5 514.501c17 -15 25.5 -37.167 25.5 -66.5c0 -26.667 -9 -48.5 -27 -65.5
s-41 -25.5 -69 -25.5h-100v180h98c31.333 0 55.5 -7.5 72.5 -22.5z" />
    <glyph glyph-name="S" unicode="S" horiz-adv-x="547" 
d="M137.5 3c43.667 -10.667 83.168 -16 118.501 -16c54.667 0 102.5 8.66699 143.5 26s72.5 41 94.5 71s33 64.333 33 103c0 34.667 -9.83301 65.834 -29.5 93.501s-43.5 51.667 -71.5 72s-63 42.5 -105 66.5l-36 20c-24 12.667 -41.167 22.834 -51.5 30.501
s-15.5 16.5 -15.5 26.5c0 13.333 6.16699 24.666 18.5 33.999s28.5 14 48.5 14c22.667 0 43.5 -2 62.5 -6s46.167 -12 81.5 -24l54 123c-26 17.333 -57.167 31 -93.5 41s-71.833 15 -106.5 15c-50.667 0 -95 -8.33301 -133 -25s-67.5 -39.834 -88.5 -69.501
s-31.5 -63.167 -31.5 -100.5c0 -35.333 10 -67 30 -95s42.667 -50.833 68 -68.5s60.666 -39.834 105.999 -66.501l31 -18c26 -15.333 44.833 -27.166 56.5 -35.499s17.5 -16.833 17.5 -25.5c0 -13.333 -8 -25.5 -24 -36.5s-37.333 -16.5 -64 -16.5
c-24 0 -51.833 4.5 -83.5 13.5s-56.5 18.833 -74.5 29.5l-60 -137c26 -15.333 60.833 -28.333 104.5 -39z" />
    <glyph glyph-name="T" unicode="T" horiz-adv-x="619" 
d="M592 680h-582v-143h200v-537h182v537h217z" />
    <glyph glyph-name="U" unicode="U" horiz-adv-x="750" 
d="M70 680l0.00195312 -420c0 -58 12.667 -107.5 38 -148.5s61 -72.167 107 -93.5s99.333 -32 160 -32s114 10.667 160 32s81.667 52.5 107 93.5s38 90.5 38 148.5v420h-182v-411c0 -41.333 -11.333 -73.5 -34 -96.5s-52.334 -34.5 -89.001 -34.5s-66.334 11.5 -89.001 34.5
s-34 55.167 -34 96.5v411h-182z" />
    <glyph glyph-name="V" unicode="V" horiz-adv-x="711" 
d="M189 690l-179 -18l254 -672h182l255 680h-181l-162 -462z" />
    <glyph glyph-name="W" unicode="W" horiz-adv-x="1000" 
d="M990 680l-195 -680h-182l-112 427l-105 -427h-182l-204 672l179 18l119 -472l102 462h181l116 -462l102 462h181z" />
    <glyph glyph-name="X" unicode="X" horiz-adv-x="715" 
d="M225 0l137 186l110 -186h233l-228 345l227 335h-226l-116 -182l-137 207l-196 -57l218 -310l-237 -338h215z" />
    <glyph glyph-name="Y" unicode="Y" horiz-adv-x="654" 
d="M408 0v266l236 414h-187l-141 -245l-132 259l-174 -48l216 -378v-268h182z" />
    <glyph glyph-name="Z" unicode="Z" horiz-adv-x="584" 
d="M554 143h-334l354 408l-19 129h-516l17 -143h301l-347 -409l20 -128h541z" />
    <glyph glyph-name="bracketleft" unicode="[" horiz-adv-x="478" 
d="M100 -87h368l-17 143h-169v497h170l16 143h-368v-783z" />
    <glyph glyph-name="backslash" unicode="\" horiz-adv-x="506" 
d="M496 0l-298 710h-188l299 -710h187z" />
    <glyph glyph-name="bracketright" unicode="]" horiz-adv-x="478" 
d="M378 696h-368l16 -143h170v-497h-169l-17 -143h368v783z" />
    <glyph glyph-name="asciicircum" unicode="^" horiz-adv-x="475" 
d="M240 253l52 -112h173l-155 283h-144l-156 -283h177z" />
    <glyph glyph-name="underscore" unicode="_" horiz-adv-x="456" 
d="M416 143h-386l11 -143h385z" />
    <glyph glyph-name="grave" unicode="`" horiz-adv-x="266" 
d="M124 588l132 22l-66 177h-180z" />
    <glyph glyph-name="a" unicode="a" horiz-adv-x="509" 
d="M158.5 345.5c23 5.66699 42.501 8.5 58.501 8.5c17.333 0 31.5 -4.66699 42.5 -14s17.833 -23.333 20.5 -42h-58c-126.667 0 -190 -47.333 -190 -142c0 -51.333 15.333 -92 46 -122s76 -45 136 -45c40.667 0 77 20.333 109 61l52 -50h88v300
c0 62.667 -17.333 112 -52 148s-84.334 54 -149.001 54c-37.333 0 -75.333 -4.5 -114 -13.5s-72 -19.833 -100 -32.5l48 -131c18.667 8 39.5 14.833 62.5 20.5zM195.501 187c7.66699 7.33301 17.499 11.001 29.499 11.001h56v-46c-22 -18 -43.333 -27 -64 -27
c-9.33301 0 -17.166 3.16699 -23.499 9.5s-9.5 14.5 -9.5 24.5c0 11.333 3.83301 20.666 11.5 27.999z" />
    <glyph glyph-name="b" unicode="b" horiz-adv-x="583" 
d="M494.5 438c45.667 -42.667 68.499 -105.667 68.499 -189c0 -84.667 -23.167 -149.167 -69.5 -193.5s-108.833 -66.5 -187.5 -66.5c-44.667 0 -85.667 14 -123 42l-31 -31h-92v695l182 11v-217c24.667 8.66699 48.667 13 72 13c74.667 0 134.834 -21.333 180.501 -64z
M351.999 161c15.333 21.333 23.002 50.332 23.002 86.999s-7.66699 64.834 -23 84.501s-37.333 29.5 -66 29.5c-14 0 -28.667 -5 -44 -15v-205c19.333 -8.66699 36.666 -13 51.999 -13c23.333 0 42.666 10.667 57.999 32z" />
    <glyph glyph-name="c" unicode="c" horiz-adv-x="457" 
d="M285 502c-52 0 -97.998 -10.335 -137.998 -31.002s-71.167 -50.667 -93.5 -90s-33.5 -85.666 -33.5 -138.999c0 -80 24.167 -142.167 72.5 -186.5s112.5 -66.5 192.5 -66.5c69.333 0 124.666 16.333 165.999 49l-51 125c-18.667 -10 -35.334 -16.833 -50.001 -20.5
s-30.334 -5.5 -47.001 -5.5c-26 0 -48.333 9.33301 -67 28s-28 44.334 -28 77.001c0 33.333 9.5 60.333 28.5 81s41.167 31 66.5 31c17.333 0 33 -1.83301 47 -5.5s30.667 -10.5 50 -20.5l51 125c-41.333 32.667 -96.666 49 -165.999 49z" />
    <glyph glyph-name="d" unicode="d" horiz-adv-x="583" 
d="M523 706l0.000976562 -706h-92l-27 35c-20 -14 -41.5 -25.167 -64.5 -33.5s-46.5 -12.5 -70.5 -12.5c-74.667 0 -134.834 21.333 -180.501 64s-68.5 105.667 -68.5 189c0 84.667 23.167 149.167 69.5 193.5s108.833 66.5 187.5 66.5c22.667 0 44 -3.33301 64 -10v203z
M231.001 158.5c15.333 -19.667 37.3301 -29.499 65.9971 -29.499c14.667 0 29.334 5 44.001 15v205c-19.333 8.66699 -36.666 13 -51.999 13c-23.333 0 -42.666 -10.667 -57.999 -32s-23 -50.333 -23 -87s7.66699 -64.834 23 -84.501z" />
    <glyph glyph-name="e" unicode="e" horiz-adv-x="533" 
d="M513 250c0 46.667 -8.83301 88.9971 -26.5 126.997s-43.834 68.333 -78.501 91s-77 34 -127 34c-49.333 0 -93.833 -10.5 -133.5 -31.5s-70.834 -51.167 -93.501 -90.5s-34 -85.333 -34 -138c0 -53.333 12.333 -99.166 37 -137.499s58.834 -67.166 102.501 -86.499
s93.834 -29 150.501 -29c39.333 0 77.833 5 115.5 15s66.5 22.333 86.5 37l-51 123c-42.667 -22 -87 -33 -133 -33c-30 0 -54.167 5.83301 -72.5 17.5s-30.833 27.834 -37.5 48.501h295v53zM231.5 334.997c13 14 27.832 21.001 44.499 21.001
c20.667 0 36.334 -7.33301 47.001 -22s16 -30.334 16 -47.001h-126c-0.666992 18 5.5 34 18.5 48z" />
    <glyph glyph-name="f" unicode="f" horiz-adv-x="451" 
d="M90 322l0.000976562 -322h182v322h151l-17 143h-134v25c0 20 5.16699 35.833 15.5 47.5s24.166 17.5 41.499 17.5c24 0 47.333 -6.33301 70 -19l52 124c-12.667 10.667 -32.5 20.5 -59.5 29.5s-51.833 13.5 -74.5 13.5c-40 0 -77.333 -7.33301 -112 -22
s-62.5 -36.5 -83.5 -65.5s-31.5 -64.167 -31.5 -105.5v-45h-80v-143h80z" />
    <glyph glyph-name="g" unicode="g" horiz-adv-x="579" 
d="M523 484v-500.002c0 -41.333 -11.167 -78.166 -33.5 -110.499s-53.666 -57.666 -93.999 -75.999s-86.833 -27.5 -139.5 -27.5c-28 0 -65 4.83301 -111 14.5s-83 23.5 -111 41.5l55 128c29.333 -14.667 56.333 -24.5 81 -29.5s49 -7.5 73 -7.5
c28.667 0 52.167 6.5 70.5 19.5s27.5 29.167 27.5 48.5v17c-24.667 -8.66699 -48.667 -13 -72 -13c-74.667 0 -134.834 21.333 -180.501 64s-68.5 105.667 -68.5 189c0 84.667 23.167 149.167 69.5 193.5s108.833 66.5 187.5 66.5c48 0 91.667 -16 131 -48l24 30h91z
M341 143.998l-0.00292969 205.001c-19.333 8.66699 -36.666 13 -51.999 13c-23.333 0 -42.666 -10.667 -57.999 -32s-23 -50.333 -23 -87s7.66699 -64.834 23 -84.501s37.333 -29.5 66 -29.5c14.667 0 29.334 5 44.001 15z" />
    <glyph glyph-name="h" unicode="h" horiz-adv-x="620" 
d="M530 449.5c29.333 -34.333 44 -79.833 44 -136.5v-313h-182v296c0 38.667 -17.333 58 -52 58c-10.667 0 -25.667 -2.83301 -45 -8.5s-37 -12.167 -53 -19.5v-326h-182v695l182 11v-247c56 28 108 42 156 42c58.667 0 102.667 -17.167 132 -51.5z" />
    <glyph glyph-name="i" unicode="i" horiz-adv-x="282" 
d="M210.5 580c19.667 19.333 29.5 42.333 29.5 69c0 27.333 -9.83301 50.833 -29.5 70.5s-43.167 29.5 -70.5 29.5c-26.667 0 -49.667 -9.83301 -69 -29.5s-29 -43.167 -29 -70.5c0 -26.667 9.66699 -49.667 29 -69s42.333 -29 69 -29c27.333 0 50.833 9.66699 70.5 29z
M232 0v485h-182v-485h182z" />
    <glyph glyph-name="j" unicode="j" horiz-adv-x="302" 
d="M88.5 580.5c-20.333 19.667 -30.5 42.5 -30.5 68.5c0 27.333 9.66699 50.833 29 70.5s42.333 29.5 69 29.5c27.333 0 50.833 -9.83301 70.5 -29.5s29.5 -43.167 29.5 -70.5c0 -26.667 -9.83301 -49.667 -29.5 -69s-43.167 -29 -70.5 -29
c-24.667 0 -47.167 9.83301 -67.5 29.5zM248 2c0 -35.333 -5.66699 -64.5 -17 -87.5s-30.333 -43 -57 -60s-64 -33.167 -112 -48.5l-72 131c22.667 8 39.5 16.5 50.5 25.5s18 18.5 21 28.5s4.5 22.667 4.5 38v456h182v-483z" />
    <glyph glyph-name="k" unicode="k" horiz-adv-x="567" 
d="M242 0v156l33 25l96 -181h196l-164 277l129 97l-109 125l-181 -153v360l-182 -11v-695h182z" />
    <glyph glyph-name="l" unicode="l" horiz-adv-x="302" 
d="M242 0v706l-182 -11v-695h182z" />
    <glyph glyph-name="m" unicode="m" horiz-adv-x="921" 
d="M875 313l0.000976562 -313h-182v296c0 18.667 -2.83301 33 -8.5 43s-18.5 15 -38.5 15c-8.66699 0 -22.334 -3 -41.001 -9s-35.667 -12.333 -51 -19v-13v-313h-182v296c0 18.667 -2.83301 33 -8.5 43s-18.5 15 -38.5 15c-8.66699 0 -22.5 -3 -41.5 -9
s-36.167 -12.333 -51.5 -19v-326h-182v485h108l32 -50c70.667 44 135 66 193 66c64 0 110 -20 138 -60c66 40 127 60 183 60c114 0 171 -62.667 171 -188z" />
    <glyph glyph-name="n" unicode="n" 
d="M232 326c16 7.33301 33.667 13.833 53 19.5s34.333 8.5 45 8.5c18.667 0 32 -5.5 40 -16.5s12 -24.833 12 -41.5v-296h182v313c0 56.667 -14.667 102.167 -44 136.5s-73.333 51.5 -132 51.5c-61.333 0 -127.333 -22 -198 -66l-32 50h-108v-485h182v326z" />
    <glyph glyph-name="o" unicode="o" horiz-adv-x="590" 
d="M533.5 104c-24.333 -38 -57.666 -66.667 -99.999 -86s-89.833 -29 -142.5 -29c-81.333 0 -146.833 21.833 -196.5 65.5s-74.5 107.167 -74.5 190.5c0 52.667 12.167 98.5 36.5 137.5s57.333 68.667 99 89s88.167 30.5 139.5 30.5c54 0 101.667 -10 143 -30
s73.666 -49.667 96.999 -89s35 -87 35 -143c0 -52.667 -12.167 -98 -36.5 -136zM359 163c15.333 17.333 23 43 23 77c0 33.333 -7.5 60.666 -22.5 81.999s-35.833 32 -62.5 32c-28 0 -49.833 -9.66699 -65.5 -29s-23.5 -46 -23.5 -80c0 -33.333 7.33301 -59.666 22 -78.999
s35.667 -29 63 -29c28.667 0 50.667 8.66699 66 26z" />
    <glyph glyph-name="p" unicode="p" horiz-adv-x="579" 
d="M490.5 438c45.667 -42.667 68.499 -105.667 68.499 -189c0 -84.667 -23.167 -149.167 -69.5 -193.5s-108.833 -66.5 -187.5 -66.5c-22.667 0 -44 3.33301 -64 10v-208l-182 -10v703h91l28 -28c20 14 41.5 25.167 64.5 33.5s46.5 12.5 70.5 12.5
c74.667 0 134.834 -21.333 180.501 -64zM347.999 161c15.333 21.333 23.002 50.332 23.002 86.999s-7.66699 64.834 -23 84.501s-37.333 29.5 -66 29.5c-14 0 -28.667 -5 -44 -15v-205c19.333 -8.66699 36.666 -13 51.999 -13c23.333 0 42.666 10.667 57.999 32z" />
    <glyph glyph-name="q" unicode="q" horiz-adv-x="579" 
d="M523 484l0.000976562 -692l-182 -11v221c-24.667 -8.66699 -48.667 -13 -72 -13c-74.667 0 -134.834 21.333 -180.501 64s-68.5 105.667 -68.5 189c0 84.667 23.167 149.167 69.5 193.5s108.833 66.5 187.5 66.5c46.667 0 89.667 -15.333 129 -46l26 28h91zM341.001 144
l-0.00292969 205.001c-19.333 8.66699 -36.666 13 -51.999 13c-23.333 0 -42.666 -10.667 -57.999 -32s-23 -50.333 -23 -87s7.66699 -64.834 23 -84.501s37.333 -29.5 66 -29.5c14.667 0 29.334 5 44.001 15z" />
    <glyph glyph-name="r" unicode="r" horiz-adv-x="395" 
d="M232 285c20.667 16 45.333 29 74 39s55 15 79 15l-37 146c-25.333 0 -53 -6 -83 -18s-56.667 -26 -80 -42l-44 59h-91v-484h182v285z" />
    <glyph glyph-name="s" unicode="s" horiz-adv-x="451" 
d="M122.5 3c42.333 -9.33301 77.832 -13.9971 106.499 -13.9971c66.667 0 117 14.167 151 42.5s51 68.166 51 119.499c0 40 -15.833 72.5 -47.5 97.5s-72.5 46.167 -122.5 63.5c-15.333 5.33301 -27.666 10.666 -36.999 15.999s-14 10 -14 14c0 6.66699 4.66699 12 14 16
s21.333 6 36 6c17.333 0 36.5 -2.66699 57.5 -8s41.5 -12.333 61.5 -21l51 115c-24.667 19.333 -54.167 32.833 -88.5 40.5s-65.833 11.5 -94.5 11.5c-67.333 0 -120 -14.333 -158 -43s-57 -68.334 -57 -119.001c0 -40 16.167 -72.333 48.5 -97s73.833 -46 124.5 -64
c14 -4.66699 25.5 -9.83398 34.5 -15.501s13.5 -10.5 13.5 -14.5c0 -6.66699 -4 -12 -12 -16s-18 -6 -30 -6c-17.333 0 -39.833 3.33301 -67.5 10s-51.167 14.667 -70.5 24l-51 -115c24.667 -19.333 58.167 -33.666 100.5 -42.999z" />
    <glyph glyph-name="t" unicode="t" horiz-adv-x="456" 
d="M267 465l-0.000976562 156l-182 -25v-131h-75v-143h75v-140c0 -41.333 10.5 -76.5 31.5 -105.5s48.833 -50.833 83.5 -65.5s72 -22 112 -22c22.667 0 47.5 4.5 74.5 13.5s46.833 18.833 59.5 29.5l-52 124c-22.667 -12.667 -46 -19 -70 -19
c-17.333 0 -31.166 5.83301 -41.499 17.5s-15.5 27.5 -15.5 47.5v120h144l-17 143h-127z" />
    <glyph glyph-name="u" unicode="u" 
d="M378 158c-16 -7.33301 -33.667 -13.833 -53 -19.5s-34.333 -8.5 -45 -8.5c-18.667 0 -32 5.5 -40 16.5s-12 24.833 -12 41.5v296h-182v-313c0 -56.667 14.667 -102.167 44 -136.5s73.333 -51.5 132 -51.5c61.333 0 127.333 22 198 66l52 -50h88v485h-182v-326z" />
    <glyph glyph-name="v" unicode="v" horiz-adv-x="569" 
d="M368 0l191 485h-181l-93 -274l-97 292l-168 -48l176 -455h172z" />
    <glyph glyph-name="w" unicode="w" horiz-adv-x="812" 
d="M641 0l161 485h-181l-63 -275l-72 275h-171l-67 -275l-70 293l-168 -48l148 -455h166l75 251l76 -251h166z" />
    <glyph glyph-name="x" unicode="x" horiz-adv-x="557" 
d="M215 0l63 104l65 -104h204l-165 231l165 254h-201l-74 -117l-85 132l-176 -42l157 -217l-158 -241h205z" />
    <glyph glyph-name="y" unicode="y" horiz-adv-x="561" 
d="M140.5 -38.5c-21.667 -11.667 -49.8301 -24.832 -84.4971 -39.499l61 -141c49.333 10.667 94.666 30.667 135.999 60s69.666 63.333 84.999 102l213 542h-181l-93 -274l-99 292l-168 -48l174 -446l-4 -11c-4.66699 -12.667 -17.834 -24.834 -39.501 -36.501z" />
    <glyph glyph-name="z" unicode="z" horiz-adv-x="452" 
d="M417 485h-387l17 -143h160l-199 -248l22 -94h414l-17 143h-197l196 241z" />
    <glyph glyph-name="braceleft" unicode="{" horiz-adv-x="349" 
d="M276.5 334c6.33301 8.66699 9.5 21.334 9.5 38.001c0 13.333 -1.5 24.166 -4.5 32.499s-7.5 17.166 -13.5 26.499c-5.33301 8 -9.5 15.667 -12.5 23s-4.5 16.666 -4.5 27.999c0 23.333 12.667 35 38 35h37l13 142h-113c-48 0 -83.667 -11.167 -107 -33.5
s-35 -53.166 -35 -92.499c0 -11.333 1.66699 -22.833 5 -34.5s8 -25.167 14 -40.5c9.33301 -20.667 14 -36.334 14 -47.001c0 -11.333 -4.16699 -20.5 -12.5 -27.5s-18.166 -10.5 -29.499 -10.5h-45v-126h45c11.333 0 21.166 -3.5 29.499 -10.5s12.5 -16.167 12.5 -27.5
c0 -6 -1.5 -13.5 -4.5 -22.5s-6.16699 -17.833 -9.5 -26.5c-6.66699 -16.667 -11.5 -30.167 -14.5 -40.5s-4.5 -21.166 -4.5 -32.499c0 -39.333 11.667 -70.166 35 -92.499s59 -33.5 107 -33.5h113l-13 142h-37c-25.333 0 -38 11.667 -38 35
c0 11.333 1.33301 20.666 4 27.999s7 16 13 26c6 9.33301 10.5 17.833 13.5 25.5s4.5 17.834 4.5 30.501c0 16 -3.33301 28.667 -10 38s-14.667 17.333 -24 24c10 7.33301 18.167 15.333 24.5 24z" />
    <glyph glyph-name="bar" unicode="|" horiz-adv-x="342" 
d="M80 713v-713l182 -16v713z" />
    <glyph glyph-name="braceright" unicode="}" horiz-adv-x="349" 
d="M72.5 286c-6.33301 -8.66699 -9.5 -21.332 -9.5 -37.999c0 -12.667 1.5 -22.834 4.5 -30.501s7.5 -16.167 13.5 -25.5c5.33301 -9.33301 9.5 -17.666 12.5 -24.999s4.5 -17 4.5 -29c0 -23.333 -12.667 -35 -38 -35h-37l-13 -142h113c48 0 83.667 11.167 107 33.5
s35 53.166 35 92.499c0 11.333 -1.66699 22.333 -5 33s-8.33301 25.334 -15 44.001c-8.66699 22 -13 37 -13 45c0 11.333 4.16699 20.5 12.5 27.5s18.166 10.5 29.499 10.5h45v126h-45c-11.333 0 -21.166 3.5 -29.499 10.5s-12.5 16.167 -12.5 27.5
c0 7.33301 2.16699 16.833 6.5 28.5s6.83301 18.5 7.5 20.5c6 16 10.667 29.333 14 40s5 21.667 5 33c0 39.333 -11.667 70.166 -35 92.499s-59 33.5 -107 33.5h-113l13 -142h37c25.333 0 38 -11.667 38 -35c0 -11.333 -1.33301 -20.666 -4 -27.999s-7 -16 -13 -26
c-6 -9.33301 -10.5 -17.833 -13.5 -25.5s-4.5 -17.834 -4.5 -30.501c0 -16 3.33301 -28.667 10 -38s14.667 -17.333 24 -24c-10 -7.33301 -18.167 -15.333 -24.5 -24z" />
    <glyph glyph-name="asciitilde" unicode="~" horiz-adv-x="565" 
d="M173 175c0 11.333 4.5 22.332 13.5 32.999s19.5 16 31.5 16c16 0 30.833 -1.5 44.5 -4.5s29.167 -7.16699 46.5 -12.5c21.333 -6 38 -10.333 50 -13s25.333 -4 40 -4c48 0 82.667 18.833 104 56.5s32 88.834 32 153.501h-126c0 -11.333 -4 -22.333 -12 -33
s-18 -16 -30 -16c-20.667 0 -49.334 5.66699 -86.001 17c-14.667 4 -30.167 7.83301 -46.5 11.5s-31.166 5.5 -44.499 5.5c-50.667 0 -90 -19.5 -118 -58.5s-42 -89.5 -42 -151.5h143z" />
    <glyph glyph-name="uni00A0" unicode="&#xa0;" horiz-adv-x="220" 
 />
    <glyph glyph-name="exclamdown" unicode="&#xa1;" horiz-adv-x="243" 
d="M186.5 557.5c17.667 17.667 26.5 39.5 26.5 65.5s-8.83301 47.667 -26.5 65s-39.5 26 -65.5 26c-25.333 0 -46.833 -8.66699 -64.5 -26s-26.5 -39 -26.5 -65s8.83301 -47.833 26.5 -65.5s39.167 -26.5 64.5 -26.5c26 0 47.833 8.83301 65.5 26.5zM192 466l-142 40
l-20 -506h182z" />
    <glyph glyph-name="cent" unicode="&#xa2;" horiz-adv-x="457" 
d="M350 142.5c14.667 3.66699 31.332 10.5 49.999 20.5l51 -125c-24.667 -19.333 -54.334 -33 -89.001 -41v-122h-150v121c-59.333 12 -106.166 39.333 -140.499 82s-51.5 97.334 -51.5 164.001s17.167 122 51.5 166s81.166 72.667 140.499 86v124l150 13v-137
c34.667 -8 64.334 -21.667 89.001 -41l-51 -125c-19.333 10 -36 16.833 -50 20.5s-29.667 5.5 -47 5.5c-25.333 0 -47.5 -10.333 -66.5 -31s-28.5 -47.667 -28.5 -81c0 -32.667 9.33301 -58.334 28 -77.001s41 -28 67 -28c16.667 0 32.334 1.83301 47.001 5.5z" />
    <glyph glyph-name="sterling" unicode="&#xa3;" horiz-adv-x="522" 
d="M512 0l-16.999 143h-197c3.33301 14.667 5 29.667 5 45v80h150l-17 143h-133v60c0 20 5.83301 35.833 17.5 47.5s28.167 17.5 49.5 17.5c9.33301 0 20.666 -1.66699 33.999 -5s25.333 -8 36 -14l52 124c-12.667 10.667 -32.5 20.5 -59.5 29.5s-51.833 13.5 -74.5 13.5
c-42.667 0 -82 -7.33301 -118 -22s-64.833 -36.5 -86.5 -65.5s-32.5 -64.167 -32.5 -105.5v-80h-81v-143h81v-60c0 -20.667 -6.33301 -36.5 -19 -47.5s-33.667 -16.833 -63 -17.5l10 -143h463z" />
    <glyph glyph-name="currency" unicode="&#xa4;" horiz-adv-x="813" 
d="M654 136c17.333 36 26 74.666 26 115.999c0 39.333 -8.33301 77.333 -25 114l116 114l-125 124l-112 -118c-18 8.66699 -38.167 15.167 -60.5 19.5s-44.833 6.5 -67.5 6.5c-22 0 -44.167 -2.33301 -66.5 -7s-42.5 -11.334 -60.5 -20.001l-107 114l-142 -118l129 -116
c-17.333 -36 -26 -74.667 -26 -116c0 -39.333 8.33301 -77.333 25 -114l-116 -114l125 -124l112 118c36 -16.667 78.667 -25.667 128 -27c22 0.666992 44.167 3.33398 66.5 8.00098s42.5 11.334 60.5 20.001l107 -114l142 118zM474.5 185.499
c-17.667 -17.667 -40.166 -26.5 -67.499 -26.5c-26.667 0 -49 8.66699 -67 26s-27.333 39 -28 65c0.666992 26 9.66699 47.833 27 65.5s39.666 26.5 66.999 26.5c26.667 0 49.167 -8.66699 67.5 -26s27.5 -39 27.5 -65s-8.83301 -47.833 -26.5 -65.5z" />
    <glyph glyph-name="yen" unicode="&#xa5;" horiz-adv-x="654" 
d="M556 200h-148v-38h138l10 -116h-148v-46h-182v46h-118l-10 116h128v38h-118l-10 116h101l-189 330l174 48l132 -259l141 245h187l-207 -364h109z" />
    <glyph glyph-name="brokenbar" unicode="&#xa6;" horiz-adv-x="342" 
d="M80 713v-303l182 -16v303zM80 303v-303l182 -16v303z" />
    <glyph glyph-name="section" unicode="&#xa7;" horiz-adv-x="710" 
d="M647 158.5c-28.667 -33 -68.6699 -56.502 -120.003 -70.502v-7c0 -38.667 -11 -73 -33 -103s-53.5 -53.667 -94.5 -71s-88.833 -26 -143.5 -26c-35.333 0 -74.833 5.33301 -118.5 16s-78.5 23.667 -104.5 39l60 137c18 -10.667 42.833 -20.5 74.5 -29.5
s59.5 -13.5 83.5 -13.5c26.667 0 48 5.5 64 16.5s24 23.167 24 36.5c0 8.66699 -5.83301 17.167 -17.5 25.5s-30.5 20.166 -56.5 35.499l-31 18c-45.333 26.667 -80.666 48.834 -105.999 66.501s-48 40.5 -68 68.5s-30 59.667 -30 95
c0.666992 44.667 15.334 83.334 44.001 116.001s68.334 55.334 119.001 68.001v9c0 37.333 10.5 70.833 31.5 100.5s50.5 52.834 88.5 69.501s82.333 25 133 25c34.667 0 70.167 -5 106.5 -15s67.5 -23.667 93.5 -41l-54 -123c-35.333 12 -62.5 20 -81.5 24
s-39.833 6 -62.5 6c-20 0 -36.167 -4.66699 -48.5 -14s-18.5 -20.666 -18.5 -33.999c0 -10 5.16699 -18.833 15.5 -26.5s27.5 -17.834 51.5 -30.501l36 -20c42 -24 77 -46.167 105 -66.5s51.833 -44.333 71.5 -72s29.5 -58.834 29.5 -93.501c0 -44 -14.333 -82.5 -43 -115.5
zM449.997 226.998c16 4 28.667 10.6699 38 20.0029s14 19 14 29c0 8.66699 -5.83301 17.167 -17.5 25.5s-30.5 20.166 -56.5 35.499l-31 18l-20 12c-45.333 26 -80.333 49.333 -105 70c-16 -2 -29 -7.5 -39 -16.5s-15 -19.167 -15 -30.5c0 -10 5.16699 -18.833 15.5 -26.5
s27.5 -17.834 51.5 -30.501l36 -20c58 -32.667 101 -61.334 129 -86.001z" />
    <glyph glyph-name="dieresis" unicode="&#xa8;" horiz-adv-x="398" 
d="M153 627c16 16 24 35.667 24 59c0 22.667 -8 42.167 -24 58.5s-36 24.5 -60 24.5c-22 0 -41.333 -8.16699 -58 -24.5s-25 -35.833 -25 -58.5c0 -23.333 8.16699 -43 24.5 -59s35.833 -24 58.5 -24c24 0 44 8 60 24zM364 627c16 16 24 35.667 24 59
c0 22.667 -8 42.167 -24 58.5s-36 24.5 -60 24.5c-22 0 -41.333 -8.16699 -58 -24.5s-25 -35.833 -25 -58.5c0 -23.333 8.16699 -43 24.5 -59s35.833 -24 58.5 -24c24 0 44 8 60 24z" />
    <glyph glyph-name="copyright" unicode="&#xa9;" horiz-adv-x="825" 
d="M755.5 529c-33 58 -79.333 103.667 -139 137s-127.834 50 -204.501 50c-76 0 -143.833 -16.667 -203.5 -50s-106 -79 -139 -137s-49.5 -122.333 -49.5 -193c0 -69.333 16.5 -132.833 49.5 -190.5s79.333 -103.334 139 -137.001s127.5 -50.5 203.5 -50.5
c76.667 0 144.834 16.833 204.501 50.5s106 79.334 139 137.001s49.5 121.167 49.5 190.5c0 70.667 -16.5 135 -49.5 193zM187 467.5c21.333 39 51.502 69.667 90.502 92s83.833 33.5 134.5 33.5c55.333 0 102.166 -11 140.499 -33s67.166 -52.333 86.499 -91
s29 -82.667 29 -132c0 -48 -10.5 -91.333 -31.5 -130s-51 -69.167 -90 -91.5s-83.833 -33.5 -134.5 -33.5s-95.5 11.167 -134.5 33.5s-69.167 52.833 -90.5 91.5s-32 82 -32 130s10.667 91.5 32 130.5zM569.002 158l-43.999 108.999c-16 -8.66699 -30.667 -14.667 -44 -18
s-27 -5 -41 -5c-22.667 0 -42.167 8.16699 -58.5 24.5s-24.5 38.833 -24.5 67.5c0 29.333 8.16699 53 24.5 71s35.833 27 58.5 27c15.333 0 29.166 -1.66699 41.499 -5s26.833 -9.33301 43.5 -18l44 109c-36 28.667 -84.333 43 -145 43
c-45.333 0 -85.5 -9.16699 -120.5 -27.5s-62.167 -44.666 -81.5 -78.999s-29 -74.5 -29 -120.5c0 -69.333 21 -123.5 63 -162.5s98 -58.5 168 -58.5c60.667 0 109 14.333 145 43z" />
    <glyph glyph-name="ordfeminine" unicode="&#xaa;" horiz-adv-x="347" 
d="M110.5 574c16.333 4 30.1689 5.99805 41.502 5.99805c16.667 0 29 -5.33301 37 -16h-34c-42 0 -75 -9 -99 -27s-36 -45 -36 -81c0 -37.333 11 -66.5 33 -87.5s54.333 -31.5 97 -31.5c19.333 0 37.5 3 54.5 9s30.833 14.333 41.5 25l23 -27h58v214
c0 44.667 -12.333 79.834 -37 105.501s-60 38.5 -106 38.5c-26.667 0 -53.834 -3.16699 -81.501 -9.5s-51.5 -14.166 -71.5 -23.499l35 -110c13.333 6 28.166 11 44.499 15zM144.503 471.498c4.33301 2.33301 9.83301 3.5 16.5 3.5h36v-5
c-4.66699 -6 -10.5 -10.667 -17.5 -14s-14.167 -5 -21.5 -5c-6 0 -10.833 1 -14.5 3s-5.5 4.33301 -5.5 7c0 4.66699 2.16699 8.16699 6.5 10.5z" />
    <glyph glyph-name="guillemotleft" unicode="&#xab;" horiz-adv-x="421" 
d="M30 224l157 -151l33 106l-66 68l66 67l-33 107l-157 -152v-45zM211 224l157 -151l33 106l-66 68l66 67l-33 107l-157 -152v-45z" />
    <glyph glyph-name="logicalnot" unicode="&#xac;" horiz-adv-x="554" 
d="M506 424h-496l13 -143h333v-164l168 -7v247z" />
    <glyph glyph-name="softhyphen" unicode="&#xad;" horiz-adv-x="120" 
 />
    <glyph glyph-name="registered" unicode="&#xae;" horiz-adv-x="723" 
d="M661 648.5c-28 51.667 -67.833 92.334 -119.5 122.001s-111.834 44.5 -180.501 44.5c-68 0 -127.833 -14.833 -179.5 -44.5s-91.5 -70.334 -119.5 -122.001s-42 -109.5 -42 -173.5c0 -62.667 14 -119.667 42 -171s67.833 -91.833 119.5 -121.5s111.5 -44.5 179.5 -44.5
c68.667 0 128.834 14.833 180.501 44.5s91.5 70.167 119.5 121.5s42 108.333 42 171c0 64 -14 121.833 -42 173.5zM158.5 597c18.333 35.333 45 63 80 83s75.833 30 122.5 30s87.5 -10 122.5 -30s61.833 -47.667 80.5 -83s28 -75.666 28 -120.999
c0 -44.667 -9.33301 -84.667 -28 -120s-45.5 -63.166 -80.5 -83.499s-75.833 -30.5 -122.5 -30.5s-87.5 10.167 -122.5 30.5s-61.667 48.166 -80 83.499s-27.5 75.333 -27.5 120c0 45.333 9.16699 85.666 27.5 120.999zM459 436c17.333 10.667 31.333 24.333 42 41
s16 35.667 16 57c0 40 -15 70.333 -45 91s-66.333 31 -109 31h-149v-356h105v112h36l43 -112h119zM388.5 565.499c8.33301 -5.66699 12.5 -16.168 12.5 -31.501c0 -13.333 -4.66699 -23.666 -14 -30.999s-21.666 -11 -36.999 -11h-31v82h31
c17.333 0 30.166 -2.83301 38.499 -8.5z" />
    <glyph glyph-name="macron" unicode="&#xaf;" horiz-adv-x="310" 
d="M10 613h290l-10 143h-280v-143z" />
    <glyph glyph-name="degree" unicode="&#xb0;" horiz-adv-x="295" 
d="M79 702.5c-21.333 -11.667 -38.167 -27.666 -50.5 -47.999s-18.5 -42.5 -18.5 -66.5c0 -24.667 6.16699 -47 18.5 -67s29 -35.667 50 -47s44.167 -17 69.5 -17c24 0 46.5 5.66699 67.5 17s37.833 27.166 50.5 47.499s19 42.5 19 66.5s-6.33301 46 -19 66
s-29.5 36 -50.5 48s-43.5 18 -67.5 18c-24.667 0 -47.667 -5.83301 -69 -17.5zM167.499 568.001c-5 -5.33301 -11.167 -8 -18.5 -8c-6.66699 0 -12.667 3 -18 9s-8 12.333 -8 19s2.66699 12.667 8 18s11.333 8 18 8c7.33301 0 13.5 -2.83301 18.5 -8.5
s7.5 -12.167 7.5 -19.5c0 -6.66699 -2.5 -12.667 -7.5 -18z" />
    <glyph glyph-name="plusminus" unicode="&#xb1;" horiz-adv-x="545" 
d="M505 415h-157v155h-148v-155h-168l11 -123h157v-135l148 -8v143h167zM503 123h-473l11 -123h472z" />
    <glyph glyph-name="twosuperior" unicode="&#xb2;" horiz-adv-x="384" 
d="M93 756.5c-26 -9.66699 -52 -23.168 -78 -40.501l58 -90c23.333 12 42 20.667 56 26s29 8 45 8c16.667 0 29.5 -2.83301 38.5 -8.5s13.5 -12.834 13.5 -21.501c-1.33301 -24.667 -22.333 -54.667 -63 -90l-128 -113v-90h329l-12 107h-123l23 21
c34 30.667 58.333 59.834 73 87.501s22 57.834 22 90.501c0 34.667 -13.833 64.667 -41.5 90s-69.5 38 -125.5 38c-32 0 -61 -4.83301 -87 -14.5z" />
    <glyph glyph-name="threesuperior" unicode="&#xb3;" horiz-adv-x="408" 
d="M16 716l64.9941 -92.999c36 24.667 68 37 96 37c18.667 0 32.834 -3.16699 42.501 -9.5s14.5 -14.5 14.5 -24.5c0 -12.667 -6.33301 -22.667 -19 -30s-30 -11 -52 -11h-61l11 -108h77c15.333 0 27.833 -4 37.5 -12s14.5 -19 14.5 -33c0 -12.667 -5.66699 -23 -17 -31
s-25.333 -12 -42 -12c-17.333 0 -34.666 3 -51.999 9s-36.666 15.667 -57.999 29l-73 -91c28 -18 58.333 -32 91 -42s63 -15 91 -15c39.333 0 74.333 6.33301 105 19s54.334 30.167 71.001 52.5s25 48.166 25 77.499c0 21.333 -6.33301 42.833 -19 64.5
s-28 37.834 -46 48.501c13.333 6.66699 26 20.167 38 40.5s18 39.166 18 56.499c0 40 -16.667 72.167 -50 96.5s-77.666 36.5 -132.999 36.5c-69.333 0 -127.666 -18.333 -174.999 -55z" />
    <glyph glyph-name="acute" unicode="&#xb4;" horiz-adv-x="266" 
d="M142 588l114 199h-180l-66 -177z" />
    <glyph glyph-name="mu" unicode="&#xb5;" horiz-adv-x="620" 
d="M570 484v-485h-108l-32 50c-68.667 -42.667 -132.667 -64.667 -192 -66v-192l-182 -10v703h182v-296c0 -16.667 4 -30.5 12 -41.5s21.333 -16.5 40 -16.5c10.667 0 25.667 2.83301 45 8.5s37 12.167 53 19.5v326h182z" />
    <glyph glyph-name="paragraph" unicode="&#xb6;" horiz-adv-x="1053" 
d="M534 537h179v-537h182v537h138v143h-718c-88 0 -159.167 -19.667 -213.5 -59s-81.5 -100 -81.5 -182c0 -54.667 14 -100.667 42 -138s65.167 -65 111.5 -83s97.833 -27 154.5 -27h25v-191h181v537z" />
    <glyph glyph-name="periodcentered" unicode="&#xb7;" horiz-adv-x="243" 
d="M186.5 198c17.667 17.333 26.5 39 26.5 65s-8.83301 47.833 -26.5 65.5s-39.167 26.5 -64.5 26.5c-26 0 -47.833 -8.83301 -65.5 -26.5s-26.5 -39.5 -26.5 -65.5s8.83301 -47.667 26.5 -65s39.5 -26 65.5 -26c25.333 0 46.833 8.66699 64.5 26z" />
    <glyph glyph-name="cedilla" unicode="&#xb8;" horiz-adv-x="277" 
d="M135 -132c0 -6 -3.00098 -10.5 -9.00098 -13.5s-13.333 -4.5 -22 -4.5c-11.333 0 -30 5 -56 15l-38 -86c16.667 -12.667 35.334 -22.667 56.001 -30s40.667 -11 60 -11c38 0 71 10.833 99 32.5s42 50.834 42 87.501c0 20.667 -5.66699 41.167 -17 61.5
s-28.333 34.166 -51 41.499l20 52h-126l-43 -107c56.667 -6 85 -18.667 85 -38z" />
    <glyph glyph-name="onesuperior" unicode="&#xb9;" horiz-adv-x="336" 
d="M276 337v427h-91l-175 -81l35 -117l94 42v-271h137z" />
    <glyph glyph-name="ordmasculine" unicode="&#xba;" horiz-adv-x="402" 
d="M68.5 652.5c-32.333 -33 -48.501 -77.499 -48.501 -133.499c0 -56.667 15.333 -101.167 46 -133.5s73.667 -48.5 129 -48.5c56.667 0 102 16.167 136 48.5s51 76.166 51 131.499c0 56.667 -16 101.667 -48 135s-76.667 50 -134 50
c-55.333 0 -99.166 -16.5 -131.499 -49.5zM234.499 562.501c6.33301 -10.333 9.50098 -25.5 9.50098 -45.5s-3.66699 -34.833 -11 -44.5s-19 -14.5 -35 -14.5c-14 0 -24.167 5 -30.5 15s-9.5 25.333 -9.5 46c0 39.333 14.667 59 44 59
c15.333 0 26.166 -5.16699 32.499 -15.5z" />
    <glyph glyph-name="guillemotright" unicode="&#xbb;" horiz-adv-x="421" 
d="M210 270l-157 151l-33 -106l66 -68l-66 -67l33 -107l157 152v45zM391 270l-157 151l-33 -106l66 -68l-66 -67l33 -107l157 152v45z" />
    <glyph glyph-name="onequarter" unicode="&#xbc;" horiz-adv-x="987" 
d="M276 764h-91l-175 -81l35 -117l94 42v-271h137v427zM69 -134h167l597 834h-168zM960 -75l7 111h-78v290h-105l-268 -298l16 -103h216v-91h141v91h71zM748 36h-66l66 77v-77z" />
    <glyph glyph-name="onehalf" unicode="&#xbd;" horiz-adv-x="980" 
d="M276 337v427h-91l-175 -81l35 -117l94 42v-271h137zM665 700l-596 -834h167l597 834h-168zM689 310.5c-26 -9.66699 -52 -23.168 -78 -40.501l58 -90c23.333 12 42 20.667 56 26s29 8 45 8c16.667 0 29.5 -2.83301 38.5 -8.5s13.5 -12.834 13.5 -21.501
c-1.33301 -24.667 -22.333 -54.667 -63 -90l-128 -113v-90h329l-12 107h-123l23 21c34 30.667 58.333 59.834 73 87.501s22 57.834 22 90.501c0 34.667 -13.833 64.667 -41.5 90s-69.5 38 -125.5 38c-32 0 -61 -4.83301 -87 -14.5z" />
    <glyph glyph-name="threequarters" unicode="&#xbe;" horiz-adv-x="993" 
d="M16 716l64.9941 -92.999c36 24.667 68 37 96 37c18.667 0 32.834 -3.16699 42.501 -9.5s14.5 -14.5 14.5 -24.5c0 -12.667 -6.33301 -22.667 -19 -30s-30 -11 -52 -11h-61l11 -108h77c15.333 0 27.833 -4 37.5 -12s14.5 -19 14.5 -33c0 -12.667 -5.66699 -23 -17 -31
s-25.333 -12 -42 -12c-17.333 0 -34.666 3 -51.999 9s-36.666 15.667 -57.999 29l-73 -91c28 -18 58.333 -32 91 -42s63 -15 91 -15c39.333 0 74.333 6.33301 105 19s54.334 30.167 71.001 52.5s25 48.166 25 77.499c0 21.333 -6.33301 42.833 -19 64.5
s-28 37.834 -46 48.501c13.333 6.66699 26 20.167 38 40.5s18 39.166 18 56.499c0 40 -16.667 72.167 -50 96.5s-77.666 36.5 -132.999 36.5c-69.333 0 -127.666 -18.333 -174.999 -55zM676.994 700.001l-596 -834h167l597 834h-168zM894.994 326.001h-105l-268 -298
l16 -103h216v-91h141v91h71l7 111h-78v290zM687.994 36.001l66 77v-77h-66z" />
    <glyph glyph-name="questiondown" unicode="&#xbf;" horiz-adv-x="467" 
d="M365.5 507.5c17.667 17.667 26.5 39.5 26.5 65.5s-8.83301 47.667 -26.5 65s-39.5 26 -65.5 26c-25.333 0 -46.833 -8.66699 -64.5 -26s-26.5 -39 -26.5 -65s8.83301 -47.833 26.5 -65.5s39.167 -26.5 64.5 -26.5c26 0 47.833 8.83301 65.5 26.5zM457 15l-23 149
c-62.667 -35.333 -117.667 -53 -165 -53c-14.667 0 -26.834 3.83301 -36.501 11.5s-14.5 17.5 -14.5 29.5c0 18 14.167 37.333 42.5 58s64.5 38 108.5 52l-7 159l-143 39l-12 -115c-62 -22 -107 -48.667 -135 -80s-42 -68 -42 -110c0 -38 9.83301 -71.5 29.5 -100.5
s47.5 -51.5 83.5 -67.5s77 -24 123 -24c66.667 0 130.334 17.333 191.001 52z" />
    <glyph glyph-name="Agrave" unicode="&#xc0;" horiz-adv-x="711" 
d="M265 680l-255 -680h181l47 134h235l49 -144l179 18l-254 672h-182zM421 277h-133l65 185zM320 733l132 22l-66 177h-180z" />
    <glyph glyph-name="Aacute" unicode="&#xc1;" horiz-adv-x="711" 
d="M265 680l-255 -680h181l47 134h235l49 -144l179 18l-254 672h-182zM421 277h-133l65 185zM415 733l114 199h-180l-66 -177z" />
    <glyph glyph-name="Acircumflex" unicode="&#xc2;" horiz-adv-x="711" 
d="M265 680l-255 -680h181l47 134h235l49 -144l179 18l-254 672h-182zM421 277h-133l65 185zM361 801l52 -62l173 20l-174 179h-107l-174 -179l177 -20z" />
    <glyph glyph-name="Atilde" unicode="&#xc3;" horiz-adv-x="711" 
d="M265 680l-255 -680h181l47 134h235l49 -144l179 18l-254 672h-182zM421 277h-133l65 185zM411 886c-4.66699 -6.66699 -9.66699 -10 -15 -10c-8.66699 0 -16.167 1.33301 -22.5 4s-14.5 6.66699 -24.5 12c-9.33301 6 -17.833 10.5 -25.5 13.5s-16.834 4.5 -27.501 4.5
c-35.333 0 -65.333 -12.833 -90 -38.5s-37 -66.167 -37 -121.5h126c0 6 2.33301 12.333 7 19s9.66699 10 15 10c9.33301 0 17 -1.33301 23 -4s13.667 -6.66699 23 -12c9.33301 -6 17.833 -10.5 25.5 -13.5s17.167 -4.5 28.5 -4.5c34.667 0 63.834 12.833 87.501 38.5
s35.5 66.167 35.5 121.5h-122c0 -6 -2.33301 -12.333 -7 -19z" />
    <glyph glyph-name="Adieresis" unicode="&#xc4;" horiz-adv-x="711" 
d="M265 680l-255 -680h181l47 134h235l49 -144l179 18l-254 672h-182zM421 277h-133l65 185zM315 777c16 16 24 35.667 24 59c0 22.667 -8 42.167 -24 58.5s-36 24.5 -60 24.5c-22 0 -41.333 -8.16699 -58 -24.5s-25 -35.833 -25 -58.5c0 -23.333 8.16699 -43 24.5 -59
s35.833 -24 58.5 -24c24 0 44 8 60 24zM526 777c16 16 24 35.667 24 59c0 22.667 -8 42.167 -24 58.5s-36 24.5 -60 24.5c-22 0 -41.333 -8.16699 -58 -24.5s-25 -35.833 -25 -58.5c0 -23.333 8.16699 -43 24.5 -59s35.833 -24 58.5 -24c24 0 44 8 60 24z" />
    <glyph glyph-name="Aring" unicode="&#xc5;" horiz-adv-x="711" 
d="M265 680l-255 -680h181l47 134h235l49 -144l179 18l-254 672h-182zM421 277h-133l65 185zM271.5 942c-24.333 -22.667 -36.5 -50.333 -36.5 -83c0 -33.333 12 -60.833 36 -82.5s53 -32.5 87 -32.5c33.333 0 62.166 10.833 86.499 32.5s36.5 49.167 36.5 82.5
c0 21.333 -5.66699 41 -17 59s-26.5 32.167 -45.5 42.5s-39.167 15.5 -60.5 15.5c-33.333 0 -62.166 -11.333 -86.499 -34zM339 838.001c-6 6 -9 13 -9 21s3 14.667 9 20s13 8 21 8s14.667 -2.66699 20 -8s8 -12 8 -20s-2.66699 -15 -8 -21s-12 -9 -20 -9s-15 3 -21 9z" />
    <glyph glyph-name="AE" unicode="&#xc6;" horiz-adv-x="987" 
d="M185 -13l92 141h192v-128h498l-17 143h-299v127h226l-17 143h-209v124h286l-17 143h-451l-459 -667zM469 399v-128h-91z" />
    <glyph glyph-name="Ccedilla" unicode="&#xc7;" horiz-adv-x="596" 
d="M485 -80.5c11.333 -20.333 17.001 -40.833 17.001 -61.5c0 -36.667 -14 -65.834 -42 -87.501s-61 -32.5 -99 -32.5c-19.333 0 -39.333 3.66699 -60 11s-39.334 17.333 -56.001 30l38 86c26 -10 44.667 -15 56 -15c8.66699 0 16 1.5 22 4.5s9 7.5 9 13.5
c0 19.333 -28.333 32 -85 38l34 85c-60 8.66699 -111.667 28.667 -155 60s-76.5 71.5 -99.5 120.5s-34.5 104.167 -34.5 165.5c0 68.667 15 130 45 184s71.5 96.167 124.5 126.5s112.833 45.5 179.5 45.5c34.667 0 70.167 -5 106.5 -15s67.5 -23.667 93.5 -41l-54 -123
c-35.333 12 -62.5 20 -81.5 24s-39.833 6 -62.5 6c-27.333 0 -53.5 -8.66699 -78.5 -26s-45.333 -41.666 -61 -72.999s-23.5 -67 -23.5 -107c0 -40.667 8 -76.334 24 -107.001s37.167 -54.167 63.5 -70.5s53.833 -24.5 82.5 -24.5c44.667 0 87.667 12.333 129 37l69 -136
c-35.333 -22 -82 -37 -140 -45l-12 -31c22.667 -7.33301 39.667 -21.166 51 -41.499z" />
    <glyph glyph-name="Egrave" unicode="&#xc8;" horiz-adv-x="598" 
d="M578 0l-17 143h-299v127h226l-17 143h-209v124h286l-17 143h-451v-680h498zM296 733l132 22l-66 177h-180z" />
    <glyph glyph-name="Eacute" unicode="&#xc9;" horiz-adv-x="598" 
d="M578 0l-17 143h-299v127h226l-17 143h-209v124h286l-17 143h-451v-680h498zM391 733l114 199h-180l-66 -177z" />
    <glyph glyph-name="Ecircumflex" unicode="&#xca;" horiz-adv-x="598" 
d="M578 0l-17 143h-299v127h226l-17 143h-209v124h286l-17 143h-451v-680h498zM337 801l52 -62l173 20l-174 179h-107l-174 -179l177 -20z" />
    <glyph glyph-name="Edieresis" unicode="&#xcb;" horiz-adv-x="598" 
d="M578 0l-17 143h-299v127h226l-17 143h-209v124h286l-17 143h-451v-680h498zM291 777c16 16 24 35.667 24 59c0 22.667 -8 42.167 -24 58.5s-36 24.5 -60 24.5c-22 0 -41.333 -8.16699 -58 -24.5s-25 -35.833 -25 -58.5c0 -23.333 8.16699 -43 24.5 -59
s35.833 -24 58.5 -24c24 0 44 8 60 24zM502 777c16 16 24 35.667 24 59c0 22.667 -8 42.167 -24 58.5s-36 24.5 -60 24.5c-22 0 -41.333 -8.16699 -58 -24.5s-25 -35.833 -25 -58.5c0 -23.333 8.16699 -43 24.5 -59s35.833 -24 58.5 -24c24 0 44 8 60 24z" />
    <glyph glyph-name="Igrave" unicode="&#xcc;" horiz-adv-x="342" 
d="M262 0v680h-182v-680h182zM135 733l132 22l-66 177h-180z" />
    <glyph glyph-name="Iacute" unicode="&#xcd;" horiz-adv-x="342" 
d="M262 0v680h-182v-680h182zM230 733l114 199h-180l-66 -177z" />
    <glyph glyph-name="Icircumflex" unicode="&#xce;" horiz-adv-x="342" 
d="M262 0v680h-182v-680h182zM176 801l52 -62l173 20l-174 179h-107l-174 -179l177 -20z" />
    <glyph glyph-name="Idieresis" unicode="&#xcf;" horiz-adv-x="342" 
d="M262 0v680h-182v-680h182zM130 777c16 16 24 35.667 24 59c0 22.667 -8 42.167 -24 58.5s-36 24.5 -60 24.5c-22 0 -41.333 -8.16699 -58 -24.5s-25 -35.833 -25 -58.5c0 -23.333 8.16699 -43 24.5 -59s35.833 -24 58.5 -24c24 0 44 8 60 24zM341 777
c16 16 24 35.667 24 59c0 22.667 -8 42.167 -24 58.5s-36 24.5 -60 24.5c-22 0 -41.333 -8.16699 -58 -24.5s-25 -35.833 -25 -58.5c0 -23.333 8.16699 -43 24.5 -59s35.833 -24 58.5 -24c24 0 44 8 60 24z" />
    <glyph glyph-name="Eth" unicode="&#xd0;" horiz-adv-x="739" 
d="M562.5 637c48.333 -28.667 84.8311 -68.333 109.498 -119s37 -108.667 37 -174c0 -69.333 -13.667 -130 -41 -182s-65.666 -92 -114.999 -120s-105.666 -42 -168.999 -42h-304v270h-63l-17 143h80v267h308c68 0 126.167 -14.333 174.5 -43zM479.498 195.001
c27.667 34.667 41.5 84.333 41.5 149c0 57.333 -12.5 103.833 -37.5 139.5s-59.833 53.5 -104.5 53.5h-117v-124h107l17 -143h-124v-127h110c44 0 79.833 17.333 107.5 52z" />
    <glyph glyph-name="Ntilde" unicode="&#xd1;" horiz-adv-x="773" 
d="M262 0v358l261 -358h170v680h-182v-369l-262 369h-169v-680h182zM433 886c-4.66699 -6.66699 -9.66699 -10 -15 -10c-8.66699 0 -16.167 1.33301 -22.5 4s-14.5 6.66699 -24.5 12c-9.33301 6 -17.833 10.5 -25.5 13.5s-16.834 4.5 -27.501 4.5
c-35.333 0 -65.333 -12.833 -90 -38.5s-37 -66.167 -37 -121.5h126c0 6 2.33301 12.333 7 19s9.66699 10 15 10c9.33301 0 17 -1.33301 23 -4s13.667 -6.66699 23 -12c9.33301 -6 17.833 -10.5 25.5 -13.5s17.167 -4.5 28.5 -4.5c34.667 0 63.834 12.833 87.501 38.5
s35.5 66.167 35.5 121.5h-122c0 -6 -2.33301 -12.333 -7 -19z" />
    <glyph glyph-name="Ograve" unicode="&#xd2;" horiz-adv-x="763" 
d="M200 648.5c-53.333 -30.333 -95.001 -72.665 -125.001 -126.998s-45 -115.833 -45 -184.5c0 -65.333 14.333 -124.666 43 -177.999s69.5 -95.5 122.5 -126.5s114.833 -46.5 185.5 -46.5c68.667 0 129.667 15.167 183 45.5s94.833 72.666 124.5 126.999
s44.5 116.166 44.5 185.499c0 65.333 -14.167 124.666 -42.5 177.999s-69 95.333 -122 126s-115.5 46 -187.5 46c-67.333 0 -127.666 -15.167 -180.999 -45.5zM239.499 444.501c15 31 35 55 60 72s52.833 25.5 83.5 25.5c49.333 0 88.833 -18.5 118.5 -55.5
s44.5 -84.5 44.5 -142.5c0 -66 -15.5 -116.833 -46.5 -152.5s-70.833 -53.5 -119.5 -53.5c-50.667 0 -90.5 18.667 -119.5 56s-43.5 85.333 -43.5 144c0 40 7.5 75.5 22.5 106.5zM340.999 733.001l132 22l-66 177h-180z" />
    <glyph glyph-name="Oacute" unicode="&#xd3;" horiz-adv-x="763" 
d="M200 648.5c-53.333 -30.333 -95.001 -72.665 -125.001 -126.998s-45 -115.833 -45 -184.5c0 -65.333 14.333 -124.666 43 -177.999s69.5 -95.5 122.5 -126.5s114.833 -46.5 185.5 -46.5c68.667 0 129.667 15.167 183 45.5s94.833 72.666 124.5 126.999
s44.5 116.166 44.5 185.499c0 65.333 -14.167 124.666 -42.5 177.999s-69 95.333 -122 126s-115.5 46 -187.5 46c-67.333 0 -127.666 -15.167 -180.999 -45.5zM239.499 444.501c15 31 35 55 60 72s52.833 25.5 83.5 25.5c49.333 0 88.833 -18.5 118.5 -55.5
s44.5 -84.5 44.5 -142.5c0 -66 -15.5 -116.833 -46.5 -152.5s-70.833 -53.5 -119.5 -53.5c-50.667 0 -90.5 18.667 -119.5 56s-43.5 85.333 -43.5 144c0 40 7.5 75.5 22.5 106.5zM435.999 733.001l114 199h-180l-66 -177z" />
    <glyph glyph-name="Ocircumflex" unicode="&#xd4;" horiz-adv-x="763" 
d="M200 648.5c-53.333 -30.333 -95.001 -72.665 -125.001 -126.998s-45 -115.833 -45 -184.5c0 -65.333 14.333 -124.666 43 -177.999s69.5 -95.5 122.5 -126.5s114.833 -46.5 185.5 -46.5c68.667 0 129.667 15.167 183 45.5s94.833 72.666 124.5 126.999
s44.5 116.166 44.5 185.499c0 65.333 -14.167 124.666 -42.5 177.999s-69 95.333 -122 126s-115.5 46 -187.5 46c-67.333 0 -127.666 -15.167 -180.999 -45.5zM239.499 444.501c15 31 35 55 60 72s52.833 25.5 83.5 25.5c49.333 0 88.833 -18.5 118.5 -55.5
s44.5 -84.5 44.5 -142.5c0 -66 -15.5 -116.833 -46.5 -152.5s-70.833 -53.5 -119.5 -53.5c-50.667 0 -90.5 18.667 -119.5 56s-43.5 85.333 -43.5 144c0 40 7.5 75.5 22.5 106.5zM381.999 801.001l52 -62l173 20l-174 179h-107l-174 -179l177 -20z" />
    <glyph glyph-name="Otilde" unicode="&#xd5;" horiz-adv-x="763" 
d="M200 648.5c-53.333 -30.333 -95.001 -72.665 -125.001 -126.998s-45 -115.833 -45 -184.5c0 -65.333 14.333 -124.666 43 -177.999s69.5 -95.5 122.5 -126.5s114.833 -46.5 185.5 -46.5c68.667 0 129.667 15.167 183 45.5s94.833 72.666 124.5 126.999
s44.5 116.166 44.5 185.499c0 65.333 -14.167 124.666 -42.5 177.999s-69 95.333 -122 126s-115.5 46 -187.5 46c-67.333 0 -127.666 -15.167 -180.999 -45.5zM239.499 444.501c15 31 35 55 60 72s52.833 25.5 83.5 25.5c49.333 0 88.833 -18.5 118.5 -55.5
s44.5 -84.5 44.5 -142.5c0 -66 -15.5 -116.833 -46.5 -152.5s-70.833 -53.5 -119.5 -53.5c-50.667 0 -90.5 18.667 -119.5 56s-43.5 85.333 -43.5 144c0 40 7.5 75.5 22.5 106.5zM431.999 886.001c-4.66699 -6.66699 -9.66699 -10 -15 -10
c-8.66699 0 -16.167 1.33301 -22.5 4s-14.5 6.66699 -24.5 12c-9.33301 6 -17.833 10.5 -25.5 13.5s-16.834 4.5 -27.501 4.5c-35.333 0 -65.333 -12.833 -90 -38.5s-37 -66.167 -37 -121.5h126c0 6 2.33301 12.333 7 19s9.66699 10 15 10c9.33301 0 17 -1.33301 23 -4
s13.667 -6.66699 23 -12c9.33301 -6 17.833 -10.5 25.5 -13.5s17.167 -4.5 28.5 -4.5c34.667 0 63.834 12.833 87.501 38.5s35.5 66.167 35.5 121.5h-122c0 -6 -2.33301 -12.333 -7 -19z" />
    <glyph glyph-name="Odieresis" unicode="&#xd6;" horiz-adv-x="763" 
d="M200 648.5c-53.333 -30.333 -95.001 -72.665 -125.001 -126.998s-45 -115.833 -45 -184.5c0 -65.333 14.333 -124.666 43 -177.999s69.5 -95.5 122.5 -126.5s114.833 -46.5 185.5 -46.5c68.667 0 129.667 15.167 183 45.5s94.833 72.666 124.5 126.999
s44.5 116.166 44.5 185.499c0 65.333 -14.167 124.666 -42.5 177.999s-69 95.333 -122 126s-115.5 46 -187.5 46c-67.333 0 -127.666 -15.167 -180.999 -45.5zM239.499 444.501c15 31 35 55 60 72s52.833 25.5 83.5 25.5c49.333 0 88.833 -18.5 118.5 -55.5
s44.5 -84.5 44.5 -142.5c0 -66 -15.5 -116.833 -46.5 -152.5s-70.833 -53.5 -119.5 -53.5c-50.667 0 -90.5 18.667 -119.5 56s-43.5 85.333 -43.5 144c0 40 7.5 75.5 22.5 106.5zM335.999 777.001c16 16 24 35.667 24 59c0 22.667 -8 42.167 -24 58.5s-36 24.5 -60 24.5
c-22 0 -41.333 -8.16699 -58 -24.5s-25 -35.833 -25 -58.5c0 -23.333 8.16699 -43 24.5 -59s35.833 -24 58.5 -24c24 0 44 8 60 24zM546.999 777.001c16 16 24 35.667 24 59c0 22.667 -8 42.167 -24 58.5s-36 24.5 -60 24.5c-22 0 -41.333 -8.16699 -58 -24.5
s-25 -35.833 -25 -58.5c0 -23.333 8.16699 -43 24.5 -59s35.833 -24 58.5 -24c24 0 44 8 60 24z" />
    <glyph glyph-name="multiply" unicode="&#xd7;" horiz-adv-x="607" 
d="M385 250l175 -221h-181l-76 106l-88 -106h-185l192 234l-175 221h181l75 -106l89 106h185z" />
    <glyph glyph-name="Oslash" unicode="&#xd8;" horiz-adv-x="763" 
d="M568.5 648c53 -30.667 93.668 -72.668 122.001 -126.001s42.5 -112.666 42.5 -177.999c0 -69.333 -14.833 -131.166 -44.5 -185.499s-71.167 -96.666 -124.5 -126.999s-114.333 -45.5 -183 -45.5c-70.667 0 -132.5 15.5 -185.5 46.5s-93.833 73.167 -122.5 126.5
s-43 112.666 -43 177.999c0 68.667 15 130.167 45 184.5s71.667 96.666 125 126.999s113.666 45.5 180.999 45.5c72 0 134.5 -15.333 187.5 -46zM299.501 516.499c-25 -17 -45 -41 -60 -72s-22.5 -66.5 -22.5 -106.5c0 -56.667 13.333 -103 40 -139l141 342
c-3.33301 0.666992 -8.33301 1 -15 1c-30.667 0 -58.5 -8.5 -83.5 -25.5zM499.501 191.499c31 35.667 46.5 86.5 46.5 152.5c0 50.667 -11.333 93.667 -34 129l-145 -335h13c48.667 0 88.5 17.833 119.5 53.5z" />
    <glyph glyph-name="Ugrave" unicode="&#xd9;" horiz-adv-x="750" 
d="M70 680l0.00195312 -420c0 -58 12.667 -107.5 38 -148.5s61 -72.167 107 -93.5s99.333 -32 160 -32s114 10.667 160 32s81.667 52.5 107 93.5s38 90.5 38 148.5v420h-182v-411c0 -41.333 -11.333 -73.5 -34 -96.5s-52.334 -34.5 -89.001 -34.5s-66.334 11.5 -89.001 34.5
s-34 55.167 -34 96.5v411h-182zM335.002 733l132 22l-66 177h-180z" />
    <glyph glyph-name="Uacute" unicode="&#xda;" horiz-adv-x="750" 
d="M70 680l0.00195312 -420c0 -58 12.667 -107.5 38 -148.5s61 -72.167 107 -93.5s99.333 -32 160 -32s114 10.667 160 32s81.667 52.5 107 93.5s38 90.5 38 148.5v420h-182v-411c0 -41.333 -11.333 -73.5 -34 -96.5s-52.334 -34.5 -89.001 -34.5s-66.334 11.5 -89.001 34.5
s-34 55.167 -34 96.5v411h-182zM430.002 733l114 199h-180l-66 -177z" />
    <glyph glyph-name="Ucircumflex" unicode="&#xdb;" horiz-adv-x="750" 
d="M70 680l0.00195312 -420c0 -58 12.667 -107.5 38 -148.5s61 -72.167 107 -93.5s99.333 -32 160 -32s114 10.667 160 32s81.667 52.5 107 93.5s38 90.5 38 148.5v420h-182v-411c0 -41.333 -11.333 -73.5 -34 -96.5s-52.334 -34.5 -89.001 -34.5s-66.334 11.5 -89.001 34.5
s-34 55.167 -34 96.5v411h-182zM376.002 801l52 -62l173 20l-174 179h-107l-174 -179l177 -20z" />
    <glyph glyph-name="Udieresis" unicode="&#xdc;" horiz-adv-x="750" 
d="M70 680l0.00195312 -420c0 -58 12.667 -107.5 38 -148.5s61 -72.167 107 -93.5s99.333 -32 160 -32s114 10.667 160 32s81.667 52.5 107 93.5s38 90.5 38 148.5v420h-182v-411c0 -41.333 -11.333 -73.5 -34 -96.5s-52.334 -34.5 -89.001 -34.5s-66.334 11.5 -89.001 34.5
s-34 55.167 -34 96.5v411h-182zM330.002 777c16 16 24 35.667 24 59c0 22.667 -8 42.167 -24 58.5s-36 24.5 -60 24.5c-22 0 -41.333 -8.16699 -58 -24.5s-25 -35.833 -25 -58.5c0 -23.333 8.16699 -43 24.5 -59s35.833 -24 58.5 -24c24 0 44 8 60 24zM541.002 777
c16 16 24 35.667 24 59c0 22.667 -8 42.167 -24 58.5s-36 24.5 -60 24.5c-22 0 -41.333 -8.16699 -58 -24.5s-25 -35.833 -25 -58.5c0 -23.333 8.16699 -43 24.5 -59s35.833 -24 58.5 -24c24 0 44 8 60 24z" />
    <glyph glyph-name="Yacute" unicode="&#xdd;" horiz-adv-x="654" 
d="M408 0v266l236 414h-187l-141 -245l-132 259l-174 -48l216 -378v-268h182zM371 733l114 199h-180l-66 -177z" />
    <glyph glyph-name="Thorn" unicode="&#xde;" horiz-adv-x="666" 
d="M507.5 572.5c42.333 -18.333 76.001 -46 101.001 -83s37.5 -81.833 37.5 -134.5c0 -52 -13.333 -95.833 -40 -131.5s-61.834 -62.167 -105.501 -79.5s-91.167 -26 -142.5 -26h-96v-118h-182v680h182v-80h104c52 0 99.167 -9.16699 141.5 -27.5zM431.001 288
c18 18 27 40.332 27 66.999c0 30.667 -8.83301 55.334 -26.5 74.001s-41.5 28 -71.5 28h-98v-196h100c28 0 51 9 69 27z" />
    <glyph glyph-name="germandbls" unicode="&#xdf;" horiz-adv-x="660" 
d="M242 0l0.00292969 457.004c0 28.667 9 51.167 27 67.5s38 24.5 60 24.5c25.333 0 45.833 -6.33301 61.5 -19s23.5 -27.667 23.5 -45c0 -16.667 -8.83301 -32.334 -26.5 -47.001s-37.834 -22 -60.501 -22h-27v-130h79c18.667 0 34.334 -6.33301 47.001 -19
s19 -30.334 19 -53.001c0 -20 -7.16699 -35.833 -21.5 -47.5s-31.833 -17.5 -52.5 -17.5h-76v-149h93c48 0 90.167 8.16699 126.5 24.5s64.666 39.5 84.999 69.5s30.5 65.333 30.5 106c0 34.667 -9.66699 67.834 -29 99.501s-43.333 53.167 -72 64.5
c22.667 15.333 39.5 36 50.5 62s16.5 51.667 16.5 77c0 39.333 -11.667 74.166 -35 104.499s-55.833 53.666 -97.5 69.999s-88.5 24.5 -140.5 24.5c-52.667 0 -98.834 -10.667 -138.501 -32s-70.334 -50.833 -92.001 -88.5s-32.5 -80.834 -32.5 -129.501v-452h182z" />
    <glyph glyph-name="agrave" unicode="&#xe0;" horiz-adv-x="509" 
d="M158.5 345.5c23 5.66699 42.501 8.5 58.501 8.5c17.333 0 31.5 -4.66699 42.5 -14s17.833 -23.333 20.5 -42h-58c-126.667 0 -190 -47.333 -190 -142c0 -51.333 15.333 -92 46 -122s76 -45 136 -45c40.667 0 77 20.333 109 61l52 -50h88v300
c0 62.667 -17.333 112 -52 148s-84.334 54 -149.001 54c-37.333 0 -75.333 -4.5 -114 -13.5s-72 -19.833 -100 -32.5l48 -131c18.667 8 39.5 14.833 62.5 20.5zM195.501 187c7.66699 7.33301 17.499 11.001 29.499 11.001h56v-46c-22 -18 -43.333 -27 -64 -27
c-9.33301 0 -17.166 3.16699 -23.499 9.5s-9.5 14.5 -9.5 24.5c0 11.333 3.83301 20.666 11.5 27.999zM217 588.001l132 22l-66 177h-180z" />
    <glyph glyph-name="aacute" unicode="&#xe1;" horiz-adv-x="509" 
d="M158.5 345.5c23 5.66699 42.501 8.5 58.501 8.5c17.333 0 31.5 -4.66699 42.5 -14s17.833 -23.333 20.5 -42h-58c-126.667 0 -190 -47.333 -190 -142c0 -51.333 15.333 -92 46 -122s76 -45 136 -45c40.667 0 77 20.333 109 61l52 -50h88v300
c0 62.667 -17.333 112 -52 148s-84.334 54 -149.001 54c-37.333 0 -75.333 -4.5 -114 -13.5s-72 -19.833 -100 -32.5l48 -131c18.667 8 39.5 14.833 62.5 20.5zM195.501 187c7.66699 7.33301 17.499 11.001 29.499 11.001h56v-46c-22 -18 -43.333 -27 -64 -27
c-9.33301 0 -17.166 3.16699 -23.499 9.5s-9.5 14.5 -9.5 24.5c0 11.333 3.83301 20.666 11.5 27.999zM301 588.001l114 199h-180l-66 -177z" />
    <glyph glyph-name="acircumflex" unicode="&#xe2;" horiz-adv-x="509" 
d="M158.5 345.5c23 5.66699 42.501 8.5 58.501 8.5c17.333 0 31.5 -4.66699 42.5 -14s17.833 -23.333 20.5 -42h-58c-126.667 0 -190 -47.333 -190 -142c0 -51.333 15.333 -92 46 -122s76 -45 136 -45c40.667 0 77 20.333 109 61l52 -50h88v300
c0 62.667 -17.333 112 -52 148s-84.334 54 -149.001 54c-37.333 0 -75.333 -4.5 -114 -13.5s-72 -19.833 -100 -32.5l48 -131c18.667 8 39.5 14.833 62.5 20.5zM195.501 187c7.66699 7.33301 17.499 11.001 29.499 11.001h56v-46c-22 -18 -43.333 -27 -64 -27
c-9.33301 0 -17.166 3.16699 -23.499 9.5s-9.5 14.5 -9.5 24.5c0 11.333 3.83301 20.666 11.5 27.999zM261 650.001l52 -62l173 20l-174 179h-107l-174 -179l177 -20z" />
    <glyph glyph-name="atilde" unicode="&#xe3;" horiz-adv-x="509" 
d="M158.5 345.5c23 5.66699 42.501 8.5 58.501 8.5c17.333 0 31.5 -4.66699 42.5 -14s17.833 -23.333 20.5 -42h-58c-126.667 0 -190 -47.333 -190 -142c0 -51.333 15.333 -92 46 -122s76 -45 136 -45c40.667 0 77 20.333 109 61l52 -50h88v300
c0 62.667 -17.333 112 -52 148s-84.334 54 -149.001 54c-37.333 0 -75.333 -4.5 -114 -13.5s-72 -19.833 -100 -32.5l48 -131c18.667 8 39.5 14.833 62.5 20.5zM195.501 187c7.66699 7.33301 17.499 11.001 29.499 11.001h56v-46c-22 -18 -43.333 -27 -64 -27
c-9.33301 0 -17.166 3.16699 -23.499 9.5s-9.5 14.5 -9.5 24.5c0 11.333 3.83301 20.666 11.5 27.999zM306 736.001c-4.66699 -6.66699 -9.66699 -10 -15 -10c-8.66699 0 -16.167 1.33301 -22.5 4s-14.5 6.66699 -24.5 12c-9.33301 6 -17.833 10.5 -25.5 13.5
s-16.834 4.5 -27.501 4.5c-35.333 0 -65.333 -12.833 -90 -38.5s-37 -66.167 -37 -121.5h126c0 6 2.33301 12.333 7 19s9.66699 10 15 10c9.33301 0 17 -1.33301 23 -4s13.667 -6.66699 23 -12c9.33301 -6 17.833 -10.5 25.5 -13.5s17.167 -4.5 28.5 -4.5
c34.667 0 63.834 12.833 87.501 38.5s35.5 66.167 35.5 121.5h-122c0 -6 -2.33301 -12.333 -7 -19z" />
    <glyph glyph-name="adieresis" unicode="&#xe4;" horiz-adv-x="509" 
d="M158.5 345.5c23 5.66699 42.501 8.5 58.501 8.5c17.333 0 31.5 -4.66699 42.5 -14s17.833 -23.333 20.5 -42h-58c-126.667 0 -190 -47.333 -190 -142c0 -51.333 15.333 -92 46 -122s76 -45 136 -45c40.667 0 77 20.333 109 61l52 -50h88v300
c0 62.667 -17.333 112 -52 148s-84.334 54 -149.001 54c-37.333 0 -75.333 -4.5 -114 -13.5s-72 -19.833 -100 -32.5l48 -131c18.667 8 39.5 14.833 62.5 20.5zM195.501 187c7.66699 7.33301 17.499 11.001 29.499 11.001h56v-46c-22 -18 -43.333 -27 -64 -27
c-9.33301 0 -17.166 3.16699 -23.499 9.5s-9.5 14.5 -9.5 24.5c0 11.333 3.83301 20.666 11.5 27.999zM211 627.001c16 16 24 35.667 24 59c0 22.667 -8 42.167 -24 58.5s-36 24.5 -60 24.5c-22 0 -41.333 -8.16699 -58 -24.5s-25 -35.833 -25 -58.5
c0 -23.333 8.16699 -43 24.5 -59s35.833 -24 58.5 -24c24 0 44 8 60 24zM422 627.001c16 16 24 35.667 24 59c0 22.667 -8 42.167 -24 58.5s-36 24.5 -60 24.5c-22 0 -41.333 -8.16699 -58 -24.5s-25 -35.833 -25 -58.5c0 -23.333 8.16699 -43 24.5 -59s35.833 -24 58.5 -24
c24 0 44 8 60 24z" />
    <glyph glyph-name="aring" unicode="&#xe5;" horiz-adv-x="509" 
d="M158.5 345.5c23 5.66699 42.501 8.5 58.501 8.5c17.333 0 31.5 -4.66699 42.5 -14s17.833 -23.333 20.5 -42h-58c-126.667 0 -190 -47.333 -190 -142c0 -51.333 15.333 -92 46 -122s76 -45 136 -45c40.667 0 77 20.333 109 61l52 -50h88v300
c0 62.667 -17.333 112 -52 148s-84.334 54 -149.001 54c-37.333 0 -75.333 -4.5 -114 -13.5s-72 -19.833 -100 -32.5l48 -131c18.667 8 39.5 14.833 62.5 20.5zM195.501 187c7.66699 7.33301 17.499 11.001 29.499 11.001h56v-46c-22 -18 -43.333 -27 -64 -27
c-9.33301 0 -17.166 3.16699 -23.499 9.5s-9.5 14.5 -9.5 24.5c0 11.333 3.83301 20.666 11.5 27.999zM173.5 792.001c-24.333 -22.667 -36.5 -50.333 -36.5 -83c0 -33.333 12 -60.833 36 -82.5s53 -32.5 87 -32.5c33.333 0 62.166 10.833 86.499 32.5
s36.5 49.167 36.5 82.5c0 21.333 -5.66699 41 -17 59s-26.5 32.167 -45.5 42.5s-39.167 15.5 -60.5 15.5c-33.333 0 -62.166 -11.333 -86.499 -34zM241 688.002c-6 6 -9 13 -9 21s3 14.667 9 20s13 8 21 8s14.667 -2.66699 20 -8s8 -12 8 -20s-2.66699 -15 -8 -21
s-12 -9 -20 -9s-15 3 -21 9z" />
    <glyph glyph-name="ae" unicode="&#xe6;" horiz-adv-x="793" 
d="M773 197l-295.001 0.000976562c6.66699 -20.667 19.167 -36.834 37.5 -48.501s42.5 -17.5 72.5 -17.5c46 0 90.333 11 133 33l51 -123c-20 -14.667 -48.833 -27 -86.5 -37s-76.167 -15 -115.5 -15c-82 0 -148.667 19.667 -200 59c-18 -17.333 -39 -31.5 -63 -42.5
s-55 -16.5 -93 -16.5c-60 0 -105.333 15 -136 45s-46 70.667 -46 122c0 94.667 63.333 142 190 142h58c-2.66699 18.667 -9.5 32.667 -20.5 42s-25.167 14 -42.5 14c-16 0 -35.5 -2.83301 -58.5 -8.5s-43.833 -12.5 -62.5 -20.5l-48 131c28 12.667 61.333 23.5 100 32.5
s76.667 13.5 114 13.5c54.667 0 98.667 -13 132 -39c44 26 93 39 147 39c50 0 92.333 -11.333 127 -34s60.834 -53 78.501 -91s26.5 -80.333 26.5 -127v-53zM598.999 287.001c0 16.667 -5.33203 32.333 -15.999 47s-26.334 22 -47.001 22c-16.667 0 -31.5 -7 -44.5 -21
s-19.167 -30 -18.5 -48h126zM193.5 134.5c6.33301 -6.33301 14.167 -9.50098 23.5 -9.50098c16 0 29.833 2.5 41.5 7.5s23.5 11.833 35.5 20.5c-5.33301 15.333 -9 30.333 -11 45h-58c-12 0 -21.833 -3.66699 -29.5 -11s-11.5 -16.666 -11.5 -27.999
c0 -10 3.16699 -18.167 9.5 -24.5z" />
    <glyph glyph-name="ccedilla" unicode="&#xe7;" horiz-adv-x="457" 
d="M347 -6l-13 -33c22.667 -7.33301 39.667 -21.166 51 -41.499s17 -40.833 17 -61.5c0 -36.667 -14 -65.834 -42 -87.501s-61 -32.5 -99 -32.5c-19.333 0 -39.333 3.66699 -60 11s-39.334 17.333 -56.001 30l38 86c26 -10 44.667 -15 56 -15c8.66699 0 16 1.5 22 4.5
s9 7.5 9 13.5c0 19.333 -28.333 32 -85 38l36 89c-62 10.667 -111 37.334 -147 80.001s-54 98.334 -54 167.001c0 53.333 11.167 99.666 33.5 138.999s53.5 69.333 93.5 90s86 31 138 31c69.333 0 124.666 -16.333 165.999 -49l-51 -125c-19.333 10 -36 16.833 -50 20.5
s-29.667 5.5 -47 5.5c-25.333 0 -47.5 -10.333 -66.5 -31s-28.5 -47.667 -28.5 -81c0 -32.667 9.33301 -58.334 28 -77.001s41 -28 67 -28c16.667 0 32.334 1.83301 47.001 5.5s31.334 10.5 50.001 20.5l51 -125c-27.333 -22 -62 -36.667 -104 -44z" />
    <glyph glyph-name="egrave" unicode="&#xe8;" horiz-adv-x="533" 
d="M513 250c0 46.667 -8.83301 88.9971 -26.5 126.997s-43.834 68.333 -78.501 91s-77 34 -127 34c-49.333 0 -93.833 -10.5 -133.5 -31.5s-70.834 -51.167 -93.501 -90.5s-34 -85.333 -34 -138c0 -53.333 12.333 -99.166 37 -137.499s58.834 -67.166 102.501 -86.499
s93.834 -29 150.501 -29c39.333 0 77.833 5 115.5 15s66.5 22.333 86.5 37l-51 123c-42.667 -22 -87 -33 -133 -33c-30 0 -54.167 5.83301 -72.5 17.5s-30.833 27.834 -37.5 48.501h295v53zM231.5 334.997c13 14 27.832 21.001 44.499 21.001
c20.667 0 36.334 -7.33301 47.001 -22s16 -30.334 16 -47.001h-126c-0.666992 18 5.5 34 18.5 48zM237.999 587.998l132 22l-66 177h-180z" />
    <glyph glyph-name="eacute" unicode="&#xe9;" horiz-adv-x="533" 
d="M513 250c0 46.667 -8.83301 88.9971 -26.5 126.997s-43.834 68.333 -78.501 91s-77 34 -127 34c-49.333 0 -93.833 -10.5 -133.5 -31.5s-70.834 -51.167 -93.501 -90.5s-34 -85.333 -34 -138c0 -53.333 12.333 -99.166 37 -137.499s58.834 -67.166 102.501 -86.499
s93.834 -29 150.501 -29c39.333 0 77.833 5 115.5 15s66.5 22.333 86.5 37l-51 123c-42.667 -22 -87 -33 -133 -33c-30 0 -54.167 5.83301 -72.5 17.5s-30.833 27.834 -37.5 48.501h295v53zM231.5 334.997c13 14 27.832 21.001 44.499 21.001
c20.667 0 36.334 -7.33301 47.001 -22s16 -30.334 16 -47.001h-126c-0.666992 18 5.5 34 18.5 48zM321.999 587.998l114 199h-180l-66 -177z" />
    <glyph glyph-name="ecircumflex" unicode="&#xea;" horiz-adv-x="533" 
d="M513 250c0 46.667 -8.83301 88.9971 -26.5 126.997s-43.834 68.333 -78.501 91s-77 34 -127 34c-49.333 0 -93.833 -10.5 -133.5 -31.5s-70.834 -51.167 -93.501 -90.5s-34 -85.333 -34 -138c0 -53.333 12.333 -99.166 37 -137.499s58.834 -67.166 102.501 -86.499
s93.834 -29 150.501 -29c39.333 0 77.833 5 115.5 15s66.5 22.333 86.5 37l-51 123c-42.667 -22 -87 -33 -133 -33c-30 0 -54.167 5.83301 -72.5 17.5s-30.833 27.834 -37.5 48.501h295v53zM231.5 334.997c13 14 27.832 21.001 44.499 21.001
c20.667 0 36.334 -7.33301 47.001 -22s16 -30.334 16 -47.001h-126c-0.666992 18 5.5 34 18.5 48zM281.999 649.998l52 -62l173 20l-174 179h-107l-174 -179l177 -20z" />
    <glyph glyph-name="edieresis" unicode="&#xeb;" horiz-adv-x="533" 
d="M513 250c0 46.667 -8.83301 88.9971 -26.5 126.997s-43.834 68.333 -78.501 91s-77 34 -127 34c-49.333 0 -93.833 -10.5 -133.5 -31.5s-70.834 -51.167 -93.501 -90.5s-34 -85.333 -34 -138c0 -53.333 12.333 -99.166 37 -137.499s58.834 -67.166 102.501 -86.499
s93.834 -29 150.501 -29c39.333 0 77.833 5 115.5 15s66.5 22.333 86.5 37l-51 123c-42.667 -22 -87 -33 -133 -33c-30 0 -54.167 5.83301 -72.5 17.5s-30.833 27.834 -37.5 48.501h295v53zM231.5 334.997c13 14 27.832 21.001 44.499 21.001
c20.667 0 36.334 -7.33301 47.001 -22s16 -30.334 16 -47.001h-126c-0.666992 18 5.5 34 18.5 48zM231.999 626.998c16 16 24 35.667 24 59c0 22.667 -8 42.167 -24 58.5s-36 24.5 -60 24.5c-22 0 -41.333 -8.16699 -58 -24.5s-25 -35.833 -25 -58.5
c0 -23.333 8.16699 -43 24.5 -59s35.833 -24 58.5 -24c24 0 44 8 60 24zM442.999 626.998c16 16 24 35.667 24 59c0 22.667 -8 42.167 -24 58.5s-36 24.5 -60 24.5c-22 0 -41.333 -8.16699 -58 -24.5s-25 -35.833 -25 -58.5c0 -23.333 8.16699 -43 24.5 -59
s35.833 -24 58.5 -24c24 0 44 8 60 24z" />
    <glyph glyph-name="igrave" unicode="&#xec;" horiz-adv-x="282" 
d="M232 0v485h-182v-485h182zM99 588l132 22l-66 177h-180z" />
    <glyph glyph-name="iacute" unicode="&#xed;" horiz-adv-x="282" 
d="M232 0v485h-182v-485h182zM183 588l114 199h-180l-66 -177z" />
    <glyph glyph-name="icircumflex" unicode="&#xee;" horiz-adv-x="282" 
d="M232 0v485h-182v-485h182zM143 650l52 -62l173 20l-174 179h-107l-174 -179l177 -20z" />
    <glyph glyph-name="idieresis" unicode="&#xef;" horiz-adv-x="282" 
d="M232 0v485h-182v-485h182zM93 627c16 16 24 35.667 24 59c0 22.667 -8 42.167 -24 58.5s-36 24.5 -60 24.5c-22 0 -41.333 -8.16699 -58 -24.5s-25 -35.833 -25 -58.5c0 -23.333 8.16699 -43 24.5 -59s35.833 -24 58.5 -24c24 0 44 8 60 24zM304 627
c16 16 24 35.667 24 59c0 22.667 -8 42.167 -24 58.5s-36 24.5 -60 24.5c-22 0 -41.333 -8.16699 -58 -24.5s-25 -35.833 -25 -58.5c0 -23.333 8.16699 -43 24.5 -59s35.833 -24 58.5 -24c24 0 44 8 60 24z" />
    <glyph glyph-name="eth" unicode="&#xf0;" horiz-adv-x="590" 
d="M525.5 444.5c29.667 -62.333 44.502 -125.834 44.502 -190.501c0 -53.333 -11.333 -100 -34 -140s-54.334 -70.833 -95.001 -92.5s-87 -32.5 -139 -32.5c-53.333 0 -101.333 9.5 -144 28.5s-76.334 47.667 -101.001 86s-37 85.5 -37 141.5c0 52 11.833 97.5 35.5 136.5
s55 68.833 94 89.5s80.833 31 125.5 31c7.33301 0 13 -0.333008 17 -1c-12 14 -25.667 27.667 -41 41l-145 -68l-50 106l71 34c-22 8.66699 -46.667 16.667 -74 24l61 112c60 -13.333 116 -33.666 168 -60.999l130 63l54 -110l-68 -32
c55.333 -48 97.833 -103.167 127.5 -165.5zM359.002 162.999c15.333 17.333 23 42.999 23 76.999c0 34.667 -3.33301 66.667 -10 96c-26 12 -51 18 -75 18c-28 0 -49.833 -9.66699 -65.5 -29s-23.5 -46 -23.5 -80c0 -33.333 7.33301 -59.666 22 -78.999s35.667 -29 63 -29
c28.667 0 50.667 8.66699 66 26z" />
    <glyph glyph-name="ntilde" unicode="&#xf1;" 
d="M232 326c16 7.33301 33.667 13.833 53 19.5s34.333 8.5 45 8.5c18.667 0 32 -5.5 40 -16.5s12 -24.833 12 -41.5v-296h182v313c0 56.667 -14.667 102.167 -44 136.5s-73.333 51.5 -132 51.5c-61.333 0 -127.333 -22 -198 -66l-32 50h-108v-485h182v326zM401 736
c-4.66699 -6.66699 -9.66699 -10 -15 -10c-8.66699 0 -16.167 1.33301 -22.5 4s-14.5 6.66699 -24.5 12c-9.33301 6 -17.833 10.5 -25.5 13.5s-16.834 4.5 -27.501 4.5c-35.333 0 -65.333 -12.833 -90 -38.5s-37 -66.167 -37 -121.5h126c0 6 2.33301 12.333 7 19
s9.66699 10 15 10c9.33301 0 17 -1.33301 23 -4s13.667 -6.66699 23 -12c9.33301 -6 17.833 -10.5 25.5 -13.5s17.167 -4.5 28.5 -4.5c34.667 0 63.834 12.833 87.501 38.5s35.5 66.167 35.5 121.5h-122c0 -6 -2.33301 -12.333 -7 -19z" />
    <glyph glyph-name="ograve" unicode="&#xf2;" horiz-adv-x="590" 
d="M533.5 104c-24.333 -38 -57.666 -66.667 -99.999 -86s-89.833 -29 -142.5 -29c-81.333 0 -146.833 21.833 -196.5 65.5s-74.5 107.167 -74.5 190.5c0 52.667 12.167 98.5 36.5 137.5s57.333 68.667 99 89s88.167 30.5 139.5 30.5c54 0 101.667 -10 143 -30
s73.666 -49.667 96.999 -89s35 -87 35 -143c0 -52.667 -12.167 -98 -36.5 -136zM359 163c15.333 17.333 23 43 23 77c0 33.333 -7.5 60.666 -22.5 81.999s-35.833 32 -62.5 32c-28 0 -49.833 -9.66699 -65.5 -29s-23.5 -46 -23.5 -80c0 -33.333 7.33301 -59.666 22 -78.999
s35.667 -29 63 -29c28.667 0 50.667 8.66699 66 26zM251 588l132 22l-66 177h-180z" />
    <glyph glyph-name="oacute" unicode="&#xf3;" horiz-adv-x="590" 
d="M533.5 104c-24.333 -38 -57.666 -66.667 -99.999 -86s-89.833 -29 -142.5 -29c-81.333 0 -146.833 21.833 -196.5 65.5s-74.5 107.167 -74.5 190.5c0 52.667 12.167 98.5 36.5 137.5s57.333 68.667 99 89s88.167 30.5 139.5 30.5c54 0 101.667 -10 143 -30
s73.666 -49.667 96.999 -89s35 -87 35 -143c0 -52.667 -12.167 -98 -36.5 -136zM359 163c15.333 17.333 23 43 23 77c0 33.333 -7.5 60.666 -22.5 81.999s-35.833 32 -62.5 32c-28 0 -49.833 -9.66699 -65.5 -29s-23.5 -46 -23.5 -80c0 -33.333 7.33301 -59.666 22 -78.999
s35.667 -29 63 -29c28.667 0 50.667 8.66699 66 26zM335 588l114 199h-180l-66 -177z" />
    <glyph glyph-name="ocircumflex" unicode="&#xf4;" horiz-adv-x="590" 
d="M533.5 104c-24.333 -38 -57.666 -66.667 -99.999 -86s-89.833 -29 -142.5 -29c-81.333 0 -146.833 21.833 -196.5 65.5s-74.5 107.167 -74.5 190.5c0 52.667 12.167 98.5 36.5 137.5s57.333 68.667 99 89s88.167 30.5 139.5 30.5c54 0 101.667 -10 143 -30
s73.666 -49.667 96.999 -89s35 -87 35 -143c0 -52.667 -12.167 -98 -36.5 -136zM359 163c15.333 17.333 23 43 23 77c0 33.333 -7.5 60.666 -22.5 81.999s-35.833 32 -62.5 32c-28 0 -49.833 -9.66699 -65.5 -29s-23.5 -46 -23.5 -80c0 -33.333 7.33301 -59.666 22 -78.999
s35.667 -29 63 -29c28.667 0 50.667 8.66699 66 26zM295 650l52 -62l173 20l-174 179h-107l-174 -179l177 -20z" />
    <glyph glyph-name="otilde" unicode="&#xf5;" horiz-adv-x="590" 
d="M533.5 104c-24.333 -38 -57.666 -66.667 -99.999 -86s-89.833 -29 -142.5 -29c-81.333 0 -146.833 21.833 -196.5 65.5s-74.5 107.167 -74.5 190.5c0 52.667 12.167 98.5 36.5 137.5s57.333 68.667 99 89s88.167 30.5 139.5 30.5c54 0 101.667 -10 143 -30
s73.666 -49.667 96.999 -89s35 -87 35 -143c0 -52.667 -12.167 -98 -36.5 -136zM359 163c15.333 17.333 23 43 23 77c0 33.333 -7.5 60.666 -22.5 81.999s-35.833 32 -62.5 32c-28 0 -49.833 -9.66699 -65.5 -29s-23.5 -46 -23.5 -80c0 -33.333 7.33301 -59.666 22 -78.999
s35.667 -29 63 -29c28.667 0 50.667 8.66699 66 26zM340 736c-4.66699 -6.66699 -9.66699 -10 -15 -10c-8.66699 0 -16.167 1.33301 -22.5 4s-14.5 6.66699 -24.5 12c-9.33301 6 -17.833 10.5 -25.5 13.5s-16.834 4.5 -27.501 4.5c-35.333 0 -65.333 -12.833 -90 -38.5
s-37 -66.167 -37 -121.5h126c0 6 2.33301 12.333 7 19s9.66699 10 15 10c9.33301 0 17 -1.33301 23 -4s13.667 -6.66699 23 -12c9.33301 -6 17.833 -10.5 25.5 -13.5s17.167 -4.5 28.5 -4.5c34.667 0 63.834 12.833 87.501 38.5s35.5 66.167 35.5 121.5h-122
c0 -6 -2.33301 -12.333 -7 -19z" />
    <glyph glyph-name="odieresis" unicode="&#xf6;" horiz-adv-x="590" 
d="M533.5 104c-24.333 -38 -57.666 -66.667 -99.999 -86s-89.833 -29 -142.5 -29c-81.333 0 -146.833 21.833 -196.5 65.5s-74.5 107.167 -74.5 190.5c0 52.667 12.167 98.5 36.5 137.5s57.333 68.667 99 89s88.167 30.5 139.5 30.5c54 0 101.667 -10 143 -30
s73.666 -49.667 96.999 -89s35 -87 35 -143c0 -52.667 -12.167 -98 -36.5 -136zM359 163c15.333 17.333 23 43 23 77c0 33.333 -7.5 60.666 -22.5 81.999s-35.833 32 -62.5 32c-28 0 -49.833 -9.66699 -65.5 -29s-23.5 -46 -23.5 -80c0 -33.333 7.33301 -59.666 22 -78.999
s35.667 -29 63 -29c28.667 0 50.667 8.66699 66 26zM245 627c16 16 24 35.667 24 59c0 22.667 -8 42.167 -24 58.5s-36 24.5 -60 24.5c-22 0 -41.333 -8.16699 -58 -24.5s-25 -35.833 -25 -58.5c0 -23.333 8.16699 -43 24.5 -59s35.833 -24 58.5 -24c24 0 44 8 60 24z
M456 627c16 16 24 35.667 24 59c0 22.667 -8 42.167 -24 58.5s-36 24.5 -60 24.5c-22 0 -41.333 -8.16699 -58 -24.5s-25 -35.833 -25 -58.5c0 -23.333 8.16699 -43 24.5 -59s35.833 -24 58.5 -24c24 0 44 8 60 24z" />
    <glyph glyph-name="divide" unicode="&#xf7;" horiz-adv-x="512" 
d="M320.5 394c17.667 17.333 26.5 39 26.5 65s-8.83301 47.833 -26.5 65.5s-39.167 26.5 -64.5 26.5c-26 0 -47.833 -8.83301 -65.5 -26.5s-26.5 -39.5 -26.5 -65.5s8.83301 -47.667 26.5 -65s39.5 -26 65.5 -26c25.333 0 46.833 8.66699 64.5 26zM472 340h-442l11 -133h441
zM320.5 26c17.667 17.333 26.5 39 26.5 65s-8.83301 47.833 -26.5 65.5s-39.167 26.5 -64.5 26.5c-26 0 -47.833 -8.83301 -65.5 -26.5s-26.5 -39.5 -26.5 -65.5s8.83301 -47.667 26.5 -65s39.5 -26 65.5 -26c25.333 0 46.833 8.66699 64.5 26z" />
    <glyph glyph-name="oslash" unicode="&#xf8;" horiz-adv-x="590" 
d="M438 472c41.333 -20 73.666 -49.667 96.999 -89s35 -87 35 -143c0 -52.667 -12.167 -98 -36.5 -136s-57.666 -66.667 -99.999 -86s-89.833 -29 -142.5 -29c-81.333 0 -146.833 21.833 -196.5 65.5s-74.5 107.167 -74.5 190.5c0 52.667 12.167 98.5 36.5 137.5
s57.333 68.667 99 89s88.167 30.5 139.5 30.5c54 0 101.667 -10 143 -30zM231.5 325c-15.667 -19.333 -23.5 -46 -23.5 -80c0 -20 2.33301 -36.667 7 -50l87 159h-5c-28 0 -49.833 -9.66699 -65.5 -29zM359 163c15.333 17.333 23 43.001 23 77.001
c0 19.333 -2.33301 35.666 -7 48.999l-86 -152h4c28.667 0 50.667 8.66699 66 26z" />
    <glyph glyph-name="ugrave" unicode="&#xf9;" 
d="M378 158c-16 -7.33301 -33.667 -13.833 -53 -19.5s-34.333 -8.5 -45 -8.5c-18.667 0 -32 5.5 -40 16.5s-12 24.833 -12 41.5v296h-182v-313c0 -56.667 14.667 -102.167 44 -136.5s73.333 -51.5 132 -51.5c61.333 0 127.333 22 198 66l52 -50h88v485h-182v-326zM261 588
l132 22l-66 177h-180z" />
    <glyph glyph-name="uacute" unicode="&#xfa;" 
d="M378 158c-16 -7.33301 -33.667 -13.833 -53 -19.5s-34.333 -8.5 -45 -8.5c-18.667 0 -32 5.5 -40 16.5s-12 24.833 -12 41.5v296h-182v-313c0 -56.667 14.667 -102.167 44 -136.5s73.333 -51.5 132 -51.5c61.333 0 127.333 22 198 66l52 -50h88v485h-182v-326zM345 588
l114 199h-180l-66 -177z" />
    <glyph glyph-name="ucircumflex" unicode="&#xfb;" 
d="M378 158c-16 -7.33301 -33.667 -13.833 -53 -19.5s-34.333 -8.5 -45 -8.5c-18.667 0 -32 5.5 -40 16.5s-12 24.833 -12 41.5v296h-182v-313c0 -56.667 14.667 -102.167 44 -136.5s73.333 -51.5 132 -51.5c61.333 0 127.333 22 198 66l52 -50h88v485h-182v-326zM305 650
l52 -62l173 20l-174 179h-107l-174 -179l177 -20z" />
    <glyph glyph-name="udieresis" unicode="&#xfc;" 
d="M378 158c-16 -7.33301 -33.667 -13.833 -53 -19.5s-34.333 -8.5 -45 -8.5c-18.667 0 -32 5.5 -40 16.5s-12 24.833 -12 41.5v296h-182v-313c0 -56.667 14.667 -102.167 44 -136.5s73.333 -51.5 132 -51.5c61.333 0 127.333 22 198 66l52 -50h88v485h-182v-326zM255 627
c16 16 24 35.667 24 59c0 22.667 -8 42.167 -24 58.5s-36 24.5 -60 24.5c-22 0 -41.333 -8.16699 -58 -24.5s-25 -35.833 -25 -58.5c0 -23.333 8.16699 -43 24.5 -59s35.833 -24 58.5 -24c24 0 44 8 60 24zM466 627c16 16 24 35.667 24 59c0 22.667 -8 42.167 -24 58.5
s-36 24.5 -60 24.5c-22 0 -41.333 -8.16699 -58 -24.5s-25 -35.833 -25 -58.5c0 -23.333 8.16699 -43 24.5 -59s35.833 -24 58.5 -24c24 0 44 8 60 24z" />
    <glyph glyph-name="yacute" unicode="&#xfd;" horiz-adv-x="561" 
d="M140.5 -38.5c-21.667 -11.667 -49.8301 -24.832 -84.4971 -39.499l61 -141c49.333 10.667 94.666 30.667 135.999 60s69.666 63.333 84.999 102l213 542h-181l-93 -274l-99 292l-168 -48l174 -446l-4 -11c-4.66699 -12.667 -17.834 -24.834 -39.501 -36.501z
M317.004 588.002l114 199h-180l-66 -177z" />
    <glyph glyph-name="thorn" unicode="&#xfe;" horiz-adv-x="579" 
d="M490.5 438c45.667 -42.667 68.499 -105.667 68.499 -189c0 -84.667 -23.167 -149.167 -69.5 -193.5s-108.833 -66.5 -187.5 -66.5c-18.667 0 -40 4.33301 -64 13v-211l-182 -10v914l182 11v-220c28 10.667 52 16 72 16c74.667 0 134.834 -21.333 180.501 -64z
M347.999 161c15.333 21.333 23.002 50.332 23.002 86.999s-7.66699 64.834 -23 84.501s-37.333 29.5 -66 29.5c-14 0 -28.667 -5 -44 -15v-205c19.333 -8.66699 36.666 -13 51.999 -13c23.333 0 42.666 10.667 57.999 32z" />
    <glyph glyph-name="ydieresis" unicode="&#xff;" horiz-adv-x="561" 
d="M140.5 -38.5c-21.667 -11.667 -49.8301 -24.832 -84.4971 -39.499l61 -141c49.333 10.667 94.666 30.667 135.999 60s69.666 63.333 84.999 102l213 542h-181l-93 -274l-99 292l-168 -48l174 -446l-4 -11c-4.66699 -12.667 -17.834 -24.834 -39.501 -36.501z
M227.004 627.002c16 16 24 35.667 24 59c0 22.667 -8 42.167 -24 58.5s-36 24.5 -60 24.5c-22 0 -41.333 -8.16699 -58 -24.5s-25 -35.833 -25 -58.5c0 -23.333 8.16699 -43 24.5 -59s35.833 -24 58.5 -24c24 0 44 8 60 24zM438.004 627.002c16 16 24 35.667 24 59
c0 22.667 -8 42.167 -24 58.5s-36 24.5 -60 24.5c-22 0 -41.333 -8.16699 -58 -24.5s-25 -35.833 -25 -58.5c0 -23.333 8.16699 -43 24.5 -59s35.833 -24 58.5 -24c24 0 44 8 60 24z" />
    <glyph glyph-name="Amacron" unicode="&#x100;" horiz-adv-x="711" 
d="M265 680l-255 -680h181l47 134h235l49 -144l179 18l-254 672h-182zM421 277h-133l65 185zM212 763h290l-10 143h-280v-143z" />
    <glyph glyph-name="amacron" unicode="&#x101;" horiz-adv-x="509" 
d="M158.5 345.5c23 5.66699 42.501 8.5 58.501 8.5c17.333 0 31.5 -4.66699 42.5 -14s17.833 -23.333 20.5 -42h-58c-126.667 0 -190 -47.333 -190 -142c0 -51.333 15.333 -92 46 -122s76 -45 136 -45c40.667 0 77 20.333 109 61l52 -50h88v300
c0 62.667 -17.333 112 -52 148s-84.334 54 -149.001 54c-37.333 0 -75.333 -4.5 -114 -13.5s-72 -19.833 -100 -32.5l48 -131c18.667 8 39.5 14.833 62.5 20.5zM195.501 187c7.66699 7.33301 17.499 11.001 29.499 11.001h56v-46c-22 -18 -43.333 -27 -64 -27
c-9.33301 0 -17.166 3.16699 -23.499 9.5s-9.5 14.5 -9.5 24.5c0 11.333 3.83301 20.666 11.5 27.999zM109 613.001h290l-10 143h-280v-143z" />
    <glyph glyph-name="Abreve" unicode="&#x102;" horiz-adv-x="711" 
d="M265 680l-255 -680h181l47 134h235l49 -144l179 18l-254 672h-182zM421 277h-133l65 185zM397.5 887.5c-9 -10.333 -21.502 -15.5 -37.502 -15.5s-28.5 5.16699 -37.5 15.5s-13.5 23.833 -13.5 40.5h-129c0 -57.333 16.333 -103 49 -137s76.334 -51.333 131.001 -52
c54.667 0.666992 98.334 18 131.001 52s49 79.667 49 137h-129c0 -16.667 -4.5 -30.167 -13.5 -40.5z" />
    <glyph glyph-name="abreve" unicode="&#x103;" horiz-adv-x="509" 
d="M158.5 345.5c23 5.66699 42.501 8.5 58.501 8.5c17.333 0 31.5 -4.66699 42.5 -14s17.833 -23.333 20.5 -42h-58c-126.667 0 -190 -47.333 -190 -142c0 -51.333 15.333 -92 46 -122s76 -45 136 -45c40.667 0 77 20.333 109 61l52 -50h88v300
c0 62.667 -17.333 112 -52 148s-84.334 54 -149.001 54c-37.333 0 -75.333 -4.5 -114 -13.5s-72 -19.833 -100 -32.5l48 -131c18.667 8 39.5 14.833 62.5 20.5zM195.501 187c7.66699 7.33301 17.499 11.001 29.499 11.001h56v-46c-22 -18 -43.333 -27 -64 -27
c-9.33301 0 -17.166 3.16699 -23.499 9.5s-9.5 14.5 -9.5 24.5c0 11.333 3.83301 20.666 11.5 27.999zM297.5 736.501c-9 -10.333 -21.502 -15.5 -37.502 -15.5s-28.5 5.16699 -37.5 15.5s-13.5 23.833 -13.5 40.5h-129c0 -57.333 16.333 -103 49 -137
s76.334 -51.333 131.001 -52c54.667 0.666992 98.334 18 131.001 52s49 79.667 49 137h-129c0 -16.667 -4.5 -30.167 -13.5 -40.5z" />
    <glyph glyph-name="Aogonek" unicode="&#x104;" horiz-adv-x="711" 
d="M803 -189c-11.333 -13.333 -32.1709 -24.5 -62.5039 -33.5s-59.166 -13.5 -86.499 -13.5c-31.333 0 -58.166 6.83301 -80.499 20.5s-39.166 31.667 -50.499 54s-17 46.5 -17 72.5c0 10 1.66699 22.5 5 37.5s7.33301 28.833 12 41.5h-1l-49 144h-235l-47 -134h-181
l255 680h182l254 -671v-1h-1c-7.33301 -10 -14.333 -23.5 -21 -40.5s-10 -31.167 -10 -42.5c0 -8 2.83301 -15.333 8.5 -22s12.5 -10 20.5 -10c7.33301 0 14.333 1.33301 21 4s14.334 8 23.001 16zM287.995 277h133l-68 185z" />
    <glyph glyph-name="aogonek" unicode="&#x105;" horiz-adv-x="509" 
d="M565 -198c-12 -14 -29.002 -25.334 -51.002 -34.001s-46 -13 -72 -13c-30.667 0 -57.167 6.66699 -79.5 20s-39.333 30.5 -51 51.5s-17.5 42.833 -17.5 65.5c0 22 2.5 43.5 7.5 64.5s16.5 48.167 34.5 81.5l-13 12c-32 -40.667 -68.333 -61 -109 -61
c-60 0 -105.333 15 -136 45s-46 70.667 -46 122c0 94.667 63.333 142 190 142h58c-2.66699 18.667 -9.5 32.667 -20.5 42s-25.167 14 -42.5 14c-16 0 -35.5 -2.83301 -58.5 -8.5s-43.833 -12.5 -62.5 -20.5l-48 131c28 12.667 61.333 23.5 100 32.5s76.667 13.5 114 13.5
c64.667 0 114.334 -18 149.001 -54s52 -85.333 52 -148v-300c-7.33301 -9.33301 -14.5 -22.666 -21.5 -39.999s-10.5 -32 -10.5 -44c0 -8 2.83301 -15.333 8.5 -22s12.5 -10 20.5 -10c7.33301 0 14.333 1.33301 21 4s14.334 8 23.001 16zM280.998 197.999
l-55.999 -0.000976562c-12 0 -21.833 -3.66699 -29.5 -11s-11.5 -16.666 -11.5 -27.999c0 -10 3.16699 -18.167 9.5 -24.5s14.166 -9.5 23.499 -9.5c20.667 0 42 9 64 27v46z" />
    <glyph glyph-name="Cacute" unicode="&#x106;" horiz-adv-x="596" 
d="M485.5 678c-36.333 10 -71.832 15.002 -106.499 15.002c-66.667 0 -126.5 -15.167 -179.5 -45.5s-94.5 -72.5 -124.5 -126.5s-45 -115.333 -45 -184s14.167 -129.334 42.5 -182.001s69.166 -93.834 122.499 -123.501s116 -44.5 188 -44.5c35.333 0 71.5 4.5 108.5 13.5
s68.5 21.167 94.5 36.5l-69 136c-41.333 -24.667 -84.333 -37 -129 -37c-28.667 0 -56.167 8.16699 -82.5 24.5s-47.5 39.833 -63.5 70.5s-24 66.334 -24 107.001c0 40 7.83301 75.667 23.5 107s36 55.666 61 72.999s51.167 26 78.5 26c22.667 0 43.5 -2 62.5 -6
s46.167 -12 81.5 -24l54 123c-26 17.333 -57.167 31 -93.5 41zM435.001 733.002l114 199h-180l-66 -177z" />
    <glyph glyph-name="cacute" unicode="&#x107;" horiz-adv-x="457" 
d="M285 502c-52 0 -97.998 -10.335 -137.998 -31.002s-71.167 -50.667 -93.5 -90s-33.5 -85.666 -33.5 -138.999c0 -80 24.167 -142.167 72.5 -186.5s112.5 -66.5 192.5 -66.5c69.333 0 124.666 16.333 165.999 49l-51 125c-18.667 -10 -35.334 -16.833 -50.001 -20.5
s-30.334 -5.5 -47.001 -5.5c-26 0 -48.333 9.33301 -67 28s-28 44.334 -28 77.001c0 33.333 9.5 60.333 28.5 81s41.167 31 66.5 31c17.333 0 33 -1.83301 47 -5.5s30.667 -10.5 50 -20.5l51 125c-41.333 32.667 -96.666 49 -165.999 49zM301.002 587.998l114 199h-180
l-66 -177z" />
    <glyph glyph-name="Ccaron" unicode="&#x10c;" horiz-adv-x="596" 
d="M485.5 678c-36.333 10 -71.832 15.002 -106.499 15.002c-66.667 0 -126.5 -15.167 -179.5 -45.5s-94.5 -72.5 -124.5 -126.5s-45 -115.333 -45 -184s14.167 -129.334 42.5 -182.001s69.166 -93.834 122.499 -123.501s116 -44.5 188 -44.5c35.333 0 71.5 4.5 108.5 13.5
s68.5 21.167 94.5 36.5l-69 136c-41.333 -24.667 -84.333 -37 -129 -37c-28.667 0 -56.167 8.16699 -82.5 24.5s-47.5 39.833 -63.5 70.5s-24 66.334 -24 107.001c0 40 7.83301 75.667 23.5 107s36 55.666 61 72.999s51.167 26 78.5 26c22.667 0 43.5 -2 62.5 -6
s46.167 -12 81.5 -24l54 123c-26 17.333 -57.167 31 -93.5 41zM379.001 876.002l-53 62l-177 -20l174 -179h107l174 179l-173 20z" />
    <glyph glyph-name="ccaron" unicode="&#x10d;" horiz-adv-x="457" 
d="M285 502c-52 0 -97.998 -10.335 -137.998 -31.002s-71.167 -50.667 -93.5 -90s-33.5 -85.666 -33.5 -138.999c0 -80 24.167 -142.167 72.5 -186.5s112.5 -66.5 192.5 -66.5c69.333 0 124.666 16.333 165.999 49l-51 125c-18.667 -10 -35.334 -16.833 -50.001 -20.5
s-30.334 -5.5 -47.001 -5.5c-26 0 -48.333 9.33301 -67 28s-28 44.334 -28 77.001c0 33.333 9.5 60.333 28.5 81s41.167 31 66.5 31c17.333 0 33 -1.83301 47 -5.5s30.667 -10.5 50 -20.5l51 125c-41.333 32.667 -96.666 49 -165.999 49zM264.002 724.998l-53 62l-177 -20
l174 -179h107l174 179l-173 20z" />
    <glyph glyph-name="Dcaron" unicode="&#x10e;" horiz-adv-x="739" 
d="M553 42c49.333 28 87.668 67.999 115.001 119.999s41 112.667 41 182c0 65.333 -12.333 123.333 -37 174s-61.167 90.334 -109.5 119.001s-106.5 43 -174.5 43h-308v-680h304c63.333 0 119.666 14 168.999 42zM483.502 483.499c25 -35.667 37.5 -82.166 37.5 -139.499
c0 -64.667 -13.833 -114.334 -41.5 -149.001s-63.5 -52 -107.5 -52h-110v394h117c44.667 0 79.5 -17.833 104.5 -53.5zM359.002 876l-53 62l-177 -20l174 -179h107l174 179l-173 20z" />
    <glyph glyph-name="dcaron" unicode="&#x10f;" horiz-adv-x="796" 
d="M739.5 712c17.667 -20 26.5 -45.666 26.5 -76.999c0 -39.333 -15 -77.333 -45 -114s-67.333 -63.334 -112 -80.001l-36 80c10.667 6 21.5 14 32.5 24s17.5 19 19.5 27c-12.667 8 -23 19 -31 33s-12 29 -12 45c0 23.333 9 44.5 27 63.5s39.667 28.5 65 28.5
c26 0 47.833 -10 65.5 -30zM341 695.001l182.001 11v-706h-92l-27 35c-20 -14 -41.5 -25.167 -64.5 -33.5s-46.5 -12.5 -70.5 -12.5c-74.667 0 -134.834 21.333 -180.501 64s-68.5 105.667 -68.5 189c0 84.667 23.167 149.167 69.5 193.5s108.833 66.5 187.5 66.5
c22.667 0 44 -3.33301 64 -10v203zM231.001 158.501c15.333 -19.667 37.3301 -29.499 65.9971 -29.499c14.667 0 29.334 5 44.001 15v205c-19.333 8.66699 -36.666 13 -51.999 13c-23.333 0 -42.666 -10.667 -57.999 -32s-23 -50.333 -23 -87s7.66699 -64.834 23 -84.501z
" />
    <glyph glyph-name="Dcroat" unicode="&#x110;" horiz-adv-x="739" 
d="M562.5 637c48.333 -28.667 84.8311 -68.333 109.498 -119s37 -108.667 37 -174c0 -69.333 -13.667 -130 -41 -182s-65.666 -92 -114.999 -120s-105.666 -42 -168.999 -42h-304v270h-63l-17 143h80v267h308c68 0 126.167 -14.333 174.5 -43zM479.498 195.001
c27.667 34.667 41.5 84.333 41.5 149c0 57.333 -12.5 103.833 -37.5 139.5s-59.833 53.5 -104.5 53.5h-117v-124h107l17 -143h-124v-127h110c44 0 79.833 17.333 107.5 52z" />
    <glyph glyph-name="dcroat" unicode="&#x111;" horiz-adv-x="583" 
d="M583 550h-59.999v-550h-92l-28 37c-22 -14 -45.333 -25.5 -70 -34.5s-46 -13.5 -64 -13.5c-74.667 0 -134.834 21.333 -180.501 64s-68.5 105.667 -68.5 189c0 84.667 23.167 149.167 69.5 193.5s108.833 66.5 187.5 66.5c18.667 0 40 -4.33301 64 -13v61h-87l-17 113
h104v32l182 11v-43h43zM231.001 158.5c15.333 -19.667 37.3301 -29.499 65.9971 -29.499c14.667 0 29.334 5 44.001 15v205c-19.333 8.66699 -36.666 13 -51.999 13c-23.333 0 -42.666 -10.667 -57.999 -32s-23 -50.333 -23 -87s7.66699 -64.834 23 -84.501z" />
    <glyph glyph-name="Emacron" unicode="&#x112;" horiz-adv-x="598" 
d="M578 0l-17 143h-299v127h226l-17 143h-209v124h286l-17 143h-451v-680h498zM188 763h290l-10 143h-280v-143z" />
    <glyph glyph-name="emacron" unicode="&#x113;" horiz-adv-x="533" 
d="M513 250c0 46.667 -8.83301 88.9971 -26.5 126.997s-43.834 68.333 -78.501 91s-77 34 -127 34c-49.333 0 -93.833 -10.5 -133.5 -31.5s-70.834 -51.167 -93.501 -90.5s-34 -85.333 -34 -138c0 -53.333 12.333 -99.166 37 -137.499s58.834 -67.166 102.501 -86.499
s93.834 -29 150.501 -29c39.333 0 77.833 5 115.5 15s66.5 22.333 86.5 37l-51 123c-42.667 -22 -87 -33 -133 -33c-30 0 -54.167 5.83301 -72.5 17.5s-30.833 27.834 -37.5 48.501h295v53zM231.5 334.997c13 14 27.832 21.001 44.499 21.001
c20.667 0 36.334 -7.33301 47.001 -22s16 -30.334 16 -47.001h-126c-0.666992 18 5.5 34 18.5 48zM129.999 612.998h290l-10 143h-280v-143z" />
    <glyph glyph-name="Edotaccent" unicode="&#x116;" horiz-adv-x="598" 
d="M578 0l-17 143h-299v127h226l-17 143h-209v124h286l-17 143h-451v-680h498zM402 770c16.667 17.333 24.999 39.333 24.999 66c0 26 -8.5 47.833 -25.5 65.5s-38.5 26.5 -64.5 26.5c-25.333 0 -47 -9 -65 -27s-27 -39.667 -27 -65c0 -26 8.83301 -47.833 26.5 -65.5
s39.5 -26.5 65.5 -26.5c26.667 0 48.334 8.66699 65.001 26z" />
    <glyph glyph-name="edotaccent" unicode="&#x117;" horiz-adv-x="533" 
d="M513 250c0 46.667 -8.83301 88.9971 -26.5 126.997s-43.834 68.333 -78.501 91s-77 34 -127 34c-49.333 0 -93.833 -10.5 -133.5 -31.5s-70.834 -51.167 -93.501 -90.5s-34 -85.333 -34 -138c0 -53.333 12.333 -99.166 37 -137.499s58.834 -67.166 102.501 -86.499
s93.834 -29 150.501 -29c39.333 0 77.833 5 115.5 15s66.5 22.333 86.5 37l-51 123c-42.667 -22 -87 -33 -133 -33c-30 0 -54.167 5.83301 -72.5 17.5s-30.833 27.834 -37.5 48.501h295v53zM231.5 334.997c13 14 27.832 21.001 44.499 21.001
c20.667 0 36.334 -7.33301 47.001 -22s16 -30.334 16 -47.001h-126c-0.666992 18 5.5 34 18.5 48zM348.999 619.998c16.667 17.333 24.999 39.333 24.999 66c0 26 -8.5 47.833 -25.5 65.5s-38.5 26.5 -64.5 26.5c-25.333 0 -47 -9 -65 -27s-27 -39.667 -27 -65
c0 -26 8.83301 -47.833 26.5 -65.5s39.5 -26.5 65.5 -26.5c26.667 0 48.334 8.66699 65.001 26z" />
    <glyph glyph-name="Eogonek" unicode="&#x118;" horiz-adv-x="598" 
d="M592 -193c-12 -14 -29.0029 -25.3311 -51.0029 -33.998s-46 -13 -72 -13c-31.333 0 -58.166 6.83301 -80.499 20.5s-39.166 31.667 -50.499 54s-17 46.5 -17 72.5c0 11.333 2.33301 26.333 7 45s10 34.667 16 48h-264v680h451l17 -143h-286v-124h209l17 -143h-226v-127
h299l17 -143h-92c-6.66699 -10.667 -13 -23.834 -19 -39.501s-9 -28.834 -9 -39.501c0 -8 2.83301 -15.333 8.5 -22s12.5 -10 20.5 -10c7.33301 0 14.333 1.33301 21 4s14.334 8 23.001 16z" />
    <glyph glyph-name="eogonek" unicode="&#x119;" horiz-adv-x="533" 
d="M529 -193c-12 -14 -29.0039 -25.3359 -51.0039 -34.0029s-46 -13 -72 -13c-31.333 0 -58.166 6.83301 -80.499 20.5s-39.166 31.667 -50.499 54s-17 46.5 -17 72.5c0 10.667 1.66699 23.834 5 39.501s7.66602 30.167 12.999 43.5c-77.333 6 -139.333 30.833 -186 74.5
s-70 102.834 -70 177.501c0 52.667 11.333 98.667 34 138s53.834 69.5 93.501 90.5s84.167 31.5 133.5 31.5c50 0 92.333 -11.333 127 -34s60.834 -53 78.501 -91s26.5 -80.333 26.5 -127v-53h-295c6.66699 -20.667 19.167 -36.834 37.5 -48.501s42.5 -17.5 72.5 -17.5
c46 0 90.333 11 133 33l51 -123c-20.667 -14 -49 -26.333 -85 -37c-7.33301 -9.33301 -14.5 -22.666 -21.5 -39.999s-10.5 -31.666 -10.5 -42.999c0 -8 2.83301 -15.333 8.5 -22s12.5 -10 20.5 -10c7.33301 0 14.333 1.33301 21 4s14.334 8 23.001 16zM231.496 334.997
c-13 -14 -19.166 -30.001 -18.499 -48.001h126c0 16.667 -5.33301 32.334 -16 47.001s-26.334 22 -47.001 22c-16.667 0 -31.5 -7 -44.5 -21z" />
    <glyph glyph-name="Ecaron" unicode="&#x11a;" horiz-adv-x="598" 
d="M578 0l-17 143h-299v127h226l-17 143h-209v124h286l-17 143h-451v-680h498zM335 876l-53 62l-177 -20l174 -179h107l174 179l-173 20z" />
    <glyph glyph-name="ecaron" unicode="&#x11b;" horiz-adv-x="533" 
d="M513 250c0 46.667 -8.83301 88.9971 -26.5 126.997s-43.834 68.333 -78.501 91s-77 34 -127 34c-49.333 0 -93.833 -10.5 -133.5 -31.5s-70.834 -51.167 -93.501 -90.5s-34 -85.333 -34 -138c0 -53.333 12.333 -99.166 37 -137.499s58.834 -67.166 102.501 -86.499
s93.834 -29 150.501 -29c39.333 0 77.833 5 115.5 15s66.5 22.333 86.5 37l-51 123c-42.667 -22 -87 -33 -133 -33c-30 0 -54.167 5.83301 -72.5 17.5s-30.833 27.834 -37.5 48.501h295v53zM231.5 334.997c13 14 27.832 21.001 44.499 21.001
c20.667 0 36.334 -7.33301 47.001 -22s16 -30.334 16 -47.001h-126c-0.666992 18 5.5 34 18.5 48zM284.999 724.998l-53 62l-177 -20l174 -179h107l174 179l-173 20z" />
    <glyph glyph-name="Gbreve" unicode="&#x11e;" horiz-adv-x="666" 
d="M462 259l-0.000976562 -116.999c-22.667 -4 -44 -6 -64 -6c-30.667 0 -59.667 7 -87 21s-49.666 36.167 -66.999 66.5s-26 68.5 -26 114.5c0 44 9.16699 81.5 27.5 112.5s41.666 54.333 69.999 70s56.833 23.5 85.5 23.5c25.333 0 50.666 -2.16699 75.999 -6.5
s54.666 -12.166 87.999 -23.499l54 123c-25.333 17.333 -59.166 31 -101.499 41s-81.833 15 -118.5 15c-67.333 0 -129.166 -14.333 -185.499 -43s-101 -70 -134 -124s-49.5 -117 -49.5 -189c0 -72.667 14.833 -135.334 44.5 -188.001s71.834 -92.834 126.501 -120.501
s118.667 -41.5 192 -41.5c38 0 80.167 4.5 126.5 13.5s81.833 21.167 106.5 36.5v355h-265l-16 -133h117zM435.499 887.501c-9 -10.333 -21.502 -15.5 -37.502 -15.5s-28.5 5.16699 -37.5 15.5s-13.5 23.833 -13.5 40.5h-129c0 -57.333 16.333 -103 49 -137
s76.334 -51.333 131.001 -52c54.667 0.666992 98.334 18 131.001 52s49 79.667 49 137h-129c0 -16.667 -4.5 -30.167 -13.5 -40.5z" />
    <glyph glyph-name="gbreve" unicode="&#x11f;" horiz-adv-x="579" 
d="M523 484v-500.002c0 -41.333 -11.167 -78.166 -33.5 -110.499s-53.666 -57.666 -93.999 -75.999s-86.833 -27.5 -139.5 -27.5c-28 0 -65 4.83301 -111 14.5s-83 23.5 -111 41.5l55 128c29.333 -14.667 56.333 -24.5 81 -29.5s49 -7.5 73 -7.5
c28.667 0 52.167 6.5 70.5 19.5s27.5 29.167 27.5 48.5v17c-24.667 -8.66699 -48.667 -13 -72 -13c-74.667 0 -134.834 21.333 -180.501 64s-68.5 105.667 -68.5 189c0 84.667 23.167 149.167 69.5 193.5s108.833 66.5 187.5 66.5c48 0 91.667 -16 131 -48l24 30h91z
M341 143.998l-0.00292969 205.001c-19.333 8.66699 -36.666 13 -51.999 13c-23.333 0 -42.666 -10.667 -57.999 -32s-23 -50.333 -23 -87s7.66699 -64.834 23 -84.501s37.333 -29.5 66 -29.5c14.667 0 29.334 5 44.001 15zM314.497 736.499
c-9 -10.333 -21.502 -15.5 -37.502 -15.5s-28.5 5.16699 -37.5 15.5s-13.5 23.833 -13.5 40.5h-129c0 -57.333 16.333 -103 49 -137s76.334 -51.333 131.001 -52c54.667 0.666992 98.334 18 131.001 52s49 79.667 49 137h-129c0 -16.667 -4.5 -30.167 -13.5 -40.5z" />
    <glyph glyph-name="Gcommaaccent" unicode="&#x122;" horiz-adv-x="666" 
d="M462 259l-0.000976562 -116.999c-22.667 -4 -44 -6 -64 -6c-30.667 0 -59.667 7 -87 21s-49.666 36.167 -66.999 66.5s-26 68.5 -26 114.5c0 44 9.16699 81.5 27.5 112.5s41.666 54.333 69.999 70s56.833 23.5 85.5 23.5c25.333 0 50.666 -2.16699 75.999 -6.5
s54.666 -12.166 87.999 -23.499l54 123c-25.333 17.333 -59.166 31 -101.499 41s-81.833 15 -118.5 15c-67.333 0 -129.166 -14.333 -185.499 -43s-101 -70 -134 -124s-49.5 -117 -49.5 -189c0 -72.667 14.833 -135.334 44.5 -188.001s71.834 -92.834 126.501 -120.501
s118.667 -41.5 192 -41.5c38 0 80.167 4.5 126.5 13.5s81.833 21.167 106.5 36.5v355h-265l-16 -133h117zM329.999 -49.499c-18 -19 -27 -40.168 -27 -63.501c0 -16 4 -31 12 -45s18.333 -25 31 -33c-2 -8 -8.5 -17 -19.5 -27s-21.833 -18 -32.5 -24l36 -80
c44.667 16.667 82 43.334 112 80.001s45 74.667 45 114c0 31.333 -8.83301 57 -26.5 77s-39.5 30 -65.5 30c-25.333 0 -47 -9.5 -65 -28.5z" />
    <glyph glyph-name="gcommaaccent" unicode="&#x123;" horiz-adv-x="579" 
d="M207.5 571c-17.667 20 -26.5 45.666 -26.5 76.999c0 39.333 15 77.333 45 114s67.333 63.334 112 80.001l36 -80c-10.667 -6 -21.5 -14 -32.5 -24s-17.5 -19 -19.5 -27c12.667 -8 23 -19 31 -33s12 -29 12 -45c0 -23.333 -9 -44.5 -27 -63.5s-39.667 -28.5 -65 -28.5
c-26 0 -47.833 10 -65.5 30zM523 483.999v-500.002c0 -41.333 -11.167 -78.166 -33.5 -110.499s-53.666 -57.666 -93.999 -75.999s-86.833 -27.5 -139.5 -27.5c-28 0 -65 4.83301 -111 14.5s-83 23.5 -111 41.5l55 128c29.333 -14.667 56.333 -24.5 81 -29.5
s49 -7.5 73 -7.5c28.667 0 52.167 6.5 70.5 19.5s27.5 29.167 27.5 48.5v20c-28 -10.667 -52 -16 -72 -16c-74.667 0 -134.834 21.333 -180.501 64s-68.5 105.667 -68.5 189c0 84.667 23.167 149.167 69.5 193.5s108.833 66.5 187.5 66.5c16.667 0 37 -4.16699 61 -12.5
s47 -20.5 69 -36.5l25 31h91zM341 143.997l-0.00292969 205.001c-19.333 8.66699 -36.666 13 -51.999 13c-23.333 0 -42.666 -10.667 -57.999 -32s-23 -50.333 -23 -87s7.66699 -64.834 23 -84.501s37.333 -29.5 66 -29.5c14.667 0 29.334 5 44.001 15z" />
    <glyph glyph-name="Imacron" unicode="&#x12a;" horiz-adv-x="342" 
d="M262 0v680h-182v-680h182zM27 763h290l-10 143h-280v-143z" />
    <glyph glyph-name="imacron" unicode="&#x12b;" horiz-adv-x="282" 
d="M232 0v485h-182v-485h182zM-9 613h290l-10 143h-280v-143z" />
    <glyph glyph-name="Iogonek" unicode="&#x12e;" horiz-adv-x="342" 
d="M336 -198c-12 -14 -29.0049 -25.334 -51.0049 -34.001s-46 -13 -72 -13c-31.333 0 -58.166 6.83301 -80.499 20.5s-39.166 31.667 -50.499 54s-17 46.5 -17 72.5c0 14.667 1.33301 31.834 4 51.501s6.33398 35.167 11.001 46.5v680h182v-680
c-15.333 -8.66699 -29.166 -19 -41.499 -31s-18.5 -29.667 -18.5 -53c0 -8 2.83301 -15.333 8.5 -22s12.5 -10 20.5 -10c7.33301 0 14.333 1.33301 21 4s14.334 8 23.001 16z" />
    <glyph glyph-name="iogonek" unicode="&#x12f;" horiz-adv-x="282" 
d="M79.5 620.5c-17.667 17.667 -26.499 39.5 -26.499 65.5c0 25.333 9 47 27 65s39.667 27 65 27c26 0 47.5 -8.83301 64.5 -26.5s25.5 -39.5 25.5 -65.5c0 -26.667 -8.33301 -48.667 -25 -66s-38.334 -26 -65.001 -26c-26 0 -47.833 8.83301 -65.5 26.5zM306.001 -198
c-12 -14 -29.0049 -25.334 -51.0049 -34.001s-46 -13 -72 -13c-31.333 0 -58.166 6.83301 -80.499 20.5s-39.166 31.667 -50.499 54s-17 46.5 -17 72.5c0 14.667 1.33301 31.834 4 51.501s6.33398 35.167 11.001 46.5v485h182v-485
c-15.333 -8.66699 -29.166 -19 -41.499 -31s-18.5 -29.667 -18.5 -53c0 -8 2.83301 -15.333 8.5 -22s12.5 -10 20.5 -10c7.33301 0 14.333 1.33301 21 4s14.334 8 23.001 16z" />
    <glyph glyph-name="Idotaccent" unicode="&#x130;" horiz-adv-x="342" 
d="M262 0v680h-182v-680h182zM241 770c16.667 17.333 24.999 39.333 24.999 66c0 26 -8.5 47.833 -25.5 65.5s-38.5 26.5 -64.5 26.5c-25.333 0 -47 -9 -65 -27s-27 -39.667 -27 -65c0 -26 8.83301 -47.833 26.5 -65.5s39.5 -26.5 65.5 -26.5
c26.667 0 48.334 8.66699 65.001 26z" />
    <glyph glyph-name="dotlessi" unicode="&#x131;" horiz-adv-x="282" 
d="M232 0v485h-182v-485h182z" />
    <glyph glyph-name="Kcommaaccent" unicode="&#x136;" horiz-adv-x="730" 
d="M489 0l-174 254l-53 -50v-204h-182v680h182v-236l273 251l141 -102l-231 -216l275 -377h-231zM313 -49.5c-18 -19 -27 -40.168 -27 -63.501c0 -16 4 -31 12 -45s18.333 -25 31 -33c-2 -8 -8.5 -17 -19.5 -27s-21.833 -18 -32.5 -24l36 -80
c44.667 16.667 82 43.334 112 80.001s45 74.667 45 114c0 31.333 -8.83301 57 -26.5 77s-39.5 30 -65.5 30c-25.333 0 -47 -9.5 -65 -28.5z" />
    <glyph glyph-name="kcommaaccent" unicode="&#x137;" horiz-adv-x="567" 
d="M242 0v156l33 25l96 -181h196l-164 277l129 97l-109 125l-181 -153v360l-182 -11v-695h182zM244 -49.5c-18 -19 -27 -40.168 -27 -63.501c0 -16 4 -31 12 -45s18.333 -25 31 -33c-2 -8 -8.5 -17 -19.5 -27s-21.833 -18 -32.5 -24l36 -80
c44.667 16.667 82 43.334 112 80.001s45 74.667 45 114c0 31.333 -8.83301 57 -26.5 77s-39.5 30 -65.5 30c-25.333 0 -47 -9.5 -65 -28.5z" />
    <glyph glyph-name="Lacute" unicode="&#x139;" horiz-adv-x="578" 
d="M551 143h-289v537h-182v-680h488zM317 733l114 199h-180l-66 -177z" />
    <glyph glyph-name="lacute" unicode="&#x13a;" horiz-adv-x="302" 
d="M216 733l114 199h-180l-66 -177zM242 0v706l-182 -11v-695h182z" />
    <glyph glyph-name="Lcommaaccent" unicode="&#x13b;" horiz-adv-x="578" 
d="M551 143h-289v537h-182v-680h488zM270 -49.5c-18 -19 -27 -40.168 -27 -63.501c0 -16 4 -31 12 -45s18.333 -25 31 -33c-2 -8 -8.5 -17 -19.5 -27s-21.833 -18 -32.5 -24l36 -80c44.667 16.667 82 43.334 112 80.001s45 74.667 45 114c0 31.333 -8.83301 57 -26.5 77
s-39.5 30 -65.5 30c-25.333 0 -47 -9.5 -65 -28.5z" />
    <glyph glyph-name="lcommaaccent" unicode="&#x13c;" horiz-adv-x="302" 
d="M242 0v706l-182 -11v-695h182zM95 -49.5c-18 -19 -27 -40.168 -27 -63.501c0 -16 4 -31 12 -45s18.333 -25 31 -33c-2 -8 -8.5 -17 -19.5 -27s-21.833 -18 -32.5 -24l36 -80c44.667 16.667 82 43.334 112 80.001s45 74.667 45 114c0 31.333 -8.83301 57 -26.5 77
s-39.5 30 -65.5 30c-25.333 0 -47 -9.5 -65 -28.5z" />
    <glyph glyph-name="Lcaron" unicode="&#x13d;" horiz-adv-x="578" 
d="M551 143h-289v537h-182v-680h488zM410 713.5c-18 -19 -27 -40.168 -27 -63.501c0 -16 4 -31 12 -45s18.333 -25 31 -33c-2 -8 -8.5 -17 -19.5 -27s-21.833 -18 -32.5 -24l36 -80c44.667 16.667 82 43.334 112 80.001s45 74.667 45 114c0 31.333 -8.83301 57 -26.5 77
s-39.5 30 -65.5 30c-25.333 0 -47 -9.5 -65 -28.5z" />
    <glyph glyph-name="lcaron" unicode="&#x13e;" horiz-adv-x="514" 
d="M327 713.5c-18 -19 -27 -40.168 -27 -63.501c0 -16 4 -31 12 -45s18.333 -25 31 -33c-2 -8 -8.5 -17 -19.5 -27s-21.833 -18 -32.5 -24l36 -80c44.667 16.667 82 43.334 112 80.001s45 74.667 45 114c0 31.333 -8.83301 57 -26.5 77s-39.5 30 -65.5 30
c-25.333 0 -47 -9.5 -65 -28.5zM242 -0.000976562v706l-182 -11v-695h182z" />
    <glyph glyph-name="Lslash" unicode="&#x141;" horiz-adv-x="578" 
d="M80 0v181l-24 -14l-56 139l80 49v325h182v-214l132 81l73 -133l-205 -123v-148h289l17 -143h-488z" />
    <glyph glyph-name="lslash" unicode="&#x142;" horiz-adv-x="386" 
d="M345 555l-65 -45v196l-182 -11v-311l-98 -68l40 -160l58 40v-196h182v322l106 73z" />
    <glyph glyph-name="Nacute" unicode="&#x143;" horiz-adv-x="773" 
d="M262 0v358l261 -358h170v680h-182v-369l-262 369h-169v-680h182zM437 733l114 199h-180l-66 -177z" />
    <glyph glyph-name="nacute" unicode="&#x144;" 
d="M232 326c16 7.33301 33.667 13.833 53 19.5s34.333 8.5 45 8.5c18.667 0 32 -5.5 40 -16.5s12 -24.833 12 -41.5v-296h182v313c0 56.667 -14.667 102.167 -44 136.5s-73.333 51.5 -132 51.5c-61.333 0 -127.333 -22 -198 -66l-32 50h-108v-485h182v326zM396 588l114 199
h-180l-66 -177z" />
    <glyph glyph-name="Ncommaaccent" unicode="&#x145;" horiz-adv-x="773" 
d="M262 0v358l261 -358h170v680h-182v-369l-262 369h-169v-680h182zM331 -49.5c-18 -19 -27 -40.168 -27 -63.501c0 -16 4 -31 12 -45s18.333 -25 31 -33c-2 -8 -8.5 -17 -19.5 -27s-21.833 -18 -32.5 -24l36 -80c44.667 16.667 82 43.334 112 80.001s45 74.667 45 114
c0 31.333 -8.83301 57 -26.5 77s-39.5 30 -65.5 30c-25.333 0 -47 -9.5 -65 -28.5z" />
    <glyph glyph-name="ncommaaccent" unicode="&#x146;" 
d="M232 326c16 7.33301 33.667 13.833 53 19.5s34.333 8.5 45 8.5c18.667 0 32 -5.5 40 -16.5s12 -24.833 12 -41.5v-296h182v313c0 56.667 -14.667 102.167 -44 136.5s-73.333 51.5 -132 51.5c-61.333 0 -127.333 -22 -198 -66l-32 50h-108v-485h182v326zM239 -49.5
c-18 -19 -27 -40.168 -27 -63.501c0 -16 4 -31 12 -45s18.333 -25 31 -33c-2 -8 -8.5 -17 -19.5 -27s-21.833 -18 -32.5 -24l36 -80c44.667 16.667 82 43.334 112 80.001s45 74.667 45 114c0 31.333 -8.83301 57 -26.5 77s-39.5 30 -65.5 30c-25.333 0 -47 -9.5 -65 -28.5z
" />
    <glyph glyph-name="Ncaron" unicode="&#x147;" horiz-adv-x="773" 
d="M262 0v358l261 -358h170v680h-182v-369l-262 369h-169v-680h182zM381 876l-53 62l-177 -20l174 -179h107l174 179l-173 20z" />
    <glyph glyph-name="ncaron" unicode="&#x148;" 
d="M232 326c16 7.33301 33.667 13.833 53 19.5s34.333 8.5 45 8.5c18.667 0 32 -5.5 40 -16.5s12 -24.833 12 -41.5v-296h182v313c0 56.667 -14.667 102.167 -44 136.5s-73.333 51.5 -132 51.5c-61.333 0 -127.333 -22 -198 -66l-32 50h-108v-485h182v326zM359 725l-53 62
l-177 -20l174 -179h107l174 179l-173 20z" />
    <glyph glyph-name="Omacron" unicode="&#x14c;" horiz-adv-x="763" 
d="M200 648.5c-53.333 -30.333 -95.001 -72.665 -125.001 -126.998s-45 -115.833 -45 -184.5c0 -65.333 14.333 -124.666 43 -177.999s69.5 -95.5 122.5 -126.5s114.833 -46.5 185.5 -46.5c68.667 0 129.667 15.167 183 45.5s94.833 72.666 124.5 126.999
s44.5 116.166 44.5 185.499c0 65.333 -14.167 124.666 -42.5 177.999s-69 95.333 -122 126s-115.5 46 -187.5 46c-67.333 0 -127.666 -15.167 -180.999 -45.5zM239.499 444.501c15 31 35 55 60 72s52.833 25.5 83.5 25.5c49.333 0 88.833 -18.5 118.5 -55.5
s44.5 -84.5 44.5 -142.5c0 -66 -15.5 -116.833 -46.5 -152.5s-70.833 -53.5 -119.5 -53.5c-50.667 0 -90.5 18.667 -119.5 56s-43.5 85.333 -43.5 144c0 40 7.5 75.5 22.5 106.5zM232.999 763.001h290l-10 143h-280v-143z" />
    <glyph glyph-name="omacron" unicode="&#x14d;" horiz-adv-x="590" 
d="M533.5 104c-24.333 -38 -57.666 -66.667 -99.999 -86s-89.833 -29 -142.5 -29c-81.333 0 -146.833 21.833 -196.5 65.5s-74.5 107.167 -74.5 190.5c0 52.667 12.167 98.5 36.5 137.5s57.333 68.667 99 89s88.167 30.5 139.5 30.5c54 0 101.667 -10 143 -30
s73.666 -49.667 96.999 -89s35 -87 35 -143c0 -52.667 -12.167 -98 -36.5 -136zM359 163c15.333 17.333 23 43 23 77c0 33.333 -7.5 60.666 -22.5 81.999s-35.833 32 -62.5 32c-28 0 -49.833 -9.66699 -65.5 -29s-23.5 -46 -23.5 -80c0 -33.333 7.33301 -59.666 22 -78.999
s35.667 -29 63 -29c28.667 0 50.667 8.66699 66 26zM143 613h290l-10 143h-280v-143z" />
    <glyph glyph-name="Ohungarumlaut" unicode="&#x150;" horiz-adv-x="763" 
d="M200 648.5c-53.333 -30.333 -95.001 -72.665 -125.001 -126.998s-45 -115.833 -45 -184.5c0 -65.333 14.333 -124.666 43 -177.999s69.5 -95.5 122.5 -126.5s114.833 -46.5 185.5 -46.5c68.667 0 129.667 15.167 183 45.5s94.833 72.666 124.5 126.999
s44.5 116.166 44.5 185.499c0 65.333 -14.167 124.666 -42.5 177.999s-69 95.333 -122 126s-115.5 46 -187.5 46c-67.333 0 -127.666 -15.167 -180.999 -45.5zM239.499 444.501c15 31 35 55 60 72s52.833 25.5 83.5 25.5c49.333 0 88.833 -18.5 118.5 -55.5
s44.5 -84.5 44.5 -142.5c0 -66 -15.5 -116.833 -46.5 -152.5s-70.833 -53.5 -119.5 -53.5c-50.667 0 -90.5 18.667 -119.5 56s-43.5 85.333 -43.5 144c0 40 7.5 75.5 22.5 106.5zM310.999 733.001l114 199h-180l-66 -177zM557.999 733.001l114 199h-180l-66 -177z" />
    <glyph glyph-name="ohungarumlaut" unicode="&#x151;" horiz-adv-x="590" 
d="M533.5 104c-24.333 -38 -57.666 -66.667 -99.999 -86s-89.833 -29 -142.5 -29c-81.333 0 -146.833 21.833 -196.5 65.5s-74.5 107.167 -74.5 190.5c0 52.667 12.167 98.5 36.5 137.5s57.333 68.667 99 89s88.167 30.5 139.5 30.5c54 0 101.667 -10 143 -30
s73.666 -49.667 96.999 -89s35 -87 35 -143c0 -52.667 -12.167 -98 -36.5 -136zM359 163c15.333 17.333 23 43 23 77c0 33.333 -7.5 60.666 -22.5 81.999s-35.833 32 -62.5 32c-28 0 -49.833 -9.66699 -65.5 -29s-23.5 -46 -23.5 -80c0 -33.333 7.33301 -59.666 22 -78.999
s35.667 -29 63 -29c28.667 0 50.667 8.66699 66 26zM222 588l114 199h-180l-66 -177zM469 588l114 199h-180l-66 -177z" />
    <glyph glyph-name="OE" unicode="&#x152;" horiz-adv-x="1032" 
d="M514 0l-0.000976562 5.99805c-44 -12.667 -87.667 -19 -131 -19c-72 0 -134.667 14.833 -188 44.5s-94.166 70.834 -122.499 123.501s-42.5 113.334 -42.5 182.001s15 130 45 184s71.5 96.167 124.5 126.5s112.833 45.5 179.5 45.5c46.667 0 91.667 -8 135 -24v11h451
l17 -143h-286v-124h209l17 -143h-226v-127h299l17 -143h-498zM513.999 170.998v347c-31.333 10.667 -55.833 17.667 -73.5 21s-37.5 5 -59.5 5c-27.333 0 -53.5 -8.66699 -78.5 -26s-45.333 -41.666 -61 -72.999s-23.5 -67 -23.5 -107c0 -40.667 8 -76.334 24 -107.001
s37.167 -54.167 63.5 -70.5s53.833 -24.5 82.5 -24.5c43.333 0 85.333 11.667 126 35z" />
    <glyph glyph-name="oe" unicode="&#x153;" horiz-adv-x="856" 
d="M836 197l-295.002 0.00195312c6.66699 -20.667 19.167 -36.834 37.5 -48.501s42.5 -17.5 72.5 -17.5c46 0 90.333 11 133 33l51 -123c-20 -14.667 -48.833 -27 -86.5 -37s-76.167 -15 -115.5 -15c-73.333 0 -134.666 15.667 -183.999 47
c-42 -31.333 -96.667 -47 -164 -47c-80 0 -144.167 22.167 -192.5 66.5s-72.5 106.5 -72.5 186.5c0 53.333 11.167 99.666 33.5 138.999s53.5 69.333 93.5 90s86 31 138 31c66.667 0 120.667 -15.333 162 -46c44 30.667 96.333 46 157 46c50 0 92.333 -11.333 127 -34
s60.834 -53 78.501 -91s26.5 -80.333 26.5 -127v-53zM661.998 287.002c0 16.667 -5.33203 32.333 -15.999 47s-26.334 22 -47.001 22c-16.667 0 -31.5 -7 -44.5 -21s-19.167 -30 -18.5 -48h126zM235.999 165.001c18.667 -18.667 41 -27.999 67 -27.999
c20.667 0 39.667 3 57 9c-11.333 28.667 -17 60.667 -17 96c0 38.667 6 73 18 103c-16 6 -35.333 9 -58 9c-25.333 0 -47.5 -10.333 -66.5 -31s-28.5 -47.667 -28.5 -81c0 -32.667 9.33301 -58.334 28 -77.001z" />
    <glyph glyph-name="Racute" unicode="&#x154;" horiz-adv-x="714" 
d="M80 0l182 0.000976562v214h121l110 -214h211l-150 268c28.667 19.333 51.167 44.166 67.5 74.499s24.5 65.5 24.5 105.5c0 77.333 -26.333 135.333 -79 174s-119.667 58 -201 58h-286v-680zM432.5 514.501c17 -15 25.5 -37.167 25.5 -66.5c0 -26.667 -9 -48.5 -27 -65.5
s-41 -25.5 -69 -25.5h-100v180h98c31.333 0 55.5 -7.5 72.5 -22.5zM415 733.001l114 199h-180l-66 -177z" />
    <glyph glyph-name="racute" unicode="&#x155;" horiz-adv-x="395" 
d="M232 285c20.667 16 45.333 29 74 39s55 15 79 15l-37 146c-25.333 0 -53 -6 -83 -18s-56.667 -26 -80 -42l-44 59h-91v-484h182v285zM244.999 588l114 199h-180l-66 -177z" />
    <glyph glyph-name="Rcommaaccent" unicode="&#x156;" horiz-adv-x="714" 
d="M80 0l182 0.000976562v214h121l110 -214h211l-150 268c28.667 19.333 51.167 44.166 67.5 74.499s24.5 65.5 24.5 105.5c0 77.333 -26.333 135.333 -79 174s-119.667 58 -201 58h-286v-680zM432.5 514.501c17 -15 25.5 -37.167 25.5 -66.5c0 -26.667 -9 -48.5 -27 -65.5
s-41 -25.5 -69 -25.5h-100v180h98c31.333 0 55.5 -7.5 72.5 -22.5zM318 -49.499c-18 -19 -27 -40.168 -27 -63.501c0 -16 4 -31 12 -45s18.333 -25 31 -33c-2 -8 -8.5 -17 -19.5 -27s-21.833 -18 -32.5 -24l36 -80c44.667 16.667 82 43.334 112 80.001s45 74.667 45 114
c0 31.333 -8.83301 57 -26.5 77s-39.5 30 -65.5 30c-25.333 0 -47 -9.5 -65 -28.5z" />
    <glyph glyph-name="rcommaaccent" unicode="&#x157;" horiz-adv-x="395" 
d="M232 285c20.667 16 45.333 29 74 39s55 15 79 15l-37 146c-25.333 0 -53 -6 -83 -18s-56.667 -26 -80 -42l-44 59h-91v-484h182v285zM75.999 -49.5c-18 -19 -27 -40.168 -27 -63.501c0 -16 4 -31 12 -45s18.333 -25 31 -33c-2 -8 -8.5 -17 -19.5 -27
s-21.833 -18 -32.5 -24l36 -80c44.667 16.667 82 43.334 112 80.001s45 74.667 45 114c0 31.333 -8.83301 57 -26.5 77s-39.5 30 -65.5 30c-25.333 0 -47 -9.5 -65 -28.5z" />
    <glyph glyph-name="Rcaron" unicode="&#x158;" horiz-adv-x="714" 
d="M80 0l182 0.000976562v214h121l110 -214h211l-150 268c28.667 19.333 51.167 44.166 67.5 74.499s24.5 65.5 24.5 105.5c0 77.333 -26.333 135.333 -79 174s-119.667 58 -201 58h-286v-680zM432.5 514.501c17 -15 25.5 -37.167 25.5 -66.5c0 -26.667 -9 -48.5 -27 -65.5
s-41 -25.5 -69 -25.5h-100v180h98c31.333 0 55.5 -7.5 72.5 -22.5zM359 876.001l-53 62l-177 -20l174 -179h107l174 179l-173 20z" />
    <glyph glyph-name="rcaron" unicode="&#x159;" horiz-adv-x="395" 
d="M232 285c20.667 16 45.333 29 74 39s55 15 79 15l-37 146c-25.333 0 -53 -6 -83 -18s-56.667 -26 -80 -42l-44 59h-91v-484h182v285zM207.999 725l-53 62l-177 -20l174 -179h107l174 179l-173 20z" />
    <glyph glyph-name="Sacute" unicode="&#x15a;" horiz-adv-x="547" 
d="M137.5 3c43.667 -10.667 83.168 -16 118.501 -16c54.667 0 102.5 8.66699 143.5 26s72.5 41 94.5 71s33 64.333 33 103c0 34.667 -9.83301 65.834 -29.5 93.501s-43.5 51.667 -71.5 72s-63 42.5 -105 66.5l-36 20c-24 12.667 -41.167 22.834 -51.5 30.501
s-15.5 16.5 -15.5 26.5c0 13.333 6.16699 24.666 18.5 33.999s28.5 14 48.5 14c22.667 0 43.5 -2 62.5 -6s46.167 -12 81.5 -24l54 123c-26 17.333 -57.167 31 -93.5 41s-71.833 15 -106.5 15c-50.667 0 -95 -8.33301 -133 -25s-67.5 -39.834 -88.5 -69.501
s-31.5 -63.167 -31.5 -100.5c0 -35.333 10 -67 30 -95s42.667 -50.833 68 -68.5s60.666 -39.834 105.999 -66.501l31 -18c26 -15.333 44.833 -27.166 56.5 -35.499s17.5 -16.833 17.5 -25.5c0 -13.333 -8 -25.5 -24 -36.5s-37.333 -16.5 -64 -16.5
c-24 0 -51.833 4.5 -83.5 13.5s-56.5 18.833 -74.5 29.5l-60 -137c26 -15.333 60.833 -28.333 104.5 -39zM339.001 733l114 199h-180l-66 -177z" />
    <glyph glyph-name="sacute" unicode="&#x15b;" horiz-adv-x="451" 
d="M122.5 3c42.333 -9.33301 77.832 -13.9971 106.499 -13.9971c66.667 0 117 14.167 151 42.5s51 68.166 51 119.499c0 40 -15.833 72.5 -47.5 97.5s-72.5 46.167 -122.5 63.5c-15.333 5.33301 -27.666 10.666 -36.999 15.999s-14 10 -14 14c0 6.66699 4.66699 12 14 16
s21.333 6 36 6c17.333 0 36.5 -2.66699 57.5 -8s41.5 -12.333 61.5 -21l51 115c-24.667 19.333 -54.167 32.833 -88.5 40.5s-65.833 11.5 -94.5 11.5c-67.333 0 -120 -14.333 -158 -43s-57 -68.334 -57 -119.001c0 -40 16.167 -72.333 48.5 -97s73.833 -46 124.5 -64
c14 -4.66699 25.5 -9.83398 34.5 -15.501s13.5 -10.5 13.5 -14.5c0 -6.66699 -4 -12 -12 -16s-18 -6 -30 -6c-17.333 0 -39.833 3.33301 -67.5 10s-51.167 14.667 -70.5 24l-51 -115c24.667 -19.333 58.167 -33.666 100.5 -42.999zM286.999 588.003l114 199h-180l-66 -177z
" />
    <glyph glyph-name="Scedilla" unicode="&#x15e;" horiz-adv-x="547" 
d="M471.5 58c-37 -35.333 -87.833 -57.668 -152.5 -67.001l-12 -30c22.667 -7.33301 39.667 -21.166 51 -41.499s17 -40.833 17 -61.5c0 -36.667 -14 -65.834 -42 -87.501s-61 -32.5 -99 -32.5c-19.333 0 -39.333 3.66699 -60 11s-39.334 17.333 -56.001 30l38 86
c26 -10 44.667 -15 56 -15c8.66699 0 16 1.5 22 4.5s9 7.5 9 13.5c0 19.333 -28.333 32 -85 38l35 86c-30.667 4.66699 -60.5 11.334 -89.5 20.001s-52.5 18.667 -70.5 30l60 137c18 -10.667 42.833 -20.5 74.5 -29.5s59.5 -13.5 83.5 -13.5c26.667 0 48 5.5 64 16.5
s24 23.167 24 36.5c0 8.66699 -5.83301 17.167 -17.5 25.5s-30.5 20.166 -56.5 35.499l-31 18c-45.333 26.667 -80.666 48.834 -105.999 66.501s-48 40.5 -68 68.5s-30 59.667 -30 95c0 37.333 10.5 70.833 31.5 100.5s50.5 52.834 88.5 69.501s82.333 25 133 25
c34.667 0 70.167 -5 106.5 -15s67.5 -23.667 93.5 -41l-54 -123c-35.333 12 -62.5 20 -81.5 24s-39.833 6 -62.5 6c-20 0 -36.167 -4.66699 -48.5 -14s-18.5 -20.666 -18.5 -33.999c0 -10 5.16699 -18.833 15.5 -26.5s27.5 -17.834 51.5 -30.501l36 -20
c42 -24 77 -46.167 105 -66.5s51.833 -44.333 71.5 -72s29.5 -58.834 29.5 -93.501c0 -50.667 -18.5 -93.667 -55.5 -129z" />
    <glyph glyph-name="scedilla" unicode="&#x15f;" horiz-adv-x="451" 
d="M396 47c-23.333 -26.667 -57.665 -44.335 -102.998 -53.002l-13 -33c22.667 -7.33301 39.667 -21.166 51 -41.499s17 -40.833 17 -61.5c0 -36.667 -14 -65.834 -42 -87.501s-61 -32.5 -99 -32.5c-19.333 0 -39.333 3.66699 -60 11s-39.334 17.333 -56.001 30l38 86
c26 -10 44.667 -15 56 -15c8.66699 0 16 1.5 22 4.5s9 7.5 9 13.5c0 19.333 -28.333 32 -85 38l36 89c-66 9.33301 -114.333 26.333 -145 51l51 115c19.333 -9.33301 42.833 -17.333 70.5 -24s50.167 -10 67.5 -10c12 0 22 2 30 6s12 9.33301 12 16
c0 4 -4.5 8.83301 -13.5 14.5s-20.5 10.834 -34.5 15.501c-50.667 18 -92.167 39.333 -124.5 64s-48.5 57 -48.5 97c0 50.667 19 90.334 57 119.001s90.667 43 158 43c28.667 0 60.167 -3.83301 94.5 -11.5s63.833 -21.167 88.5 -40.5l-51 -115
c-20 8.66699 -40.5 15.667 -61.5 21s-40.167 8 -57.5 8c-14.667 0 -26.667 -2 -36 -6s-14 -9.33301 -14 -16c0 -4 4.66699 -8.66699 14 -14s21.666 -10.666 36.999 -15.999c50 -17.333 90.833 -38.5 122.5 -63.5s47.5 -57.5 47.5 -97.5
c0 -42.667 -11.667 -77.334 -35 -104.001z" />
    <glyph glyph-name="Scaron" unicode="&#x160;" horiz-adv-x="547" 
d="M137.5 3c43.667 -10.667 83.168 -16 118.501 -16c54.667 0 102.5 8.66699 143.5 26s72.5 41 94.5 71s33 64.333 33 103c0 34.667 -9.83301 65.834 -29.5 93.501s-43.5 51.667 -71.5 72s-63 42.5 -105 66.5l-36 20c-24 12.667 -41.167 22.834 -51.5 30.501
s-15.5 16.5 -15.5 26.5c0 13.333 6.16699 24.666 18.5 33.999s28.5 14 48.5 14c22.667 0 43.5 -2 62.5 -6s46.167 -12 81.5 -24l54 123c-26 17.333 -57.167 31 -93.5 41s-71.833 15 -106.5 15c-50.667 0 -95 -8.33301 -133 -25s-67.5 -39.834 -88.5 -69.501
s-31.5 -63.167 -31.5 -100.5c0 -35.333 10 -67 30 -95s42.667 -50.833 68 -68.5s60.666 -39.834 105.999 -66.501l31 -18c26 -15.333 44.833 -27.166 56.5 -35.499s17.5 -16.833 17.5 -25.5c0 -13.333 -8 -25.5 -24 -36.5s-37.333 -16.5 -64 -16.5
c-24 0 -51.833 4.5 -83.5 13.5s-56.5 18.833 -74.5 29.5l-60 -137c26 -15.333 60.833 -28.333 104.5 -39zM283.001 876l-53 62l-177 -20l174 -179h107l174 179l-173 20z" />
    <glyph glyph-name="scaron" unicode="&#x161;" horiz-adv-x="451" 
d="M122.5 3c42.333 -9.33301 77.832 -13.9971 106.499 -13.9971c66.667 0 117 14.167 151 42.5s51 68.166 51 119.499c0 40 -15.833 72.5 -47.5 97.5s-72.5 46.167 -122.5 63.5c-15.333 5.33301 -27.666 10.666 -36.999 15.999s-14 10 -14 14c0 6.66699 4.66699 12 14 16
s21.333 6 36 6c17.333 0 36.5 -2.66699 57.5 -8s41.5 -12.333 61.5 -21l51 115c-24.667 19.333 -54.167 32.833 -88.5 40.5s-65.833 11.5 -94.5 11.5c-67.333 0 -120 -14.333 -158 -43s-57 -68.334 -57 -119.001c0 -40 16.167 -72.333 48.5 -97s73.833 -46 124.5 -64
c14 -4.66699 25.5 -9.83398 34.5 -15.501s13.5 -10.5 13.5 -14.5c0 -6.66699 -4 -12 -12 -16s-18 -6 -30 -6c-17.333 0 -39.833 3.33301 -67.5 10s-51.167 14.667 -70.5 24l-51 -115c24.667 -19.333 58.167 -33.666 100.5 -42.999zM249.999 725.003l-53 62l-177 -20
l174 -179h107l174 179l-173 20z" />
    <glyph glyph-name="Tcedilla" unicode="&#x162;" horiz-adv-x="619" 
d="M408 -80.5c11.333 -20.333 17.001 -40.833 17.001 -61.5c0 -36.667 -14 -65.834 -42 -87.501s-61 -32.5 -99 -32.5c-19.333 0 -39.333 3.66699 -60 11s-39.334 17.333 -56.001 30l38 86c26 -10 44.667 -15 56 -15c8.66699 0 16 1.5 22 4.5s9 7.5 9 13.5
c0 19.333 -28.333 32 -85 38l38 94h-36v537h-200v143h582l17 -143h-217v-537h-20l-15 -39c22.667 -7.33301 39.667 -21.166 51 -41.499z" />
    <glyph glyph-name="tcedilla" unicode="&#x163;" horiz-adv-x="456" 
d="M371 -80.5c11.333 -20.333 17.001 -40.833 17.001 -61.5c0 -36.667 -14 -65.834 -42 -87.501s-61 -32.5 -99 -32.5c-19.333 0 -39.333 3.66699 -60 11s-39.334 17.333 -56.001 30l38 86c26 -10 44.667 -15 56 -15c8.66699 0 16 1.5 22 4.5s9 7.5 9 13.5
c0 19.333 -28.333 32 -85 38l40 100c-38 14 -68.5 36 -91.5 66s-34.5 66.667 -34.5 110v140h-75v143h75v131l182 25v-156h127l17 -143h-144v-120c0 -20 5.16699 -35.833 15.5 -47.5s24.166 -17.5 41.499 -17.5c24 0 47.333 6.33301 70 19l52 -124
c-10.667 -9.33301 -27.167 -18 -49.5 -26s-44.166 -13.333 -65.499 -16l-11 -29c22.667 -7.33301 39.667 -21.166 51 -41.499z" />
    <glyph glyph-name="Tcaron" unicode="&#x164;" horiz-adv-x="619" 
d="M592 680h-582v-143h200v-537h182v537h217zM307 876l-53 62l-177 -20l174 -179h107l174 179l-173 20z" />
    <glyph glyph-name="tcaron" unicode="&#x165;" horiz-adv-x="641" 
d="M454 713.5c-18 -19 -27 -40.168 -27 -63.501c0 -16 4 -31 12 -45s18.333 -25 31 -33c-2 -8 -8.5 -17 -19.5 -27s-21.833 -18 -32.5 -24l36 -80c44.667 16.667 82 43.334 112 80.001s45 74.667 45 114c0 31.333 -8.83301 57 -26.5 77s-39.5 30 -65.5 30
c-25.333 0 -47 -9.5 -65 -28.5zM267 464.999l-0.000976562 156l-182 -25v-131h-75v-143h75v-140c0 -41.333 10.5 -76.5 31.5 -105.5s48.833 -50.833 83.5 -65.5s72 -22 112 -22c22.667 0 47.5 4.5 74.5 13.5s46.833 18.833 59.5 29.5l-52 124
c-22.667 -12.667 -46 -19 -70 -19c-17.333 0 -31.166 5.83301 -41.499 17.5s-15.5 27.5 -15.5 47.5v120h144l-17 143h-127z" />
    <glyph glyph-name="Umacron" unicode="&#x16a;" horiz-adv-x="750" 
d="M70 680l0.00195312 -420c0 -58 12.667 -107.5 38 -148.5s61 -72.167 107 -93.5s99.333 -32 160 -32s114 10.667 160 32s81.667 52.5 107 93.5s38 90.5 38 148.5v420h-182v-411c0 -41.333 -11.333 -73.5 -34 -96.5s-52.334 -34.5 -89.001 -34.5s-66.334 11.5 -89.001 34.5
s-34 55.167 -34 96.5v411h-182zM227.002 763h290l-10 143h-280v-143z" />
    <glyph glyph-name="umacron" unicode="&#x16b;" 
d="M378 158c-16 -7.33301 -33.667 -13.833 -53 -19.5s-34.333 -8.5 -45 -8.5c-18.667 0 -32 5.5 -40 16.5s-12 24.833 -12 41.5v296h-182v-313c0 -56.667 14.667 -102.167 44 -136.5s73.333 -51.5 132 -51.5c61.333 0 127.333 22 198 66l52 -50h88v485h-182v-326zM153 613
h290l-10 143h-280v-143z" />
    <glyph glyph-name="Uring" unicode="&#x16e;" horiz-adv-x="750" 
d="M70 680l0.00195312 -420c0 -58 12.667 -107.5 38 -148.5s61 -72.167 107 -93.5s99.333 -32 160 -32s114 10.667 160 32s81.667 52.5 107 93.5s38 90.5 38 148.5v420h-182v-411c0 -41.333 -11.333 -73.5 -34 -96.5s-52.334 -34.5 -89.001 -34.5s-66.334 11.5 -89.001 34.5
s-34 55.167 -34 96.5v411h-182zM286.502 942c-24.333 -22.667 -36.5 -50.333 -36.5 -83c0 -33.333 12 -60.833 36 -82.5s53 -32.5 87 -32.5c33.333 0 62.166 10.833 86.499 32.5s36.5 49.167 36.5 82.5c0 21.333 -5.66699 41 -17 59s-26.5 32.167 -45.5 42.5
s-39.167 15.5 -60.5 15.5c-33.333 0 -62.166 -11.333 -86.499 -34zM354.002 838.001c-6 6 -9 13 -9 21s3 14.667 9 20s13 8 21 8s14.667 -2.66699 20 -8s8 -12 8 -20s-2.66699 -15 -8 -21s-12 -9 -20 -9s-15 3 -21 9z" />
    <glyph glyph-name="uring" unicode="&#x16f;" 
d="M378 158c-16 -7.33301 -33.667 -13.833 -53 -19.5s-34.333 -8.5 -45 -8.5c-18.667 0 -32 5.5 -40 16.5s-12 24.833 -12 41.5v296h-182v-313c0 -56.667 14.667 -102.167 44 -136.5s73.333 -51.5 132 -51.5c61.333 0 127.333 22 198 66l52 -50h88v485h-182v-326zM217.5 792
c-24.333 -22.667 -36.5 -50.333 -36.5 -83c0 -33.333 12 -60.833 36 -82.5s53 -32.5 87 -32.5c33.333 0 62.166 10.833 86.499 32.5s36.5 49.167 36.5 82.5c0 21.333 -5.66699 41 -17 59s-26.5 32.167 -45.5 42.5s-39.167 15.5 -60.5 15.5
c-33.333 0 -62.166 -11.333 -86.499 -34zM285 688.001c-6 6 -9 13 -9 21s3 14.667 9 20s13 8 21 8s14.667 -2.66699 20 -8s8 -12 8 -20s-2.66699 -15 -8 -21s-12 -9 -20 -9s-15 3 -21 9z" />
    <glyph glyph-name="Uhungarumlaut" unicode="&#x170;" horiz-adv-x="750" 
d="M70 680l0.00195312 -420c0 -58 12.667 -107.5 38 -148.5s61 -72.167 107 -93.5s99.333 -32 160 -32s114 10.667 160 32s81.667 52.5 107 93.5s38 90.5 38 148.5v420h-182v-411c0 -41.333 -11.333 -73.5 -34 -96.5s-52.334 -34.5 -89.001 -34.5s-66.334 11.5 -89.001 34.5
s-34 55.167 -34 96.5v411h-182zM305.002 733l114 199h-180l-66 -177zM552.002 733l114 199h-180l-66 -177z" />
    <glyph glyph-name="uhungarumlaut" unicode="&#x171;" 
d="M378 158c-16 -7.33301 -33.667 -13.833 -53 -19.5s-34.333 -8.5 -45 -8.5c-18.667 0 -32 5.5 -40 16.5s-12 24.833 -12 41.5v296h-182v-313c0 -56.667 14.667 -102.167 44 -136.5s73.333 -51.5 132 -51.5c61.333 0 127.333 22 198 66l52 -50h88v485h-182v-326zM232 588
l114 199h-180l-66 -177zM479 588l114 199h-180l-66 -177z" />
    <glyph glyph-name="Uogonek" unicode="&#x172;" horiz-adv-x="750" 
d="M680 680l-0.00390625 -419.999c0 -76 -21.667 -137.333 -65 -184s-102 -75.334 -176 -86.001c-6 -10.667 -11.333 -22.5 -16 -35.5s-7 -24.167 -7 -33.5c0 -8 2.83301 -15.333 8.5 -22s12.5 -10 20.5 -10c7.33301 0 14.333 1.33301 21 4s14.334 8 23.001 16l61 -102
c-12 -14 -29 -25.333 -51 -34s-46 -13 -72 -13c-31.333 0 -58.166 6.83301 -80.499 20.5s-39.166 31.667 -50.499 54s-17 46.5 -17 72.5c0 10 1.83301 23.333 5.5 40s8.16699 31.667 13.5 45c-70.667 12.667 -126.334 42 -167.001 88s-61 106 -61 180v420h182v-411
c0 -41.333 11.333 -73.5 34 -96.5s52.334 -34.5 89.001 -34.5s66.334 11.5 89.001 34.5s34 55.167 34 96.5v411h182z" />
    <glyph glyph-name="uogonek" unicode="&#x173;" 
d="M662 -199c-12 -14 -29.001 -25.334 -51.001 -34.001s-46 -13 -72 -13c-30.667 0 -57.167 6.66699 -79.5 20s-39.333 30.5 -51 51.5s-17.5 42.833 -17.5 65.5c0 22 2.5 43.5 7.5 64.5s16.5 48.167 34.5 81.5l-13 12c-70.667 -44 -136.667 -66 -198 -66
c-58.667 0 -102.667 17.167 -132 51.5s-44 79.833 -44 136.5v313h182v-296c0 -16.667 4 -30.5 12 -41.5s21.333 -16.5 40 -16.5c10.667 0 25.667 2.83301 45 8.5s37 12.167 53 19.5v326h182v-485c-7.33301 -9.33301 -14.5 -22.666 -21.5 -39.999s-10.5 -32 -10.5 -44
c0 -8 2.83301 -15.333 8.5 -22s12.5 -10 20.5 -10c7.33301 0 14.333 1.33301 21 4s14.334 8 23.001 16z" />
    <glyph glyph-name="Ydieresis" unicode="&#x178;" horiz-adv-x="654" 
d="M408 0v266l236 414h-187l-141 -245l-132 259l-174 -48l216 -378v-268h182zM271 777c16 16 24 35.667 24 59c0 22.667 -8 42.167 -24 58.5s-36 24.5 -60 24.5c-22 0 -41.333 -8.16699 -58 -24.5s-25 -35.833 -25 -58.5c0 -23.333 8.16699 -43 24.5 -59
s35.833 -24 58.5 -24c24 0 44 8 60 24zM482 777c16 16 24 35.667 24 59c0 22.667 -8 42.167 -24 58.5s-36 24.5 -60 24.5c-22 0 -41.333 -8.16699 -58 -24.5s-25 -35.833 -25 -58.5c0 -23.333 8.16699 -43 24.5 -59s35.833 -24 58.5 -24c24 0 44 8 60 24z" />
    <glyph glyph-name="Zacute" unicode="&#x179;" horiz-adv-x="584" 
d="M554 143h-334l354 408l-19 129h-516l17 -143h301l-347 -409l20 -128h541zM347 733l114 199h-180l-66 -177z" />
    <glyph glyph-name="zacute" unicode="&#x17a;" horiz-adv-x="452" 
d="M417 485h-387l17 -143h160l-199 -248l22 -94h414l-17 143h-197l196 241zM264 588l114 199h-180l-66 -177z" />
    <glyph glyph-name="Zdotaccent" unicode="&#x17b;" horiz-adv-x="584" 
d="M554 143h-334l354 408l-19 129h-516l17 -143h301l-347 -409l20 -128h541zM358 770c16.667 17.333 24.999 39.333 24.999 66c0 26 -8.5 47.833 -25.5 65.5s-38.5 26.5 -64.5 26.5c-25.333 0 -47 -9 -65 -27s-27 -39.667 -27 -65c0 -26 8.83301 -47.833 26.5 -65.5
s39.5 -26.5 65.5 -26.5c26.667 0 48.334 8.66699 65.001 26z" />
    <glyph glyph-name="zdotaccent" unicode="&#x17c;" horiz-adv-x="452" 
d="M417 485h-387l17 -143h160l-199 -248l22 -94h414l-17 143h-197l196 241zM291 620c16.667 17.333 24.999 39.333 24.999 66c0 26 -8.5 47.833 -25.5 65.5s-38.5 26.5 -64.5 26.5c-25.333 0 -47 -9 -65 -27s-27 -39.667 -27 -65c0 -26 8.83301 -47.833 26.5 -65.5
s39.5 -26.5 65.5 -26.5c26.667 0 48.334 8.66699 65.001 26z" />
    <glyph glyph-name="Zcaron" unicode="&#x17d;" horiz-adv-x="584" 
d="M554 143h-334l354 408l-19 129h-516l17 -143h301l-347 -409l20 -128h541zM291 876l-53 62l-177 -20l174 -179h107l174 179l-173 20z" />
    <glyph glyph-name="zcaron" unicode="&#x17e;" horiz-adv-x="452" 
d="M417 485h-387l17 -143h160l-199 -248l22 -94h414l-17 143h-197l196 241zM227 725l-53 62l-177 -20l174 -179h107l174 179l-173 20z" />
    <glyph glyph-name="florin" unicode="&#x192;" horiz-adv-x="560" 
d="M109 308h80v-218c0 -20 -5.83301 -35.833 -17.5 -47.5s-28.167 -17.5 -49.5 -17.5c-9.33301 0 -20.666 1.66699 -33.999 5s-25.333 8 -36 14l-52 -124c12.667 -10.667 32.5 -20.5 59.5 -29.5s51.833 -13.5 74.5 -13.5c42.667 0 82 7.33301 118 22s64.833 36.5 86.5 65.5
s32.5 64.167 32.5 105.5v238h151l-17 143h-134v39c0 20 5.83301 35.833 17.5 47.5s28.167 17.5 49.5 17.5c9.33301 0 20.666 -1.66699 33.999 -5s25.333 -8 36 -14l52 124c-12.667 10.667 -32.5 20.5 -59.5 29.5s-51.833 13.5 -74.5 13.5c-42.667 0 -82 -7.33301 -118 -22
s-64.833 -36.5 -86.5 -65.5s-32.5 -64.167 -32.5 -105.5v-59h-80v-143z" />
    <glyph glyph-name="Scommaaccent" unicode="&#x218;" horiz-adv-x="547" 
d="M137.5 3c43.667 -10.667 83.168 -16 118.501 -16c54.667 0 102.5 8.66699 143.5 26s72.5 41 94.5 71s33 64.333 33 103c0 34.667 -9.83301 65.834 -29.5 93.501s-43.5 51.667 -71.5 72s-63 42.5 -105 66.5l-36 20c-24 12.667 -41.167 22.834 -51.5 30.501
s-15.5 16.5 -15.5 26.5c0 13.333 6.16699 24.666 18.5 33.999s28.5 14 48.5 14c22.667 0 43.5 -2 62.5 -6s46.167 -12 81.5 -24l54 123c-26 17.333 -57.167 31 -93.5 41s-71.833 15 -106.5 15c-50.667 0 -95 -8.33301 -133 -25s-67.5 -39.834 -88.5 -69.501
s-31.5 -63.167 -31.5 -100.5c0 -35.333 10 -67 30 -95s42.667 -50.833 68 -68.5s60.666 -39.834 105.999 -66.501l31 -18c26 -15.333 44.833 -27.166 56.5 -35.499s17.5 -16.833 17.5 -25.5c0 -13.333 -8 -25.5 -24 -36.5s-37.333 -16.5 -64 -16.5
c-24 0 -51.833 4.5 -83.5 13.5s-56.5 18.833 -74.5 29.5l-60 -137c26 -15.333 60.833 -28.333 104.5 -39zM193.001 -49.5c-18 -19 -27 -40.168 -27 -63.501c0 -16 4 -31 12 -45s18.333 -25 31 -33c-2 -8 -8.5 -17 -19.5 -27s-21.833 -18 -32.5 -24l36 -80
c44.667 16.667 82 43.334 112 80.001s45 74.667 45 114c0 31.333 -8.83301 57 -26.5 77s-39.5 30 -65.5 30c-25.333 0 -47 -9.5 -65 -28.5z" />
    <glyph glyph-name="scommaaccent" unicode="&#x219;" horiz-adv-x="451" 
d="M122.5 3c42.333 -9.33301 77.832 -13.9971 106.499 -13.9971c66.667 0 117 14.167 151 42.5s51 68.166 51 119.499c0 40 -15.833 72.5 -47.5 97.5s-72.5 46.167 -122.5 63.5c-15.333 5.33301 -27.666 10.666 -36.999 15.999s-14 10 -14 14c0 6.66699 4.66699 12 14 16
s21.333 6 36 6c17.333 0 36.5 -2.66699 57.5 -8s41.5 -12.333 61.5 -21l51 115c-24.667 19.333 -54.167 32.833 -88.5 40.5s-65.833 11.5 -94.5 11.5c-67.333 0 -120 -14.333 -158 -43s-57 -68.334 -57 -119.001c0 -40 16.167 -72.333 48.5 -97s73.833 -46 124.5 -64
c14 -4.66699 25.5 -9.83398 34.5 -15.501s13.5 -10.5 13.5 -14.5c0 -6.66699 -4 -12 -12 -16s-18 -6 -30 -6c-17.333 0 -39.833 3.33301 -67.5 10s-51.167 14.667 -70.5 24l-51 -115c24.667 -19.333 58.167 -33.666 100.5 -42.999zM165.999 -49.4971
c-18 -19 -27 -40.168 -27 -63.501c0 -16 4 -31 12 -45s18.333 -25 31 -33c-2 -8 -8.5 -17 -19.5 -27s-21.833 -18 -32.5 -24l36 -80c44.667 16.667 82 43.334 112 80.001s45 74.667 45 114c0 31.333 -8.83301 57 -26.5 77s-39.5 30 -65.5 30c-25.333 0 -47 -9.5 -65 -28.5z
" />
    <glyph glyph-name="Tcommaaccent" unicode="&#x21a;" horiz-adv-x="619" 
d="M592 680h-582v-143h200v-537h182v537h217zM243 -49.5c-18 -19 -27 -40.168 -27 -63.501c0 -16 4 -31 12 -45s18.333 -25 31 -33c-2 -8 -8.5 -17 -19.5 -27s-21.833 -18 -32.5 -24l36 -80c44.667 16.667 82 43.334 112 80.001s45 74.667 45 114
c0 31.333 -8.83301 57 -26.5 77s-39.5 30 -65.5 30c-25.333 0 -47 -9.5 -65 -28.5z" />
    <glyph glyph-name="tcommaaccent" unicode="&#x21b;" horiz-adv-x="456" 
d="M267 465l-0.000976562 156l-182 -25v-131h-75v-143h75v-140c0 -41.333 10.5 -76.5 31.5 -105.5s48.833 -50.833 83.5 -65.5s72 -22 112 -22c22.667 0 47.5 4.5 74.5 13.5s46.833 18.833 59.5 29.5l-52 124c-22.667 -12.667 -46 -19 -70 -19
c-17.333 0 -31.166 5.83301 -41.499 17.5s-15.5 27.5 -15.5 47.5v120h144l-17 143h-127zM205.999 -49.5c-18 -19 -27 -40.168 -27 -63.501c0 -16 4 -31 12 -45s18.333 -25 31 -33c-2 -8 -8.5 -17 -19.5 -27s-21.833 -18 -32.5 -24l36 -80
c44.667 16.667 82 43.334 112 80.001s45 74.667 45 114c0 31.333 -8.83301 57 -26.5 77s-39.5 30 -65.5 30c-25.333 0 -47 -9.5 -65 -28.5z" />
    <glyph glyph-name="circumflex" unicode="&#x2c6;" horiz-adv-x="475" 
d="M240 650l52 -62l173 20l-174 179h-107l-174 -179l177 -20z" />
    <glyph glyph-name="caron" unicode="&#x2c7;" horiz-adv-x="475" 
d="M240 725l-53 62l-177 -20l174 -179h107l174 179l-173 20z" />
    <glyph glyph-name="uni02C9" unicode="&#x2c9;" horiz-adv-x="310" 
d="M10 613h290l-10 143h-280v-143z" />
    <glyph glyph-name="breve" unicode="&#x2d8;" horiz-adv-x="380" 
d="M227.5 736.5c-9 -10.333 -21.502 -15.5 -37.502 -15.5s-28.5 5.16699 -37.5 15.5s-13.5 23.833 -13.5 40.5h-129c0 -57.333 16.333 -103 49 -137s76.334 -51.333 131.001 -52c54.667 0.666992 98.334 18 131.001 52s49 79.667 49 137h-129
c0 -16.667 -4.5 -30.167 -13.5 -40.5z" />
    <glyph glyph-name="dotaccent" unicode="&#x2d9;" horiz-adv-x="202" 
d="M167 620c16.667 17.333 24.999 39.333 24.999 66c0 26 -8.5 47.833 -25.5 65.5s-38.5 26.5 -64.5 26.5c-25.333 0 -47 -9 -65 -27s-27 -39.667 -27 -65c0 -26 8.83301 -47.833 26.5 -65.5s39.5 -26.5 65.5 -26.5c26.667 0 48.334 8.66699 65.001 26z" />
    <glyph glyph-name="ring" unicode="&#x2da;" horiz-adv-x="266" 
d="M46.5 792c-24.333 -22.667 -36.5 -50.333 -36.5 -83c0 -33.333 12 -60.833 36 -82.5s53 -32.5 87 -32.5c33.333 0 62.166 10.833 86.499 32.5s36.5 49.167 36.5 82.5c0 21.333 -5.66699 41 -17 59s-26.5 32.167 -45.5 42.5s-39.167 15.5 -60.5 15.5
c-33.333 0 -62.166 -11.333 -86.499 -34zM114 688.001c-6 6 -9 13 -9 21s3 14.667 9 20s13 8 21 8s14.667 -2.66699 20 -8s8 -12 8 -20s-2.66699 -15 -8 -21s-12 -9 -20 -9s-15 3 -21 9z" />
    <glyph glyph-name="ogonek" unicode="&#x2db;" horiz-adv-x="291" 
d="M17.5 -44c-5 -20 -7.49707 -36.332 -7.49707 -48.999c0 -26 5.66699 -50.167 17 -72.5s28.166 -40.333 50.499 -54s49.166 -20.5 80.499 -20.5c26 0 50 4.33301 72 13s39 20 51 34l-61 102c-8.66699 -8 -16.334 -13.333 -23.001 -16s-13.667 -4 -21 -4
c-8 0 -14.833 3.33301 -20.5 10s-8.5 14 -8.5 22c0 12 3.5 26.667 10.5 44s14.167 30.666 21.5 39.999h-144c-6.66699 -12.667 -12.5 -29 -17.5 -49z" />
    <glyph glyph-name="tilde" unicode="&#x2dc;" horiz-adv-x="391" 
d="M252 736c-4.66699 -6.66699 -9.66699 -10 -15 -10c-8.66699 0 -16.167 1.33301 -22.5 4s-14.5 6.66699 -24.5 12c-9.33301 6 -17.833 10.5 -25.5 13.5s-16.834 4.5 -27.501 4.5c-35.333 0 -65.333 -12.833 -90 -38.5s-37 -66.167 -37 -121.5h126c0 6 2.33301 12.333 7 19
s9.66699 10 15 10c9.33301 0 17 -1.33301 23 -4s13.667 -6.66699 23 -12c9.33301 -6 17.833 -10.5 25.5 -13.5s17.167 -4.5 28.5 -4.5c34.667 0 63.834 12.833 87.501 38.5s35.5 66.167 35.5 121.5h-122c0 -6 -2.33301 -12.333 -7 -19z" />
    <glyph glyph-name="hungarumlaut" unicode="&#x2dd;" horiz-adv-x="513" 
d="M142 588l114 199h-180l-66 -177zM389 588l114 199h-180l-66 -177z" />
    <glyph glyph-name="pi" unicode="&#x3c0;" horiz-adv-x="722" 
d="M292 0v342h138v-342h182v342h100v143h-702v-143h100v-342h182z" />
    <glyph glyph-name="tm_Anusvara" unicode="&#xb82;" horiz-adv-x="0" 
d="M107.5 662.5c28.333 27 42.5 61.167 42.5 102.5c0 42 -14.167 76.667 -42.5 104s-64.166 41 -107.499 41s-79 -13.667 -107 -41s-42 -62 -42 -104c0 -41.333 14 -75.5 42 -102.5s63.667 -40.5 107 -40.5s79.166 13.5 107.499 40.5zM-27.5 738
c-7 7.33301 -10.5 16.333 -10.5 27c0 12 3.5 21.667 10.5 29s16.167 11 27.5 11c12 0 21.833 -3.66699 29.5 -11s11.5 -17 11.5 -29c0 -10.667 -4 -19.667 -12 -27s-17.667 -11 -29 -11s-20.5 3.66699 -27.5 11z" />
    <glyph glyph-name="tm_Visarga" unicode="&#xb83;" horiz-adv-x="757" 
d="M485.5 306.5c28.333 27 42.5 61.167 42.5 102.5s-14.167 75.833 -42.5 103.5s-64.166 41.5 -107.499 41.5s-79 -13.667 -107 -41s-42 -62 -42 -104c0 -41.333 14 -75.5 42 -102.5s63.667 -40.5 107 -40.5s79.166 13.5 107.499 40.5zM350.5 381
c-7 7.33301 -10.5 16.666 -10.5 27.999s3.5 20.666 10.5 27.999s16.167 11 27.5 11s20.833 -3.66699 28.5 -11s11.5 -16.666 11.5 -27.999s-3.83301 -20.666 -11.5 -27.999s-17.167 -11 -28.5 -11s-20.5 3.66699 -27.5 11zM296.5 27c28.333 27.333 42.5 61.666 42.5 102.999
s-14.167 75.833 -42.5 103.5s-64.166 41.5 -107.499 41.5s-79 -13.667 -107 -41s-42 -62 -42 -104c0 -41.333 14 -75.666 42 -102.999s63.667 -41 107 -41s79.166 13.667 107.499 41zM674.5 27c28.333 27.333 42.5 61.666 42.5 102.999s-14.167 75.833 -42.5 103.5
s-64.166 41.5 -107.499 41.5s-79 -13.667 -107 -41s-42 -62 -42 -104c0 -41.333 14 -75.666 42 -102.999s63.667 -41 107 -41s79.166 13.667 107.499 41zM161.5 102c-7 7.33301 -10.5 16.666 -10.5 27.999s3.5 20.666 10.5 27.999s16.167 11 27.5 11
s20.833 -3.66699 28.5 -11s11.5 -16.666 11.5 -27.999s-3.83301 -20.666 -11.5 -27.999s-17.167 -11 -28.5 -11s-20.5 3.66699 -27.5 11zM539.5 102c-7 7.33301 -10.5 16.666 -10.5 27.999s3.5 20.666 10.5 27.999s16.167 11 27.5 11s20.833 -3.66699 28.5 -11
s11.5 -16.666 11.5 -27.999s-3.83301 -20.666 -11.5 -27.999s-17.167 -11 -28.5 -11s-20.5 3.66699 -27.5 11z" />
    <glyph glyph-name="tm_A" unicode="&#xb85;" horiz-adv-x="1136" 
d="M1051 513l-0.000976562 -638.998h-164v167h-188c-36 -57.333 -88.167 -102.5 -156.5 -135.5s-148.166 -49.5 -239.499 -49.5c-57.333 0 -107 7.5 -149 22.5s-74 35.5 -96 61.5s-33 55.667 -33 89c0 42.667 14.667 76.667 44 102s70.333 38 123 38h384
c2.66699 15.333 4 33.666 4 54.999c0 49.333 -11.167 89.166 -33.5 119.499s-51.833 47.833 -88.5 52.5c12 -19.333 18 -41 18 -65c-0.666992 -40.667 -14.334 -74.167 -41.001 -100.5s-60.334 -39.5 -101.001 -39.5c-44.667 0 -81.5 13.5 -110.5 40.5
s-43.5 61.5 -43.5 103.5c0 37.333 11.167 70.833 33.5 100.5s53 53 92 70s83.167 25.5 132.5 25.5c58.667 0 111.834 -13.167 159.501 -39.5s85.334 -63 113.001 -110s41.5 -99.5 41.5 -157.5c0 -20.667 -1.33301 -39 -4 -55h139v344h164zM354.999 306.002
c6 6 8.99902 13.667 8.99902 23c0 8.66699 -2.83301 15.834 -8.5 21.501s-13.167 8.5 -22.5 8.5s-17.166 -2.83301 -23.499 -8.5s-9.5 -12.834 -9.5 -21.501c0 -9.33301 3 -17 9 -23s13.667 -9 23 -9s17 3 23 9zM500.998 41.002l-288.999 0.000976562
c-10.667 0 -18.334 -1.33301 -23.001 -4s-7 -7.33398 -7 -14.001c0 -8 10.167 -14.833 30.5 -20.5s50.5 -8.5 90.5 -8.5c86.667 0 152.667 15.667 198 47z" />
    <glyph glyph-name="tm_Aa" unicode="&#xb86;" horiz-adv-x="1341" 
d="M1244 94c28.667 -17.333 50.332 -40.667 64.999 -70s22 -61 22 -95c0 -58.667 -19 -111.167 -57 -157.5s-91.333 -82.666 -160 -108.999s-147.334 -39.5 -236.001 -39.5c-58 0 -107.5 8 -148.5 24s-71.833 37.833 -92.5 65.5s-31 58.834 -31 93.501
c0 28 7.66699 53.5 23 76.5s37.166 41 65.499 54s61.833 19.5 100.5 19.5h21v-129h-21c-9.33301 0 -17.166 -2.16699 -23.499 -6.5s-9.5 -10.833 -9.5 -19.5c0 -12 8.5 -21.667 25.5 -29s44.167 -11 81.5 -11c193.333 0 290 54 290 162c0 17.333 -4.83301 31.5 -14.5 42.5
s-21.5 16.5 -35.5 16.5c-18 0 -32.167 -5.83301 -42.5 -17.5s-15.5 -26.5 -15.5 -44.5v-46h-164v167h-188c-36 -57.333 -88.167 -102.5 -156.5 -135.5s-148.166 -49.5 -239.499 -49.5c-57.333 0 -107 7.5 -149 22.5s-74 35.5 -96 61.5s-33 55.667 -33 89
c0 42.667 14.667 76.667 44 102s70.333 38 123 38h384c2.66699 15.333 4 33.666 4 54.999c0 49.333 -11.167 89.166 -33.5 119.499s-51.833 47.833 -88.5 52.5c12 -19.333 18 -41 18 -65c-0.666992 -40.667 -14.334 -74.167 -41.001 -100.5s-60.334 -39.5 -101.001 -39.5
c-44.667 0 -81.5 13.5 -110.5 40.5s-43.5 61.5 -43.5 103.5c0 37.333 11.167 70.833 33.5 100.5s53 53 92 70s83.167 25.5 132.5 25.5c58.667 0 111.834 -13.167 159.501 -39.5s85.334 -63 113.001 -110s41.5 -99.5 41.5 -157.5c0 -20.667 -1.33301 -39 -4 -55h139v344h164
v-414c28 14 57.667 21 89 21c40.667 0 75.334 -8.66699 104.001 -26zM354.998 305.999c6 6 8.99902 13.667 8.99902 23c0 8.66699 -2.83301 15.834 -8.5 21.501s-13.167 8.5 -22.5 8.5s-17.166 -2.83301 -23.499 -8.5s-9.5 -12.834 -9.5 -21.501c0 -9.33301 3 -17 9 -23
s13.667 -9 23 -9s17 3 23 9zM500.997 40.999l-288.999 0.000976562c-10.667 0 -18.334 -1.33301 -23.001 -4s-7 -7.33398 -7 -14.001c0 -8 10.167 -14.833 30.5 -20.5s50.5 -8.5 90.5 -8.5c86.667 0 152.667 15.667 198 47z" />
    <glyph glyph-name="tm_I" unicode="&#xb87;" horiz-adv-x="1161" 
d="M844.5 662.5c75 -32.333 133.172 -77.332 174.505 -134.999s62 -122.834 62 -195.501v-479l-164 -1v477c0 48.667 -13.5 91.334 -40.5 128.001s-65.5 65.167 -115.5 85.5s-108 30.5 -174 30.5c-106.667 0 -188 -22.5 -244 -67.5s-84 -106.167 -84 -183.5
c0 -59.333 14.667 -115.666 44 -168.999c56.667 11.333 116.667 17 180 17c53.333 0 101.333 -4.33301 144 -13c22.667 45.333 34 93.666 34 144.999c0 27.333 -6.66699 49.166 -20 65.499s-32.333 25.833 -57 28.5c12 -19.333 18 -41 18 -65
c-0.666992 -40.667 -14.334 -74.167 -41.001 -100.5s-60.334 -39.5 -101.001 -39.5c-45.333 0 -82.5 13.5 -111.5 40.5s-43.5 61.5 -43.5 103.5c0 37.333 11.167 70.833 33.5 100.5s53.166 53 92.499 70s83.666 25.5 132.999 25.5c51.333 0 96.833 -9.83301 136.5 -29.5
s70.5 -46.834 92.5 -81.501s33 -74 33 -118c0 -70 -16 -135.333 -48 -196c38.667 -20.667 68.5 -45.5 89.5 -74.5s31.5 -60.167 31.5 -93.5c0 -42 -16.5 -75.167 -49.5 -99.5s-77.5 -36.5 -133.5 -36.5c-91.333 0 -177 14.667 -257 44
c-78.667 -29.333 -163.667 -44 -255 -44c-56 0 -100.667 12.167 -134 36.5s-50 57.5 -50 99.5c0 31.333 10.667 60.833 32 88.5s51.666 51.834 90.999 72.501c-38.667 70 -58 144.333 -58 223c0 75.333 20.5 142.5 61.5 201.5s99.333 105 175 138s164.167 49.5 265.5 49.5
c96.667 0 182.5 -16.167 257.5 -48.5zM488.005 299.001c8 8 12 18 12 30c0 11.333 -4 20.833 -12 28.5s-18 11.5 -30 11.5c-10.667 0 -20 -3 -28 -9c-10 -8.66699 -15 -19 -15 -31s4 -22 12 -30s18.333 -12 31 -12c12 0 22 4 30 12zM389.005 44.001
c24 -22 49 -40.668 75 -56.001c28.667 16.667 55.334 36.334 80.001 59.001c-18.667 2 -38.334 3 -59.001 3c-34 0 -66 -2 -96 -6zM700.005 -2c-23.333 -24 -49.998 -47.001 -79.998 -69.001c23.333 -4.66699 48.666 -7 75.999 -7c11.333 0 20.666 2.16699 27.999 6.5
s11 9.83301 11 16.5c0 18.667 -11.667 36.334 -35 53.001zM299.007 -71.001c-28 19.333 -53.667 40.999 -77 64.999c-24.667 -15.333 -37 -31.666 -37 -48.999c0 -6.66699 3.5 -12.167 10.5 -16.5s15.833 -6.5 26.5 -6.5c28 0 53.667 2.33301 77 7z" />
    <glyph glyph-name="tm_Ii" unicode="&#xb88;" horiz-adv-x="941" 
d="M511 0v384h-267v-384h-164v513h836l15 -129h-256v-384h-164zM445 130c18 17.333 27.002 39.333 27.002 66c0 27.333 -9 50 -27 68s-40.667 27 -68 27c-26.667 0 -48.834 -9 -66.501 -27s-26.5 -40.667 -26.5 -68c0 -26.667 8.66699 -48.667 26 -66s39.666 -26 66.999 -26
s50 8.66699 68 26zM876.002 130c18 17.333 27.002 39.333 27.002 66c0 27.333 -9 50 -27 68s-40.667 27 -68 27c-26.667 0 -48.834 -9 -66.501 -27s-26.5 -40.667 -26.5 -68c0 -26.667 8.66699 -48.667 26 -66s39.666 -26 66.999 -26s50 8.66699 68 26z" />
    <glyph glyph-name="tm_U" unicode="&#xb89;" horiz-adv-x="1061" 
d="M1051 129v-129.003h-984v129h220c48 0 85.667 12.333 113 37s41 57.334 41 98.001c0 38 -11.5 69 -34.5 93s-54.167 36 -93.5 36c-12.667 0 -22 -0.333008 -28 -1c19.333 -10.667 34.333 -25.334 45 -44.001s16 -40 16 -64c0 -24.667 -7 -47.167 -21 -67.5
s-33.167 -36.166 -57.5 -47.499s-51.5 -17 -81.5 -17c-48.667 0 -88.5 13.5 -119.5 40.5s-46.5 61.5 -46.5 103.5c0 46 12.5 86.833 37.5 122.5s59.5 63.334 103.5 83.001s94 29.5 150 29.5c58 0 110 -11.5 156 -34.5s81.833 -54.667 107.5 -95s38.5 -86.166 38.5 -137.499
s-14.333 -96.333 -43 -135h481zM216 263.497c7.33301 7 11 15.833 11 26.5c0 11.333 -3.66699 20.666 -11 27.999s-16.666 11 -27.999 11s-20.5 -3.66699 -27.5 -11s-10.5 -16.666 -10.5 -27.999c0 -10.667 3.66699 -19.5 11 -26.5s16.666 -10.5 27.999 -10.5
c10.667 0 19.667 3.5 27 10.5z" />
    <glyph glyph-name="tm_Uu" unicode="&#xb8a;" horiz-adv-x="1601" 
d="M1591 129v-129.005h-1524v129h220c48 0 85.667 12.333 113 37s41 57.334 41 98.001c0 38 -11.5 69 -34.5 93s-54.167 36 -93.5 36c-12.667 0 -22 -0.333008 -28 -1c19.333 -11.333 34.333 -26.166 45 -44.499s16 -39.5 16 -63.5c0 -24.667 -7 -47.167 -21 -67.5
s-33.167 -36.166 -57.5 -47.499s-51.5 -17 -81.5 -17c-48.667 0 -88.5 13.5 -119.5 40.5s-46.5 61.5 -46.5 103.5c0 46 12.5 86.833 37.5 122.5s59.5 63.334 103.5 83.001s94 29.5 150 29.5c58 0 110 -11.5 156 -34.5s81.833 -54.667 107.5 -95s38.5 -86.166 38.5 -137.499
s-14.333 -96.333 -43 -135h1021zM762.5 175.995c-33.667 15.333 -59.5 36.332 -77.5 62.999s-27 56 -27 88c0 40 10 75.333 30 106s49.333 54.667 88 72s85 26 139 26c56 0 103.333 -12.667 142 -38v20h492l15 -120h-107l1 -220h-155v221h-92l1 -221h-155v151
c0 14 -6 27.667 -18 41s-28 24.333 -48 33s-42 13 -66 13c-38 0 -67.833 -7.83301 -89.5 -23.5s-32.5 -35.834 -32.5 -60.501v-8c8.66699 16.667 21.334 29.834 38.001 39.501s36 14.5 58 14.5c35.333 0 64.333 -9.66699 87 -29s34 -44 34 -74
c0 -33.333 -13.167 -61.166 -39.5 -83.499s-59.833 -33.5 -100.5 -33.5c-44.667 0 -83.834 7.66699 -117.501 23zM216 263.494c7.33301 7 11 15.833 11 26.5c0 11.333 -3.66699 20.666 -11 27.999s-16.666 11 -27.999 11s-20.5 -3.66699 -27.5 -11
s-10.5 -16.666 -10.5 -27.999c0 -10.667 3.66699 -19.5 11 -26.5s16.666 -10.5 27.999 -10.5c10.667 0 19.667 3.5 27 10.5zM871.5 287.994c-6.33301 -6 -9.5 -13.333 -9.5 -22s3.16699 -15.834 9.5 -21.501s14.166 -8.5 23.499 -8.5c8.66699 0 16 2.83301 22 8.5
s9 12.834 9 21.501c0 9.33301 -2.83301 16.833 -8.5 22.5s-13.167 8.5 -22.5 8.5s-17.166 -3 -23.499 -9z" />
    <glyph glyph-name="tm_E" unicode="&#xb8e;" horiz-adv-x="954" 
d="M944 384l-157.999 -0.000976562v-384h-164v384h-222c-60.667 0 -106.834 -13.333 -138.501 -40s-47.5 -62.334 -47.5 -107.001c0 -15.333 1.33301 -28.333 4 -39c7.33301 36.667 26.333 66.334 57 89.001s67.667 34 111 34c36 0 68.167 -6.83301 96.5 -20.5
s50.5 -32.5 66.5 -56.5s24 -51 24 -81c0 -34.667 -8.66699 -65.834 -26 -93.501s-42.333 -49.167 -75 -64.5s-71 -23 -115 -23c-60.667 0 -115 11 -163 33s-85.667 52.333 -113 91s-41 82.334 -41 131.001c0 53.333 14.167 100.833 42.5 142.5s69.5 74.334 123.5 98.001
s118 35.5 192 35.5h530zM345.001 190.999c-8.66699 -8.66699 -13.002 -19.667 -13.002 -33s4.33301 -24.5 13 -33.5s20 -13.5 34 -13.5c12.667 0 23.334 4.5 32.001 13.5s13 20.167 13 33.5s-4.16699 24.333 -12.5 33s-19.166 13 -32.499 13c-14 0 -25.333 -4.33301 -34 -13
z" />
    <glyph glyph-name="tm_Ee" unicode="&#xb8f;" horiz-adv-x="954" 
d="M944 384l-157.999 -0.000976562v-376c0 -29.333 -1.16699 -53.333 -3.5 -72s-8.5 -35.167 -18.5 -49.5s-25.333 -23.833 -46 -28.5l-437 -108l-44 120l334 92c16.667 4.66699 28.5 10 35.5 16s11.333 14.167 13 24.5s2.5 27.833 2.5 52.5v329h-222
c-60.667 0 -106.834 -13.333 -138.501 -40s-47.5 -62.334 -47.5 -107.001c0 -15.333 1.33301 -28.333 4 -39c7.33301 36.667 26.333 66.334 57 89.001s67.667 34 111 34c36 0 68.167 -6.83301 96.5 -20.5s50.5 -32.5 66.5 -56.5s24 -51 24 -81
c0 -34.667 -8.66699 -65.834 -26 -93.501s-42.333 -49.167 -75 -64.5s-71 -23 -115 -23c-60.667 0 -115 11 -163 33s-85.667 52.333 -113 91s-41 82.334 -41 131.001c0 53.333 14.167 100.833 42.5 142.5s69.5 74.334 123.5 98.001s118 35.5 192 35.5h530zM345.001 190.999
c-8.66699 -8.66699 -13.002 -19.667 -13.002 -33s4.33301 -24.5 13 -33.5s20 -13.5 34 -13.5c12.667 0 23.334 4.5 32.001 13.5s13 20.167 13 33.5s-4.16699 24.333 -12.5 33s-19.166 13 -32.499 13c-14 0 -25.333 -4.33301 -34 -13z" />
    <glyph glyph-name="tm_Ai" unicode="&#xb90;" horiz-adv-x="819" 
d="M727 101c14 -26.667 23.833 -48.833 29.5 -66.5s8.5 -36.834 8.5 -57.501c0 -54 -18.833 -97.833 -56.5 -131.5s-89.5 -50.5 -155.5 -50.5c-24.667 0 -49.834 4.66699 -75.501 14s-48.5 22 -68.5 38c-20.667 -16 -45.167 -28.667 -73.5 -38s-57.833 -14 -88.5 -14
c-40.667 0 -76.667 8.16699 -108 24.5s-55.666 39 -72.999 68s-26 61.833 -26 98.5c0 60.667 22 111.667 66 153s112 68.333 204 81l181 24c34 4.66699 61.667 15.667 83 33s32.333 37.333 33 60c0 16.667 -4.5 30.167 -13.5 40.5s-20.833 15.5 -35.5 15.5
c-16 0 -28.833 -4.66699 -38.5 -14s-14.5 -21.333 -14.5 -36v-69h-152v43c0 24 -6.33301 42.667 -19 56s-30 20.666 -52 21.999c14.667 -17.333 21.334 -40.666 20.001 -69.999c-0.666992 -32.667 -13.167 -59.5 -37.5 -80.5s-55.166 -31.5 -92.499 -31.5
c-38.667 0 -70.334 12.5 -95.001 37.5s-37 57.167 -37 96.5c0 37.333 9.66699 70 29 98s45.666 49.333 78.999 64s70.666 22 111.999 22c72.667 0 129 -17.333 169 -52c38 34.667 87 52 147 52c41.333 0 77.333 -8.33301 108 -25s54.167 -39.667 70.5 -69
s24.5 -62.666 24.5 -99.999c0 -58.667 -23.667 -108.5 -71 -149.5s-119.666 -67.833 -216.999 -80.5l-181 -24c-31.333 -4 -55.5 -14 -72.5 -30s-25.5 -36 -25.5 -60c0 -16.667 5.16699 -31 15.5 -43s23.5 -18 39.5 -18c22 0 38.667 4.66699 50 14s17 21.666 17 36.999v69
h152v-69c0 -15.333 4.5 -27.666 13.5 -36.999s21.833 -14 38.5 -14c18 0 31.667 5.33301 41 16s14 25 14 43c0 27.333 -11.667 62 -35 104zM201 303.501c7.33301 7 11 15.833 11 26.5c0 12 -3.5 21.833 -10.5 29.5s-16.167 11.5 -27.5 11.5s-20.666 -3.83301 -27.999 -11.5
s-11 -17.167 -11 -28.5s3.66699 -20.5 11 -27.5s16.666 -10.5 27.999 -10.5c10.667 0 19.667 3.5 27 10.5z" />
    <glyph glyph-name="tm_O" unicode="&#xb92;" horiz-adv-x="898" 
d="M837.5 188.5c-17 -27.667 -40.6689 -49.165 -71.002 -64.498s-64.5 -23 -102.5 -23c-21.333 0 -41.666 3 -60.999 9c4.66699 -16 14.5 -27.667 29.5 -35s37.833 -11 68.5 -11h101v-120h-91c-6 -32 -21 -60.333 -45 -85s-54.667 -43.834 -92 -57.501
s-78.666 -20.5 -123.999 -20.5c-50.667 0 -96 8.5 -136 25.5s-71.333 41.167 -94 72.5s-34 67.333 -34 108v31h155v-22c0 -24 9.83301 -42.833 29.5 -56.5s45.5 -20.5 77.5 -20.5c29.333 0 54.166 5.33301 74.499 16s32.166 24.334 35.499 41.001
c-57.333 33.333 -86 91.666 -86 174.999v118h128c0.666992 -12 4.83398 -21.5 12.501 -28.5s18.834 -10.5 33.501 -10.5c13.333 0 24.166 4.83301 32.499 14.5s12.5 22.167 12.5 37.5c0 21.333 -11.167 40.666 -33.5 57.999s-52.666 31 -90.999 41s-80.5 15 -126.5 15
c-44.667 0 -87.167 -5.16699 -127.5 -15.5s-73.5 -24.166 -99.5 -41.499c3.33301 0.666992 8.66602 1 15.999 1c40 0 73.167 -11.667 99.5 -35s39.5 -53.333 39.5 -90c0 -40.667 -14.333 -74.167 -43 -100.5s-65.334 -39.5 -110.001 -39.5c-34 0 -64.667 7.5 -92 22.5
s-48.833 36 -64.5 63s-23.5 57.167 -23.5 90.5c0 54 17.833 102.5 53.5 145.5s84.334 76.667 146.001 101s130.167 36.5 205.5 36.5c77.333 0 148.333 -10.833 213 -32.5s115.834 -51.667 153.501 -90s56.5 -81.5 56.5 -129.5c0 -34.667 -8.5 -65.834 -25.5 -93.501z
M244.498 241.502c-7.66699 7.66699 -17.5 11.5 -29.5 11.5c-12.667 0 -23 -3.83301 -31 -11.5s-12 -17.167 -12 -28.5c0 -12 4 -22 12 -30s18 -12 30 -12c11.333 0 21 4 29 12s12.333 18 13 30c0 11.333 -3.83301 20.833 -11.5 28.5z" />
    <glyph glyph-name="tm_Oo" unicode="&#xb93;" horiz-adv-x="898" 
d="M837.5 188.5c-17 -27.667 -40.6719 -49.165 -71.0049 -64.498s-64.5 -23 -102.5 -23c-21.333 0 -41.666 3 -60.999 9c4.66699 -16 14.5 -27.667 29.5 -35s37.833 -11 68.5 -11h101v-120h-91c-6.66699 -32 -22.5 -60.333 -47.5 -85s-57.167 -43.834 -96.5 -57.501
s-82.666 -20.5 -129.999 -20.5c-50.667 0 -94.667 6.66699 -132 20s-66.166 32 -86.499 56s-30.5 51 -30.5 81c0 42 15.167 75.833 45.5 101.5s74.166 38.5 131.499 38.5h12v-119h-12c-6.66699 0 -11.667 -1.83301 -15 -5.5s-5 -8.5 -5 -14.5
c0 -8.66699 7.66699 -15.667 23 -21s38.333 -8 69 -8c34.667 0 63.334 6 86.001 18s34.667 27.667 36 47c-58 33.333 -87 92 -87 176v118h128c0.666992 -12 4.83398 -21.5 12.501 -28.5s18.834 -10.5 33.501 -10.5c13.333 0 24.166 4.83301 32.499 14.5
s12.5 22.167 12.5 37.5c0 21.333 -11.167 40.666 -33.5 57.999s-52.666 31 -90.999 41s-80.5 15 -126.5 15c-44.667 0 -87.167 -5.16699 -127.5 -15.5s-73.5 -24.166 -99.5 -41.499c3.33301 0.666992 8.66602 1 15.999 1c40 0 73.167 -11.667 99.5 -35
s39.5 -53.333 39.5 -90c0 -40.667 -14.333 -74.167 -43 -100.5s-65.334 -39.5 -110.001 -39.5c-34 0 -64.667 7.5 -92 22.5s-48.833 36 -64.5 63s-23.5 57.167 -23.5 90.5c0 54 17.833 102.5 53.5 145.5s84.334 76.667 146.001 101s130.167 36.5 205.5 36.5
c77.333 0 148.333 -10.833 213 -32.5s115.834 -51.667 153.501 -90s56.5 -81.5 56.5 -129.5c0 -34.667 -8.5 -65.834 -25.5 -93.501zM244.495 241.502c-7.66699 7.66699 -17.5 11.5 -29.5 11.5c-12.667 0 -23 -3.83301 -31 -11.5s-12 -17.167 -12 -28.5c0 -12 4 -22 12 -30
s18 -12 30 -12c11.333 0 21 4 29 12s12.333 18 13 30c0 11.333 -3.83301 20.833 -11.5 28.5z" />
    <glyph glyph-name="tm_Au" unicode="&#xb94;" horiz-adv-x="2178" 
d="M837.5 188.5c-17 -27.667 -40.6689 -49.165 -71.002 -64.498s-64.5 -23 -102.5 -23c-21.333 0 -41.666 3 -60.999 9c4.66699 -16 14.5 -27.667 29.5 -35s37.833 -11 68.5 -11h101v-120h-91c-6 -32 -21 -60.333 -45 -85s-54.667 -43.834 -92 -57.501
s-78.666 -20.5 -123.999 -20.5c-50.667 0 -96 8.5 -136 25.5s-71.333 41.167 -94 72.5s-34 67.333 -34 108v31h155v-22c0 -24 9.83301 -42.833 29.5 -56.5s45.5 -20.5 77.5 -20.5c29.333 0 54.166 5.33301 74.499 16s32.166 24.334 35.499 41.001
c-57.333 33.333 -86 91.666 -86 174.999v118h128c0.666992 -12 4.83398 -21.5 12.501 -28.5s18.834 -10.5 33.501 -10.5c13.333 0 24.166 4.83301 32.499 14.5s12.5 22.167 12.5 37.5c0 21.333 -11.167 40.666 -33.5 57.999s-52.666 31 -90.999 41s-80.5 15 -126.5 15
c-44.667 0 -87.167 -5.16699 -127.5 -15.5s-73.5 -24.166 -99.5 -41.499c3.33301 0.666992 8.66602 1 15.999 1c40 0 73.167 -11.667 99.5 -35s39.5 -53.333 39.5 -90c0 -40.667 -14.333 -74.167 -43 -100.5s-65.334 -39.5 -110.001 -39.5c-34 0 -64.667 7.5 -92 22.5
s-48.833 36 -64.5 63s-23.5 57.167 -23.5 90.5c0 54 17.833 102.5 53.5 145.5s84.334 76.667 146.001 101s130.167 36.5 205.5 36.5c77.333 0 148.333 -10.833 213 -32.5s115.834 -51.667 153.501 -90s56.5 -81.5 56.5 -129.5c0 -34.667 -8.5 -65.834 -25.5 -93.501z
M244.498 241.502c-7.66699 7.66699 -17.5 11.5 -29.5 11.5c-12.667 0 -23 -3.83301 -31 -11.5s-12 -17.167 -12 -28.5c0 -12 4 -22 12 -30s18 -12 30 -12c11.333 0 21 4 29 12s12.333 18 13 30c0 11.333 -3.83301 20.833 -11.5 28.5zM2168 384.002l-156.999 -0.00292969
v-384h-164v384h-168v-384h-164v219c0 33.333 -9.5 63.333 -28.5 90s-44.667 47.334 -77 62.001s-67.833 22 -106.5 22c-58.667 0 -105.167 -14.5 -139.5 -43.5s-51.5 -66.5 -51.5 -112.5c0 -15.333 1.33301 -28.333 4 -39c7.33301 36.667 26.333 66.334 57 89.001
s67.667 34 111 34c36 0 68.167 -6.83301 96.5 -20.5s50.5 -32.5 66.5 -56.5s24 -51 24 -81c0 -34.667 -8.66699 -65.834 -26 -93.501s-42.333 -49.167 -75 -64.5s-71 -23 -115 -23c-60.667 0 -115 11 -163 33s-85.667 52.333 -113 91s-41 82.334 -41 131.001
c0 56.667 14.667 107.334 44 152.001s71 79.5 125 104.5s116.667 37.5 188 37.5c87.333 0 160.666 -23.333 219.999 -70v52h638zM1243 190.999c-8.66699 -8.66699 -13.002 -19.667 -13.002 -33s4.33301 -24.5 13 -33.5s20 -13.5 34 -13.5c12.667 0 23.334 4.5 32.001 13.5
s13 20.167 13 33.5s-4.16699 24.333 -12.5 33s-19.166 13 -32.499 13c-14 0 -25.333 -4.33301 -34 -13z" />
    <glyph glyph-name="tm_Ka" unicode="&#xb95;" horiz-adv-x="766" 
d="M649 298c31.333 -14.667 55.3359 -34.999 72.0029 -60.999s25 -55 25 -87s-8.33301 -60.667 -25 -86s-40.834 -45.333 -72.501 -60s-68.834 -22 -111.501 -22v129c12 0 21.333 3.5 28 10.5s10 16.5 10 28.5c0 12.667 -3 22.667 -9 30s-14.667 11 -26 11h-12
c-2.66699 -44 -17 -81.833 -43 -113.5s-59.5 -55.5 -100.5 -71.5s-85.167 -24 -132.5 -24c-72.667 0 -127.834 16 -165.501 48s-56.5 74 -56.5 126c0 32.667 8.66699 61.667 26 87s43 44.666 77 57.999v212h564l15 -129h-184v-64h11c42 0 78.667 -7.33301 110 -22z
M373.003 384.001h-82v-64h82v64zM331.503 136.501c23 11 36.499 29.168 40.499 54.501h-114c-17.333 0 -30.666 -3.16699 -39.999 -9.5s-14 -14.833 -14 -25.5s4.83301 -19.334 14.5 -26.001s23.5 -10 41.5 -10c24.667 0 48.5 5.5 71.5 16.5z" />
    <glyph glyph-name="tm_Nga" unicode="&#xb99;" horiz-adv-x="1082" 
d="M1002 513l0.00195312 -513h-662v129h168c28.667 0 50.167 4.33301 64.5 13s21.5 20.667 21.5 36c0 12.667 -4 22.834 -12 30.501s-18.333 11.5 -31 11.5c-13.333 0 -24.5 -4.33301 -33.5 -13s-13.5 -18.334 -13.5 -29.001v-11h-164v217h-96v-384h-164v513h566l15 -129
h-157v-39c23.333 8 48.666 12 75.999 12c35.333 0 67.166 -7.66699 95.499 -23s50.5 -36.5 66.5 -63.5s24 -56.833 24 -89.5c0 -18.667 -3 -36 -9 -52h81v384h164z" />
    <glyph glyph-name="tm_Ca" unicode="&#xb9a;" horiz-adv-x="732" 
d="M712 191l-183.999 0.000976562c-2.66699 -44 -17 -81.833 -43 -113.5s-59.5 -55.5 -100.5 -71.5s-85.167 -24 -132.5 -24c-72.667 0 -127.834 16 -165.501 48s-56.5 74 -56.5 126c0 32.667 8.66699 61.667 26 87s43 44.666 77 57.999v212h564l15 -129h-184v-64h169z
M373.001 384.001h-82v-64h82v64zM331.501 136.501c23 11 36.499 29.168 40.499 54.501h-114c-17.333 0 -30.666 -3.16699 -39.999 -9.5s-14 -14.833 -14 -25.5s4.83301 -19.334 14.5 -26.001s23.5 -10 41.5 -10c24.667 0 48.5 5.5 71.5 16.5z" />
    <glyph glyph-name="tm_Ja" unicode="&#xb9c;" horiz-adv-x="819" 
d="M690.5 82c27.667 -14 49.333 -33.332 65 -57.999s23.5 -52.334 23.5 -83.001c0 -43.333 -16.333 -78.5 -49 -105.5s-76.667 -40.5 -132 -40.5h-63v119h39c12.667 0 22.834 2.83301 30.501 8.5s11.5 12.834 11.5 21.501c0 9.33301 -2.66699 16.666 -8 21.999s-13 8 -23 8
c-12 0 -23.333 -4.16699 -34 -12.5s-25.334 -22.5 -44.001 -42.5c-23.333 -24.667 -45.166 -45.334 -65.499 -62.001s-46 -31.167 -77 -43.5s-67.167 -18.5 -108.5 -18.5c-44 0 -82.333 8.16699 -115 24.5s-57.667 39 -75 68s-26 61.833 -26 98.5
c0 60.667 22 111.667 66 153s112 68.333 204 81l181 24c34 4.66699 61.667 15.667 83 33s32.333 37.333 33 60c0 16.667 -4.5 30.167 -13.5 40.5s-20.833 15.5 -35.5 15.5c-16 0 -28.833 -4.66699 -38.5 -14s-14.5 -21.333 -14.5 -36v-69h-152v43
c0 24 -6.33301 42.667 -19 56s-30 20.666 -52 21.999c14.667 -17.333 21.334 -40.666 20.001 -69.999c-0.666992 -32.667 -13.167 -59.5 -37.5 -80.5s-55.166 -31.5 -92.499 -31.5c-38.667 0 -70.334 12.5 -95.001 37.5s-37 57.167 -37 96.5c0 37.333 9.66699 70 29 98
s45.666 49.333 78.999 64s70.666 22 111.999 22c72.667 0 129 -17.333 169 -52c38 34.667 87 52 147 52c41.333 0 77.333 -8.33301 108 -25s54.167 -39.667 70.5 -69s24.5 -62.666 24.5 -99.999c0 -58.667 -23.667 -108.5 -71 -149.5s-119.666 -67.833 -216.999 -80.5
l-181 -24c-31.333 -4 -55.5 -14 -72.5 -30s-25.5 -36 -25.5 -60c0 -17.333 5.66699 -31.833 17 -43.5s27 -17.5 47 -17.5c19.333 0 37.166 5.5 53.499 16.5s37.166 28.5 62.499 52.5c24 22 44.667 39.667 62 53s38 24.833 62 34.5s51 14.5 81 14.5
c34.667 0 65.834 -7 93.501 -21zM200.999 303.501c7.33301 7 11 15.833 11 26.5c0 12 -3.5 21.833 -10.5 29.5s-16.167 11.5 -27.5 11.5s-20.666 -3.83301 -27.999 -11.5s-11 -17.167 -11 -28.5s3.66699 -20.5 11 -27.5s16.666 -10.5 27.999 -10.5
c10.667 0 19.667 3.5 27 10.5z" />
    <glyph glyph-name="tm_Nya" unicode="&#xb9e;" horiz-adv-x="1389" 
d="M1294.5 273c36.333 -42.667 54.501 -99.667 54.501 -171c0 -78.667 -25.833 -148.834 -77.5 -210.501s-124.5 -110 -218.5 -145s-202 -52.5 -324 -52.5c-133.333 0 -250.5 20.5 -351.5 61.5s-179.167 98.167 -234.5 171.5s-83 157.333 -83 252
c0 61.333 13.333 122.833 40 184.5s62 114.834 106 159.501l169 -10c-42.667 -40.667 -77.167 -91 -103.5 -151s-39.5 -121.667 -39.5 -185c0 -68.667 19.333 -128.834 58 -180.501s95.167 -92 169.5 -121s163.5 -43.5 267.5 -43.5c94 0 174.833 11.167 242.5 33.5
s119.167 53.5 154.5 93.5s53 85.667 53 137c0 32 -6.16699 57.167 -18.5 75.5s-28.5 27.5 -48.5 27.5c-18 0 -33.167 -5.83301 -45.5 -17.5s-18.5 -26.5 -18.5 -44.5v-137h-163v384h-205c-60.667 0 -106.834 -13.333 -138.501 -40s-47.5 -62.334 -47.5 -107.001
c0 -15.333 1.33301 -28.333 4 -39c7.33301 36.667 26.333 66.334 57 89.001s67.667 34 111 34c36 0 68.167 -6.83301 96.5 -20.5s50.5 -32.5 66.5 -56.5s24 -51 24 -81c0 -34.667 -8.66699 -65.834 -26 -93.501s-42.333 -49.167 -75 -64.5s-71 -23 -115 -23
c-60 0 -114.167 11 -162.5 33s-86.166 52.333 -113.499 91s-41 82.334 -41 131.001c0 53.333 14.333 100.833 43 142.5s70 74.334 124 98.001s118 35.5 192 35.5h512l15 -129h-158v-71c30 16 62 24 96 24c65.333 0 116.166 -21.333 152.499 -64zM623.501 191
c-9 -8.66699 -13.502 -19.667 -13.502 -33s4.5 -24.5 13.5 -33.5s20.5 -13.5 34.5 -13.5c12.667 0 23.334 4.5 32.001 13.5s13 20.167 13 33.5s-4.16699 24.333 -12.5 33s-19.166 13 -32.499 13c-14 0 -25.5 -4.33301 -34.5 -13z" />
    <glyph glyph-name="tm_Tta" unicode="&#xb9f;" horiz-adv-x="739" 
d="M714 129h-470v389l-164 -5v-513h649z" />
    <glyph glyph-name="tm_Nna" unicode="&#xba3;" horiz-adv-x="1859" 
d="M1849 384l-156.999 0.00195312v-384h-164v384h-79c-22.667 0 -44 -2 -64 -6c46.667 -58 70 -124.333 70 -199c0 -39.333 -8.66699 -73.833 -26 -103.5s-41.833 -52.667 -73.5 -69s-68.167 -24.5 -109.5 -24.5c-42 0 -79.333 8.16699 -112 24.5s-57.834 39.333 -75.501 69
s-26.5 64.167 -26.5 103.5c0 38 7.33301 74.167 22 108.5s35.667 65.5 63 93.5c-28 8 -58.333 12 -91 12c-36.667 0 -70.667 -5 -102 -15c29.333 -28.667 51.833 -59.834 67.5 -93.501s23.5 -68.834 23.5 -105.501c0 -39.333 -8.66699 -73.833 -26 -103.5
s-41.833 -52.667 -73.5 -69s-68.167 -24.5 -109.5 -24.5c-42 0 -79.333 8.16699 -112 24.5s-57.834 39.333 -75.501 69s-26.5 64.167 -26.5 103.5c0 69.333 21 132.333 63 189c-54 16.667 -110.333 25 -169 25c-57.333 0 -106.5 -7 -147.5 -21s-72 -33.5 -93 -58.5
s-31.5 -53.5 -31.5 -85.5c0 -12 1 -23.667 3 -35c6.66699 38 25.5 68.833 56.5 92.5s68.5 35.5 112.5 35.5c36 0 68.167 -6.83301 96.5 -20.5s50.5 -32.5 66.5 -56.5s24 -51 24 -81c0 -34.667 -8.66699 -65.834 -26 -93.501s-42.333 -49.167 -75 -64.5s-71 -23 -115 -23
c-60 0 -114.167 10.833 -162.5 32.5s-86.166 51.167 -113.499 88.5s-41 79 -41 125c0 58.667 18 110.834 54 156.501s87.5 81.5 154.5 107.5s145.833 39 236.5 39c107.333 0 205 -19.333 293 -58c72 38.667 154 58 246 58c87.333 0 166.333 -18 237 -54
c59.333 24 122 36 188 36h385zM1277 128.002c8.66699 11.333 13 25.666 13 42.999c0 50 -15 93 -45 129c-32 -36 -48 -79 -48 -129c0 -17.333 4.33301 -31.666 13 -42.999s20 -17 34 -17c13.333 0 24.333 5.66699 33 17zM837.001 128.002c8.66699 11.333 13 25.667 13 43
c0 44 -18.667 83.667 -56 119c-25.333 -34.667 -38 -74.334 -38 -119.001c0 -17.333 4.5 -31.666 13.5 -42.999s20.5 -17 34.5 -17c13.333 0 24.333 5.66699 33 17zM345.001 191.003c-8.66699 -8.66699 -13.002 -19.667 -13.002 -33s4.33301 -24.5 13 -33.5
s20 -13.5 34 -13.5c12.667 0 23.334 4.5 32.001 13.5s13 20.167 13 33.5s-4.16699 24.333 -12.5 33s-19.166 13 -32.499 13c-14 0 -25.333 -4.33301 -34 -13z" />
    <glyph glyph-name="tm_Ta" unicode="&#xba4;" horiz-adv-x="821" 
d="M664.5 288c39.667 -21.333 70.667 -50.667 93 -88s33.5 -79.666 33.5 -126.999c0 -52 -12.667 -98.5 -38 -139.5s-60.5 -73.167 -105.5 -96.5s-95.833 -35 -152.5 -35h-202c-91.333 0 -146.666 -15 -165.999 -45l-97 86c14.667 28.667 41.5 50.5 80.5 65.5
s95.167 22.5 168.5 22.5h216c35.333 0 64.666 13.333 87.999 40s35 60.667 35 102c0 34 -8.16699 62.167 -24.5 84.5s-37.166 33.5 -62.499 33.5h-3c-2.66699 -44 -17 -81.833 -43 -113.5s-59.5 -55.5 -100.5 -71.5s-85.167 -24 -132.5 -24
c-72.667 0 -127.834 16 -165.501 48s-56.5 74 -56.5 126c0 32.667 8.66699 61.667 26 87s43 44.666 77 57.999v212h564l15 -129h-184v-64h2c50 0 94.833 -10.667 134.5 -32zM373 383.999h-82v-64h82v64zM331.5 136.499c23 11 36.499 29.168 40.499 54.501h-114
c-17.333 0 -30.666 -3.16699 -39.999 -9.5s-14 -14.833 -14 -25.5s4.83301 -19.334 14.5 -26.001s23.5 -10 41.5 -10c24.667 0 48.5 5.5 71.5 16.5z" />
    <glyph glyph-name="tm_Na" unicode="&#xba8;" horiz-adv-x="846" 
d="M752.5 269.5c35.667 -45 53.499 -103.832 53.499 -176.499c0 -56 -10.833 -106 -32.5 -150s-53.167 -78.5 -94.5 -103.5s-90.333 -37.5 -147 -37.5h-189c-91.333 0 -146.666 -15 -165.999 -45l-97 86c14.667 28.667 41.5 50.5 80.5 65.5s95.167 22.5 168.5 22.5h203
c36 0 62 14.167 78 42.5s24 66.166 24 113.499c0 32.667 -5.83301 59.5 -17.5 80.5s-26.834 31.5 -45.501 31.5c-18 0 -32.167 -5.83301 -42.5 -17.5s-15.5 -26.5 -15.5 -44.5v-137h-164v384h-105v-384h-164v513h575l15 -129h-157v-68c28 14 57.667 21 89 21
c64.667 0 114.834 -22.5 150.501 -67.5z" />
    <glyph glyph-name="tm_Nnna" unicode="&#xba9;" horiz-adv-x="1419" 
d="M1409 384l-158.003 0.000976562v-384h-163v384h-80c-28.667 0 -55 -3.33301 -79 -10c57.333 -58.667 86 -123.334 86 -194.001c0 -39.333 -8.66699 -74 -26 -104s-41.833 -53.167 -73.5 -69.5s-68.167 -24.5 -109.5 -24.5c-42 0 -79.167 8.16699 -111.5 24.5
s-57.5 39.5 -75.5 69.5s-27 64.667 -27 104c0 68 23.333 130 70 186c-56 18 -114.667 27 -176 27c-57.333 0 -106.5 -7 -147.5 -21s-72 -33.5 -93 -58.5s-31.5 -53.5 -31.5 -85.5c0 -12 1 -23.667 3 -35c6.66699 38 25.5 68.833 56.5 92.5s68.5 35.5 112.5 35.5
c36 0 68.167 -6.83301 96.5 -20.5s50.5 -32.5 66.5 -56.5s24 -51 24 -81c0 -34.667 -8.66699 -65.834 -26 -93.501s-42.333 -49.167 -75 -64.5s-71 -23 -115 -23c-60 0 -114.167 10.833 -162.5 32.5s-86.166 51.167 -113.499 88.5s-41 79 -41 125
c0 58.667 18 110.834 54 156.501s87.5 81.5 154.5 107.5s145.833 39 236.5 39c56.667 0 111.334 -5.66699 164.001 -17s101.334 -27.333 146.001 -48c66 31.333 137 47 213 47h386zM836.997 128.001c8.66699 11.333 13 25.666 13 42.999c0 44 -18.333 83.333 -55 118
c-26 -34.667 -39 -74 -39 -118c0 -17.333 4.5 -31.666 13.5 -42.999s20.5 -17 34.5 -17c13.333 0 24.333 5.66699 33 17zM344.997 191.001c-8.66699 -8.66699 -13.002 -19.667 -13.002 -33s4.33301 -24.5 13 -33.5s20 -13.5 34 -13.5c12.667 0 23.334 4.5 32.001 13.5
s13 20.167 13 33.5s-4.16699 24.333 -12.5 33s-19.166 13 -32.499 13c-14 0 -25.333 -4.33301 -34 -13z" />
    <glyph glyph-name="tm_Pa" unicode="&#xbaa;" horiz-adv-x="786" 
d="M706 513v-513h-626v513l164 5v-389h298v384h164z" />
    <glyph glyph-name="tm_Ma" unicode="&#xbae;" horiz-adv-x="960" 
d="M791.5 494c41 -24.667 72.668 -58.668 95.001 -102.001s33.5 -92.666 33.5 -147.999c0 -47.333 -10.833 -89.5 -32.5 -126.5s-53.334 -65.833 -95.001 -86.5s-91.5 -31 -149.5 -31h-563v513l164 5v-389h160v163c0 46.667 9.5 88 28.5 124s46.833 64.167 83.5 84.5
s81 30.5 133 30.5c54 0 101.5 -12.333 142.5 -37zM746.001 243.999c0 44.667 -8.16699 80.667 -24.5 108s-39.833 41 -70.5 41s-52.167 -9.5 -64.5 -28.5s-18.5 -45.833 -18.5 -80.5v-155h75c68.667 0 103 38.333 103 115z" />
    <glyph glyph-name="tm_Ya" unicode="&#xbaf;" horiz-adv-x="1058" 
d="M978 513l-0.000976562 -513h-543v25c-38 -28.667 -80 -43 -126 -43c-74 0 -132.333 22.167 -175 66.5s-64 104.833 -64 181.5v283l164 5v-279c0 -39.333 7.5 -69 22.5 -89s36.5 -30 64.5 -30c36.667 0 64.834 13.333 84.501 40s29.5 62 29.5 106v247h164v-384h215v384
h164z" />
    <glyph glyph-name="tm_Ra" unicode="&#xbb0;" horiz-adv-x="743" 
d="M576 384v-376.001c0 -28.667 -1.16699 -52.167 -3.5 -70.5s-8.5 -34.666 -18.5 -48.999s-25.333 -24.5 -46 -30.5l-347 -108l-44 134l244 78c16.667 5.33301 28.5 11 35.5 17s11.333 14.167 13 24.5s2.5 27.5 2.5 51.5v329h-168v-384h-164v513h638l15 -129h-157z" />
    <glyph glyph-name="tm_Rra" unicode="&#xbb1;" horiz-adv-x="982" 
d="M816.5 489.5c41 -27.667 72.168 -65.834 93.501 -114.501s32 -104.334 32 -167.001c0 -79.333 -13.833 -149.666 -41.5 -210.999s-68.667 -109.166 -123 -143.499s-120.166 -51.5 -197.499 -51.5h-247c-49.333 0 -86.833 -4 -112.5 -12s-43.5 -19 -53.5 -33l-97 86
c14.667 28.667 41.667 50.5 81 65.5s95.666 22.5 168.999 22.5h260c64.667 0 112.167 24.833 142.5 74.5s45.5 117.167 45.5 202.5c0 123.333 -32 185 -96 185c-30 0 -52.667 -9.83301 -68 -29.5s-23 -46.167 -23 -79.5v-284h-164v248c0 44 -8 79.167 -24 105.5
s-40 39.5 -72 39.5c-28 0 -49.5 -10 -64.5 -30s-22.5 -49.333 -22.5 -88v-275h-164v283c0 77.333 20.833 138 62.5 182s101.5 66 179.5 66c33.333 0 64.666 -7.16699 93.999 -21.5s55 -34.833 77 -61.5c23.333 25.333 50.833 45.5 82.5 60.5s66.5 22.5 104.5 22.5
c56.667 0 105.5 -13.833 146.5 -41.5z" />
    <glyph glyph-name="tm_La" unicode="&#xbb2;" horiz-adv-x="1171" 
d="M1109 381.5c14.667 -50.333 22.0059 -93.833 22.0059 -130.5c0 -52 -10.333 -98.333 -31 -139s-50.834 -72.5 -90.501 -95.5s-86.834 -34.5 -141.501 -34.5c-51.333 0 -96 10.5 -134 31.5s-67 50 -87 87s-30 79.167 -30 126.5v19c0 28 -8.5 53.167 -25.5 75.5
s-40.5 39.833 -70.5 52.5s-64 19 -102 19c-39.333 0 -74.5 -6.66699 -105.5 -20s-55.333 -31.833 -73 -55.5s-26.5 -50.5 -26.5 -80.5c0 -15.333 1.33301 -28.333 4 -39c7.33301 36.667 26.333 66.334 57 89.001s67.667 34 111 34c36 0 68.167 -6.83301 96.5 -20.5
s50.5 -32.5 66.5 -56.5s24 -51 24 -81c0 -34.667 -8.66699 -65.834 -26 -93.501s-42.333 -49.167 -75 -64.5s-71 -23 -115 -23c-60.667 0 -115 11 -163 33s-85.667 52.333 -113 91s-41 82.334 -41 131.001c0 56 16.167 106.333 48.5 151s77.166 79.667 134.499 105
s122 38 194 38c69.333 0 131.666 -12.333 186.999 -37s98.666 -58.667 129.999 -102s47 -92 47 -146v-19c0 -32.667 7.16699 -58.667 21.5 -78s36.166 -29 65.499 -29c28.667 0 50.667 12 66 36s23 55.667 23 95c0 34.667 -7.66699 77.167 -23 127.5s-35 95.166 -59 134.499
l171 14c27.333 -46.667 48.333 -95.167 63 -145.5zM345.006 191c-8.66699 -8.66699 -13.002 -19.667 -13.002 -33s4.33301 -24.5 13 -33.5s20 -13.5 34 -13.5c12.667 0 23.334 4.5 32.001 13.5s13 20.167 13 33.5s-4.16699 24.333 -12.5 33s-19.166 13 -32.499 13
c-14 0 -25.333 -4.33301 -34 -13z" />
    <glyph glyph-name="tm_Lla" unicode="&#xbb3;" horiz-adv-x="1280" 
d="M1270 384l-156.999 -0.00292969v-384h-164v384h-168v-384h-164v219c0 33.333 -9.5 63.333 -28.5 90s-44.667 47.334 -77 62.001s-67.833 22 -106.5 22c-58.667 0 -105.167 -14.5 -139.5 -43.5s-51.5 -66.5 -51.5 -112.5c0 -15.333 1.33301 -28.333 4 -39
c7.33301 36.667 26.333 66.334 57 89.001s67.667 34 111 34c36 0 68.167 -6.83301 96.5 -20.5s50.5 -32.5 66.5 -56.5s24 -51 24 -81c0 -34.667 -8.66699 -65.834 -26 -93.501s-42.333 -49.167 -75 -64.5s-71 -23 -115 -23c-60.667 0 -115 11 -163 33
s-85.667 52.333 -113 91s-41 82.334 -41 131.001c0 56.667 14.667 107.334 44 152.001s71 79.5 125 104.5s116.667 37.5 188 37.5c87.333 0 160.666 -23.333 219.999 -70v52h638zM345.001 190.997c-8.66699 -8.66699 -13.002 -19.667 -13.002 -33s4.33301 -24.5 13 -33.5
s20 -13.5 34 -13.5c12.667 0 23.334 4.5 32.001 13.5s13 20.167 13 33.5s-4.16699 24.333 -12.5 33s-19.166 13 -32.499 13c-14 0 -25.333 -4.33301 -34 -13z" />
    <glyph glyph-name="tm_Llla" unicode="&#xbb4;" horiz-adv-x="960" 
d="M568 0l-0.000976562 -26.0039c0 -26 5.66699 -44 17 -54s28 -15 50 -15h141l15 -129h-224c-24 -26 -54.167 -45.5 -90.5 -58.5s-76.833 -19.5 -121.5 -19.5c-50.667 0 -95.667 9.83301 -135 29.5s-69.833 46.667 -91.5 81s-32.5 72.5 -32.5 114.5h164
c0 -24 8.33301 -44.5 25 -61.5s39.334 -25.5 68.001 -25.5c26.667 0 48 3.33301 64 10s25.667 15.334 29 26.001c-13.333 6.66699 -23.666 17.834 -30.999 33.501s-11 33.834 -11 54.501v40h-324v513l164 5v-389h160v163c0 46.667 9.5 88 28.5 124s46.833 64.167 83.5 84.5
s81 30.5 133 30.5c54 0 101.5 -12.333 142.5 -37s72.667 -58.667 95 -102s33.5 -92.666 33.5 -147.999c0 -47.333 -10.833 -89.5 -32.5 -126.5s-53.334 -65.833 -95.001 -86.5s-91.5 -31 -149.5 -31h-75zM567.999 128.996h75c68.667 0 103 38.333 103 115
c0 44.667 -8.16699 80.667 -24.5 108s-39.833 41 -70.5 41s-52.167 -9.5 -64.5 -28.5s-18.5 -45.833 -18.5 -80.5v-155z" />
    <glyph glyph-name="tm_Va" unicode="&#xbb5;" horiz-adv-x="1166" 
d="M1086 513l-0.00292969 -513.002h-480v129c9.33301 19.333 16.5 38.333 21.5 57s7.5 38.667 7.5 60c0 28 -8.66699 53.167 -26 75.5s-41.666 39.833 -72.999 52.5s-67.333 19 -108 19c-41.333 0 -78.166 -6.66699 -110.499 -20s-57.666 -31.833 -75.999 -55.5
s-27.5 -50.5 -27.5 -80.5c0 -15.333 1.33301 -28.333 4 -39c7.33301 36.667 26.333 66.334 57 89.001s67.667 34 111 34c36 0 68.167 -6.83301 96.5 -20.5s50.5 -32.5 66.5 -56.5s24 -51 24 -81c0 -34.667 -8.66699 -65.834 -26 -93.501s-42.333 -49.167 -75 -64.5
s-71 -23 -115 -23c-60.667 0 -115 11 -163 33s-85.667 52.333 -113 91s-41 82.334 -41 131.001c0 56 16.5 106.333 49.5 151s78.833 79.667 137.5 105s125 38 199 38s140 -12.167 198 -36.5s103 -58.166 135 -101.499s48 -92.333 48 -147c0 -42 -9.66699 -81 -29 -117h144
v384h164zM344.997 190.998c-8.66699 -8.66699 -13.002 -19.667 -13.002 -33s4.33301 -24.5 13 -33.5s20 -13.5 34 -13.5c12.667 0 23.334 4.5 32.001 13.5s13 20.167 13 33.5s-4.16699 24.333 -12.5 33s-19.166 13 -32.499 13c-14 0 -25.333 -4.33301 -34 -13z" />
    <glyph glyph-name="tm_Sha" unicode="&#xbb6;" horiz-adv-x="1226" 
d="M1059 482c41.333 -20.667 72.8311 -49.501 94.498 -86.501s32.5 -79.167 32.5 -126.5c0 -55.333 -11 -104.666 -33 -147.999s-53.5 -77.333 -94.5 -102s-88.833 -37 -143.5 -37c-52 0 -96.333 10.167 -133 30.5s-64.5 48.5 -83.5 84.5s-28.5 77.333 -28.5 124v163h-103
v-163c0 -46.667 -9.66699 -88 -29 -124s-47.666 -64.167 -84.999 -84.5s-82.333 -30.5 -135 -30.5s-97.5 10.167 -134.5 30.5s-65.167 48.5 -84.5 84.5s-29 77.333 -29 124v292l164 5v-288c0 -34 6.83301 -60.833 20.5 -80.5s34.834 -29.5 63.501 -29.5
c29.333 0 50.833 9.83301 64.5 29.5s20.5 46.5 20.5 80.5v283h507c58 0 107.667 -10.333 149 -31zM987.498 160.999c16.333 27.333 24.5 63.333 24.5 108c0 76.667 -34 115 -102 115h-76v-154c0 -35.333 6.16699 -62.5 18.5 -81.5s33.833 -28.5 64.5 -28.5
s54.167 13.667 70.5 41z" />
    <glyph glyph-name="tm_Ssa" unicode="&#xbb7;" horiz-adv-x="1590" 
d="M1530 0l-271.005 -0.000976562v-243h-164v243h-489v129c9.33301 19.333 16.5 38.333 21.5 57s7.5 38.667 7.5 60c0 28 -8.66699 53.167 -26 75.5s-41.666 39.833 -72.999 52.5s-67.333 19 -108 19c-41.333 0 -78.166 -6.66699 -110.499 -20
s-57.666 -31.833 -75.999 -55.5s-27.5 -50.5 -27.5 -80.5c0 -15.333 1.33301 -28.333 4 -39c7.33301 36.667 26.333 66.334 57 89.001s67.667 34 111 34c36 0 68.167 -6.83301 96.5 -20.5s50.5 -32.5 66.5 -56.5s24 -51 24 -81c0 -34.667 -8.66699 -65.834 -26 -93.501
s-42.333 -49.167 -75 -64.5s-71 -23 -115 -23c-60.667 0 -115 11 -163 33s-85.667 52.333 -113 91s-41 82.334 -41 131.001c0 56 16.5 106.333 49.5 151s78.833 79.667 137.5 105s125 38 199 38s140 -12.167 198 -36.5s103 -58.166 135 -101.499s48 -92.333 48 -147
c0 -41.333 -9.66699 -80.333 -29 -117h317v34h-6c-50.667 0 -95 8 -133 24s-67.333 38.333 -88 67s-31 61.334 -31 98.001c0 34 9.33301 64.667 28 92s44.334 48.666 77.001 63.999s69.334 23 110.001 23c39.333 0 74.666 -7.33301 105.999 -22s56 -35 74 -61
s27 -55.333 27 -88v-34c40.667 13.333 76.334 32.666 107.001 57.999h164v-384zM1095 300.999v54c0 11.333 -3.83301 20.5 -11.5 27.5s-17.834 10.5 -30.501 10.5s-23 -4 -31 -12s-12 -18.333 -12 -31c0 -18 6.83301 -30.667 20.5 -38s32.834 -11 57.501 -11h7z
M1366 128.999l0.000976562 105c-32.667 -20.667 -68.334 -37 -107.001 -49v-56h107zM344.996 190.999c-8.66699 -8.66699 -13.002 -19.667 -13.002 -33s4.33301 -24.5 13 -33.5s20 -13.5 34 -13.5c12.667 0 23.334 4.5 32.001 13.5s13 20.167 13 33.5
s-4.16699 24.333 -12.5 33s-19.166 13 -32.499 13c-14 0 -25.333 -4.33301 -34 -13z" />
    <glyph glyph-name="tm_Sa" unicode="&#xbb8;" horiz-adv-x="1500" 
d="M1438 381.5c14.667 -50.333 21.9961 -93.833 21.9961 -130.5c0 -52.667 -10.333 -99.167 -31 -139.5s-50.667 -72 -90 -95s-86.666 -34.5 -141.999 -34.5c-50.667 0 -95 10.5 -133 31.5s-67.167 50 -87.5 87s-30.5 79.167 -30.5 126.5v47c0 40 -6.16699 69.667 -18.5 89
s-32.166 29 -59.499 29c-30 0 -52 -13 -66 -39s-21 -61.667 -21 -107v-246h-164v246c0 28 -8.5 53.167 -25.5 75.5s-40.5 39.833 -70.5 52.5s-64 19 -102 19c-39.333 0 -74.5 -6.66699 -105.5 -20s-55.333 -31.833 -73 -55.5s-26.5 -50.5 -26.5 -80.5
c0 -15.333 1.33301 -28.333 4 -39c7.33301 36.667 26.333 66.334 57 89.001s67.667 34 111 34c36 0 68.167 -6.83301 96.5 -20.5s50.5 -32.5 66.5 -56.5s24 -51 24 -81c0 -34.667 -8.66699 -65.834 -26 -93.501s-42.333 -49.167 -75 -64.5s-71 -23 -115 -23
c-60.667 0 -115 11 -163 33s-85.667 52.333 -113 91s-41 82.334 -41 131.001c0 56 16.167 106.333 48.5 151s77.166 79.667 134.499 105s122 38 194 38c54.667 0 105.334 -7.66699 152.001 -23s86.334 -37.333 119.001 -66c21.333 28 47.5 49.667 78.5 65
s65.833 23 104.5 23c78 0 137.333 -21.833 178 -65.5s61 -104.5 61 -182.5v-55c0 -32.667 7.16699 -58.667 21.5 -78s36.166 -29 65.499 -29c28.667 0 50.834 12 66.501 36s23.5 55.667 23.5 95c0 34.667 -7.66699 77.167 -23 127.5s-35 95.166 -59 134.499l171 14
c26.667 -46.667 47.334 -95.167 62.001 -145.5zM344.996 191c-8.66699 -8.66699 -13.002 -19.667 -13.002 -33s4.33301 -24.5 13 -33.5s20 -13.5 34 -13.5c12.667 0 23.334 4.5 32.001 13.5s13 20.167 13 33.5s-4.16699 24.333 -12.5 33s-19.166 13 -32.499 13
c-14 0 -25.333 -4.33301 -34 -13z" />
    <glyph glyph-name="tm_Ha" unicode="&#xbb9;" horiz-adv-x="1816" 
d="M1650.5 489.5c41 -27.667 72.1641 -65.8369 93.4971 -114.504s32 -104.334 32 -167.001c0 -79.333 -13.833 -149.666 -41.5 -210.999s-68.667 -109.166 -123 -143.499s-120.166 -51.5 -197.499 -51.5h-1111c-91.333 0 -146.666 -15 -165.999 -45l-97 86
c14.667 28.667 41.5 50.5 80.5 65.5s95.167 22.5 168.5 22.5h1125c64.667 0 112.167 24.833 142.5 74.5s45.5 117.167 45.5 202.5c0 123.333 -32 185 -96 185c-30 0 -52.667 -9.83301 -68 -29.5s-23 -46.167 -23 -79.5v-284h-164v248c0 44 -8 79.167 -24 105.5
s-40 39.5 -72 39.5c-28 0 -49.5 -10 -64.5 -30s-22.5 -49.333 -22.5 -88v-275h-462v129c9.33301 19.333 16.5 38.333 21.5 57s7.5 38.667 7.5 60c0 28 -8.66699 53.167 -26 75.5s-41.666 39.833 -72.999 52.5s-67.333 19 -108 19c-42 0 -79.167 -6.66699 -111.5 -20
s-57.5 -31.666 -75.5 -54.999s-27 -50.333 -27 -81c0 -15.333 1.33301 -28.333 4 -39c7.33301 36.667 26.333 66.334 57 89.001s67.667 34 111 34c36 0 68.167 -6.83301 96.5 -20.5s50.5 -32.5 66.5 -56.5s24 -51 24 -81c0 -34.667 -8.66699 -65.834 -26 -93.501
s-42.333 -49.167 -75 -64.5s-71 -23 -115 -23c-60.667 0 -115 11 -163 33s-85.667 52.333 -113 91s-41 82.334 -41 131.001c0 56 16.5 106.333 49.5 151s78.833 79.667 137.5 105s125 38 199 38s140 -12.167 198 -36.5s103 -58.166 135 -101.499s48 -92.333 48 -147
c0 -41.333 -9.66699 -80.333 -29 -117h126v154c0 77.333 20.833 138 62.5 182s101.5 66 179.5 66c34 0 65.5 -7.16699 94.5 -21.5s54.5 -34.833 76.5 -61.5c22.667 25.333 50 45.5 82 60.5s67 22.5 105 22.5c56.667 0 105.5 -13.833 146.5 -41.5zM344.997 190.997
c-8.66699 -8.66699 -13.002 -19.667 -13.002 -33s4.33301 -24.5 13 -33.5s20 -13.5 34 -13.5c12.667 0 23.334 4.5 32.001 13.5s13 20.167 13 33.5s-4.16699 24.333 -12.5 33s-19.166 13 -32.499 13c-14 0 -25.333 -4.33301 -34 -13z" />
    <glyph glyph-name="tm_VowelAa" unicode="&#xbbe;" horiz-adv-x="723" 
d="M556 384v-384h-164v384h-148v-384h-164v513h618l15 -129h-157z" />
    <glyph glyph-name="tm_VowelI" unicode="&#xbbf;" horiz-adv-x="324" 
d="M77.5 759.5c53 -25 94 -59.833 123 -104.5s43.5 -95.334 43.5 -152.001v-503h-164v503c0 48.667 -16.167 87 -48.5 115s-77.833 42 -136.5 42c-33.333 0 -60.833 -7.33301 -82.5 -22s-32.5 -33.667 -32.5 -57c0 -21.333 5 -38 15 -50s23.333 -18 40 -18v-108
c-44 0 -82.333 7.83301 -115 23.5s-58 37.334 -76 65.001s-27 59.167 -27 94.5c0 40 11.333 75.833 34 107.5s55 56.5 97 74.5s90.667 27 146 27c69.333 0 130.5 -12.5 183.5 -37.5z" />
    <glyph glyph-name="tm_VowelIi" unicode="&#xbc0;" horiz-adv-x="0" 
d="M-3.5 853c38.333 -16.667 68.334 -39.835 90.001 -69.502s32.5 -63.167 32.5 -100.5c0 -40.667 -13.5 -74.167 -40.5 -100.5s-61.5 -39.5 -103.5 -39.5c-42.667 0 -77.667 13.167 -105 39.5s-41 59.833 -41 100.5c0 24 5.66699 45.667 17 65
c-38 -3.33301 -67.5 -15.166 -88.5 -35.499s-31.5 -45.833 -31.5 -76.5c0 -36.667 9.83301 -66.334 29.5 -89.001s47.5 -34 83.5 -34v-121c-55.333 0 -103.833 10.333 -145.5 31s-73.834 49.5 -96.501 86.5s-34 79.167 -34 126.5c0 46.667 12.5 88.334 37.5 125.001
s60.5 65.334 106.5 86.001s99.333 31 160 31c48 0 91.167 -8.33301 129.5 -25zM-1.49902 656.499c6.33301 6.33301 9.5 14.166 9.5 23.499s-3.16699 17 -9.5 23s-14.166 9 -23.499 9s-17.166 -3 -23.499 -9s-9.5 -13.667 -9.5 -23s3.16699 -17.166 9.5 -23.499
s14.166 -9.5 23.499 -9.5s17.166 3.16699 23.499 9.5z" />
    <glyph glyph-name="tm_VowelU" unicode="&#xbc1;" horiz-adv-x="477" 
d="M353 489.5c33.333 -15.667 59.333 -37.332 78 -64.999s28 -59.167 28 -94.5c0 -32 -8.16699 -60.833 -24.5 -86.5s-39 -45.834 -68 -60.501s-61.5 -22 -97.5 -22c-36.667 0 -69.5 7.16699 -98.5 21.5s-51.833 34 -68.5 59s-25 53.5 -25 85.5
c0 19.333 3.66699 38.333 11 57h-324v129h476c42 0 79.667 -7.83301 113 -23.5zM297.5 300.502c9 9 13.5 20.5 13.5 34.5c0 14.667 -4.5 26.5 -13.5 35.5s-20.5 13.5 -34.5 13.5c-14.667 0 -26.834 -4.5 -36.501 -13.5s-14.5 -20.833 -14.5 -35.5
c0 -14 4.83301 -25.5 14.5 -34.5s21.834 -13.5 36.501 -13.5c14 0 25.5 4.5 34.5 13.5z" />
    <glyph glyph-name="tm_VowelUu" unicode="&#xbc2;" horiz-adv-x="753" 
d="M573 575c50.667 -24.667 90.332 -59.166 118.999 -103.499s43 -94.166 43 -149.499c0 -59.333 -15.333 -112.333 -46 -159s-74.667 -83.167 -132 -109.5s-124.333 -39.5 -201 -39.5h-63v129h63c65.333 0 116.166 16.5 152.499 49.5s54.5 76.167 54.5 129.5
c0 46.667 -15.167 85.167 -45.5 115.5s-69.166 45.5 -116.499 45.5c-8 0 -18.667 -0.666992 -32 -2c28.667 -16 50.834 -37.167 66.501 -63.5s23.5 -55.5 23.5 -87.5s-8.16699 -60.833 -24.5 -86.5s-39 -45.834 -68 -60.501s-61.5 -22 -97.5 -22
c-36.667 0 -69.5 7.16699 -98.5 21.5s-51.833 34 -68.5 59s-25 53.5 -25 85.5c0 20 2 39 6 57h-319v129h386c28.667 31.333 64.667 55.666 108 72.999s91 26 143 26c64 0 121.333 -12.333 172 -37zM297.498 300.501c9 9 13.499 20.5 13.499 34.5
c0 14.667 -4.5 26.5 -13.5 35.5s-20.5 13.5 -34.5 13.5h-42c-6 -14.667 -9 -31 -9 -49c0 -14 4.83301 -25.5 14.5 -34.5s21.834 -13.5 36.501 -13.5c14 0 25.5 4.5 34.5 13.5z" />
    <glyph glyph-name="tm_VowelE" unicode="&#xbc6;" horiz-adv-x="879" 
d="M622 633.5c56.667 -27.667 100.333 -67.165 131 -118.498s46 -111 46 -179v-336h-164v336c0 63.333 -18.333 112.666 -55 147.999s-88.334 53 -155.001 53c-42 0 -79 -9.33301 -111 -28s-56.667 -44.5 -74 -77.5s-26 -70.833 -26 -113.5
c0 -29.333 3.33301 -55.333 10 -78c14 27.333 35.333 48.833 64 64.5s61.334 23.5 98.001 23.5c36 0 68.167 -7.16699 96.5 -21.5s50.5 -34 66.5 -59s24 -53.167 24 -84.5c0 -34.667 -8.66699 -65.834 -26 -93.501s-42.333 -49.167 -75 -64.5s-71 -23 -115 -23
c-60.667 0 -115 14.5 -163 43.5s-85.667 69 -113 120s-41 108.5 -41 172.5c0 68.667 16.167 130 48.5 184s77.5 96.333 135.5 127s124.333 46 199 46c76 0 142.333 -13.833 199 -41.5zM344.999 191.002c-8.66699 -8.66699 -13.002 -19.667 -13.002 -33
s4.33301 -24.5 13 -33.5s20 -13.5 34 -13.5c12.667 0 23.334 4.5 32.001 13.5s13 20.167 13 33.5s-4.16699 24.333 -12.5 33s-19.166 13 -32.499 13c-14 0 -25.333 -4.33301 -34 -13z" />
    <glyph glyph-name="tm_VowelEe" unicode="&#xbc7;" horiz-adv-x="701" 
d="M581 295.5c25.333 -13 45 -31.1689 59 -54.502s21 -49.333 21 -78c0 -34.667 -10.5 -65.667 -31.5 -93s-50.167 -48.833 -87.5 -64.5s-79.666 -23.5 -126.999 -23.5c-78.667 0 -146.167 15.333 -202.5 46s-99.166 72.334 -128.499 125.001s-44 111.334 -44 176.001
s14.667 123.167 44 175.5s72.166 93.833 128.499 124.5s123.833 46 202.5 46c47.333 0 89.666 -7.83301 126.999 -23.5s66.5 -37.167 87.5 -64.5s31.5 -58.333 31.5 -93c0 -28.667 -7 -54.667 -21 -78s-33.667 -41.5 -59 -54.5s-53.666 -19.5 -84.999 -19.5
c-30 0 -56.833 6.5 -80.5 19.5s-42.334 31 -56.001 54s-20.5 48.833 -20.5 77.5c0 17.333 3 33 9 47c-42.667 -10 -75.334 -33 -98.001 -69s-34.667 -83.333 -36 -142c1.33301 -58.667 13.333 -106.167 36 -142.5s55.334 -59.5 98.001 -69.5c-6 14 -9 29.667 -9 47
c0 28.667 6.83301 54.5 20.5 77.5s32.334 41 56.001 54s50.5 19.5 80.5 19.5c31.333 0 59.666 -6.5 84.999 -19.5zM519 470.998c6 6 9.00195 13.667 9.00195 23c0 10 -2.83301 18.167 -8.5 24.5s-12.834 9.5 -21.501 9.5c-10.667 0 -19.167 -3 -25.5 -9
s-9.5 -13.667 -9.5 -23c0 -10 3.16699 -18.167 9.5 -24.5s14.166 -9.5 23.499 -9.5s17 3 23 9zM472.502 185.498c-6.33301 -6.33301 -9.50195 -14.5 -9.50195 -24.5c0 -9.33301 3.16699 -17 9.5 -23s14.833 -9 25.5 -9c8.66699 0 15.834 3.16699 21.501 9.5
s8.5 14.5 8.5 24.5c0 9.33301 -3 17 -9 23s-13.667 9 -23 9s-17.166 -3.16699 -23.499 -9.5z" />
    <glyph glyph-name="tm_VowelAi" unicode="&#xbc8;" horiz-adv-x="1327" 
d="M1213 457.5c49.333 -49 73.999 -114.166 73.999 -195.499c0 -36.667 -7.33301 -80.167 -22 -130.5s-35.667 -98.833 -63 -145.5l-171 14c24 39.333 43.667 84.166 59 134.499s23 92.833 23 127.5c0 87.333 -38 131 -114 131c-27.333 0 -53.666 -3.66699 -78.999 -11
c63.333 -60 95 -127.667 95 -203c0 -39.333 -8.66699 -73.833 -26 -103.5s-41.833 -52.667 -73.5 -69s-68.167 -24.5 -109.5 -24.5c-42 0 -79.333 8.16699 -112 24.5s-57.834 39.333 -75.501 69s-26.5 64.167 -26.5 103.5c0 70 20 133.333 60 190
c-54.667 16 -110 24 -166 24c-57.333 0 -106.5 -7 -147.5 -21s-72 -33.5 -93 -58.5s-31.5 -53.5 -31.5 -85.5c0 -12 1 -23.667 3 -35c6.66699 38 25.5 68.833 56.5 92.5s68.5 35.5 112.5 35.5c36 0 68.167 -6.83301 96.5 -20.5s50.5 -32.5 66.5 -56.5s24 -51 24 -81
c0 -34.667 -8.66699 -65.834 -26 -93.501s-42.333 -49.167 -75 -64.5s-71 -23 -115 -23c-60 0 -114.167 10.833 -162.5 32.5s-86.166 51.167 -113.499 88.5s-41 79 -41 125c0 58.667 18 110.834 54 156.501s87.5 81.5 154.5 107.5s145.833 39 236.5 39
c105.333 0 201 -18.667 287 -56c66.667 37.333 141.667 56 225 56c94.667 0 166.667 -24.5 216 -73.5zM836.999 128.001c8.66699 11.333 13 25.666 13 42.999c0 45.333 -19.333 85.666 -58 120.999c-24 -35.333 -36 -75.666 -36 -120.999
c0 -17.333 4.5 -31.666 13.5 -42.999s20.5 -17 34.5 -17c13.333 0 24.333 5.66699 33 17zM344.999 191.001c-8.66699 -8.66699 -13.002 -19.667 -13.002 -33s4.33301 -24.5 13 -33.5s20 -13.5 34 -13.5c12.667 0 23.334 4.5 32.001 13.5s13 20.167 13 33.5
s-4.16699 24.333 -12.5 33s-19.166 13 -32.499 13c-14 0 -25.333 -4.33301 -34 -13z" />
    <glyph glyph-name="tm_VowelO" unicode="&#xbca;" horiz-adv-x="2099" 
d="M622 633.5c56.667 -27.667 100.333 -67.165 131 -118.498s46 -111 46 -179v-336h-164v336c0 63.333 -18.333 112.666 -55 147.999s-88.334 53 -155.001 53c-42 0 -79 -9.33301 -111 -28s-56.667 -44.5 -74 -77.5s-26 -70.833 -26 -113.5
c0 -29.333 3.33301 -55.333 10 -78c14 27.333 35.333 48.833 64 64.5s61.334 23.5 98.001 23.5c36 0 68.167 -7.16699 96.5 -21.5s50.5 -34 66.5 -59s24 -53.167 24 -84.5c0 -34.667 -8.66699 -65.834 -26 -93.501s-42.333 -49.167 -75 -64.5s-71 -23 -115 -23
c-60.667 0 -115 14.5 -163 43.5s-85.667 69 -113 120s-41 108.5 -41 172.5c0 68.667 16.167 130 48.5 184s77.5 96.333 135.5 127s124.333 46 199 46c76 0 142.333 -13.833 199 -41.5zM344.999 191.002c-8.66699 -8.66699 -13.002 -19.667 -13.002 -33
s4.33301 -24.5 13 -33.5s20 -13.5 34 -13.5c12.667 0 23.334 4.5 32.001 13.5s13 20.167 13 33.5s-4.16699 24.333 -12.5 33s-19.166 13 -32.499 13c-14 0 -25.333 -4.33301 -34 -13zM1920 384.002v-384h-164v384h-148v-384h-164v513h618l15 -129h-157zM1128 467.002
c5.33301 5.33301 8 12.333 8 21s-2.66699 15.834 -8 21.501s-12.333 8.5 -21 8.5s-15.667 -2.83301 -21 -8.5s-8 -12.834 -8 -21.501s2.66699 -15.667 8 -21s12.333 -8 21 -8s15.667 2.66699 21 8zM996.997 494.002c-5.33301 -5.33301 -8 -12.333 -8 -21
s2.66699 -15.667 8 -21s12.333 -8 21 -8s15.667 2.66699 21 8s8 12.333 8 21s-2.66699 15.667 -8 21s-12.333 8 -21 8s-15.667 -2.66699 -21 -8zM1218 452.002c5.33301 5.33301 8 12.333 8 21s-2.66699 15.667 -8 21s-12.333 8 -21 8s-15.667 -2.66699 -21 -8
s-8 -12.333 -8 -21s2.66699 -15.667 8 -21s12.333 -8 21 -8s15.667 2.66699 21 8zM920.497 443.502c-5.66699 -5.66699 -8.5 -12.834 -8.5 -21.501s2.83301 -15.667 8.5 -21s12.834 -8 21.501 -8s15.667 2.66699 21 8s8 12.333 8 21s-2.66699 15.834 -8 21.501
s-12.333 8.5 -21 8.5s-15.834 -2.83301 -21.501 -8.5zM1294.5 401.002c5.66699 5.33301 8.5 12.333 8.5 21s-2.83301 15.834 -8.5 21.501s-12.834 8.5 -21.501 8.5s-15.667 -2.83301 -21 -8.5s-8 -12.834 -8 -21.501s2.66699 -15.667 8 -21s12.333 -8 21 -8
s15.834 2.66699 21.501 8zM872.497 364.502c-5.66699 -5.66699 -8.5 -12.834 -8.5 -21.501s2.83301 -15.667 8.5 -21s12.834 -8 21.501 -8s15.667 2.66699 21 8s8 12.333 8 21s-2.66699 15.834 -8 21.501s-12.333 8.5 -21 8.5s-15.834 -2.83301 -21.501 -8.5zM1342 322.002
c5.33301 5.33301 8 12.333 8 21s-2.66699 15.834 -8 21.501s-12.333 8.5 -21 8.5s-15.667 -2.83301 -21 -8.5s-8 -12.834 -8 -21.501s2.66699 -15.667 8 -21s12.333 -8 21 -8s15.667 2.66699 21 8zM858.497 278.502c-5.66699 -5.66699 -8.5 -12.834 -8.5 -21.501
s2.83301 -15.5 8.5 -20.5s12.834 -7.5 21.501 -7.5s15.667 2.5 21 7.5s8 11.833 8 20.5s-2.66699 15.834 -8 21.501s-12.333 8.5 -21 8.5s-15.834 -2.83301 -21.501 -8.5zM1356.5 236.502c5.66699 5 8.5 11.833 8.5 20.5s-2.83301 15.834 -8.5 21.501
s-12.834 8.5 -21.501 8.5s-15.667 -2.83301 -21 -8.5s-8 -12.834 -8 -21.501s2.66699 -15.5 8 -20.5s12.333 -7.5 21 -7.5s15.834 2.5 21.501 7.5zM872.497 195.002c-5.66699 -5.33301 -8.5 -12.333 -8.5 -21s2.83301 -15.667 8.5 -21s12.834 -8 21.501 -8
s15.667 2.66699 21 8s8 12.333 8 21s-2.66699 15.667 -8 21s-12.333 8 -21 8s-15.834 -2.66699 -21.501 -8zM1342 153.002c5.33301 5.33301 8 12.333 8 21s-2.66699 15.667 -8 21s-12.333 8 -21 8s-15.667 -2.66699 -21 -8s-8 -12.333 -8 -21s2.66699 -15.667 8 -21
s12.333 -8 21 -8s15.667 2.66699 21 8zM919.497 115.002c-5.66699 -5.33301 -8.5 -12.333 -8.5 -21s2.83301 -15.667 8.5 -21s12.834 -8 21.501 -8s15.667 2.66699 21 8s8 12.333 8 21s-2.66699 15.667 -8 21s-12.333 8 -21 8s-15.834 -2.66699 -21.501 -8zM1295.5 73.002
c5.66699 5.33301 8.5 12.333 8.5 21s-2.83301 15.667 -8.5 21s-12.834 8 -21.501 8s-15.667 -2.66699 -21 -8s-8 -12.333 -8 -21s2.66699 -15.667 8 -21s12.333 -8 21 -8s15.834 2.66699 21.501 8zM996.997 65.502c-5.33301 -5.66699 -8 -12.834 -8 -21.501
s2.66699 -15.667 8 -21s12.333 -8 21 -8s15.667 2.66699 21 8s8 12.333 8 21s-2.66699 15.834 -8 21.501s-12.333 8.5 -21 8.5s-15.667 -2.83301 -21 -8.5zM1218 23.002c5.33301 5.33301 8 12.333 8 21s-2.66699 15.834 -8 21.501s-12.333 8.5 -21 8.5
s-15.667 -2.83301 -21 -8.5s-8 -12.834 -8 -21.501s2.66699 -15.667 8 -21s12.333 -8 21 -8s15.667 2.66699 21 8zM1128 8.00195c5.33301 5.33301 8 12.333 8 21s-2.66699 15.834 -8 21.501s-12.333 8.5 -21 8.5s-15.667 -2.83301 -21 -8.5s-8 -12.834 -8 -21.501
s2.66699 -15.667 8 -21s12.333 -8 21 -8s15.667 2.66699 21 8z" />
    <glyph glyph-name="tm_VowelOo" unicode="&#xbcb;" horiz-adv-x="1963" 
d="M581 295.5c25.333 -13 45 -31.1689 59 -54.502s21 -49.333 21 -78c0 -34.667 -10.5 -65.667 -31.5 -93s-50.167 -48.833 -87.5 -64.5s-79.666 -23.5 -126.999 -23.5c-78.667 0 -146.167 15.333 -202.5 46s-99.166 72.334 -128.499 125.001s-44 111.334 -44 176.001
s14.667 123.167 44 175.5s72.166 93.833 128.499 124.5s123.833 46 202.5 46c47.333 0 89.666 -7.83301 126.999 -23.5s66.5 -37.167 87.5 -64.5s31.5 -58.333 31.5 -93c0 -28.667 -7 -54.667 -21 -78s-33.667 -41.5 -59 -54.5s-53.666 -19.5 -84.999 -19.5
c-30 0 -56.833 6.5 -80.5 19.5s-42.334 31 -56.001 54s-20.5 48.833 -20.5 77.5c0 17.333 3 33 9 47c-42.667 -10 -75.334 -33 -98.001 -69s-34.667 -83.333 -36 -142c1.33301 -58.667 13.333 -106.167 36 -142.5s55.334 -59.5 98.001 -69.5c-6 14 -9 29.667 -9 47
c0 28.667 6.83301 54.5 20.5 77.5s32.334 41 56.001 54s50.5 19.5 80.5 19.5c31.333 0 59.666 -6.5 84.999 -19.5zM519 470.998c6 6 9.00195 13.667 9.00195 23c0 10 -2.83301 18.167 -8.5 24.5s-12.834 9.5 -21.501 9.5c-10.667 0 -19.167 -3 -25.5 -9
s-9.5 -13.667 -9.5 -23c0 -10 3.16699 -18.167 9.5 -24.5s14.166 -9.5 23.499 -9.5s17 3 23 9zM472.502 185.498c-6.33301 -6.33301 -9.50195 -14.5 -9.50195 -24.5c0 -9.33301 3.16699 -17 9.5 -23s14.833 -9 25.5 -9c8.66699 0 15.834 3.16699 21.501 9.5
s8.5 14.5 8.5 24.5c0 9.33301 -3 17 -9 23s-13.667 9 -23 9s-17.166 -3.16699 -23.499 -9.5zM1776 383.998v-384h-164v384h-148v-384h-164v513h618l15 -129h-157zM1000 466.998c5.33301 5.33301 8 12.333 8 21s-2.66699 15.834 -8 21.501s-12.333 8.5 -21 8.5
s-15.667 -2.83301 -21 -8.5s-8 -12.834 -8 -21.501s2.66699 -15.667 8 -21s12.333 -8 21 -8s15.667 2.66699 21 8zM869 493.998c-5.33301 -5.33301 -8 -12.333 -8 -21s2.66699 -15.667 8 -21s12.333 -8 21 -8s15.667 2.66699 21 8s8 12.333 8 21s-2.66699 15.667 -8 21
s-12.333 8 -21 8s-15.667 -2.66699 -21 -8zM1090 451.998c5.33301 5.33301 8 12.333 8 21s-2.66699 15.667 -8 21s-12.333 8 -21 8s-15.667 -2.66699 -21 -8s-8 -12.333 -8 -21s2.66699 -15.667 8 -21s12.333 -8 21 -8s15.667 2.66699 21 8zM792.5 443.498
c-5.66699 -5.66699 -8.5 -12.834 -8.5 -21.501s2.83301 -15.667 8.5 -21s12.834 -8 21.501 -8s15.667 2.66699 21 8s8 12.333 8 21s-2.66699 15.834 -8 21.501s-12.333 8.5 -21 8.5s-15.834 -2.83301 -21.501 -8.5zM1166.5 400.998c5.66699 5.33301 8.5 12.333 8.5 21
s-2.83301 15.834 -8.5 21.501s-12.834 8.5 -21.501 8.5s-15.667 -2.83301 -21 -8.5s-8 -12.834 -8 -21.501s2.66699 -15.667 8 -21s12.333 -8 21 -8s15.834 2.66699 21.501 8zM744.5 364.498c-5.66699 -5.66699 -8.5 -12.834 -8.5 -21.501s2.83301 -15.667 8.5 -21
s12.834 -8 21.501 -8s15.667 2.66699 21 8s8 12.333 8 21s-2.66699 15.834 -8 21.501s-12.333 8.5 -21 8.5s-15.834 -2.83301 -21.501 -8.5zM1214 321.998c5.33301 5.33301 8 12.333 8 21s-2.66699 15.834 -8 21.501s-12.333 8.5 -21 8.5s-15.667 -2.83301 -21 -8.5
s-8 -12.834 -8 -21.501s2.66699 -15.667 8 -21s12.333 -8 21 -8s15.667 2.66699 21 8zM730.5 278.498c-5.66699 -5.66699 -8.5 -12.834 -8.5 -21.501s2.83301 -15.5 8.5 -20.5s12.834 -7.5 21.501 -7.5s15.667 2.5 21 7.5s8 11.833 8 20.5s-2.66699 15.834 -8 21.501
s-12.333 8.5 -21 8.5s-15.834 -2.83301 -21.501 -8.5zM1228.5 236.498c5.66699 5 8.5 11.833 8.5 20.5s-2.83301 15.834 -8.5 21.501s-12.834 8.5 -21.501 8.5s-15.667 -2.83301 -21 -8.5s-8 -12.834 -8 -21.501s2.66699 -15.5 8 -20.5s12.333 -7.5 21 -7.5
s15.834 2.5 21.501 7.5zM744.5 194.998c-5.66699 -5.33301 -8.5 -12.333 -8.5 -21s2.83301 -15.667 8.5 -21s12.834 -8 21.501 -8s15.667 2.66699 21 8s8 12.333 8 21s-2.66699 15.667 -8 21s-12.333 8 -21 8s-15.834 -2.66699 -21.501 -8zM1214 152.998
c5.33301 5.33301 8 12.333 8 21s-2.66699 15.667 -8 21s-12.333 8 -21 8s-15.667 -2.66699 -21 -8s-8 -12.333 -8 -21s2.66699 -15.667 8 -21s12.333 -8 21 -8s15.667 2.66699 21 8zM791.5 114.998c-5.66699 -5.33301 -8.5 -12.333 -8.5 -21s2.83301 -15.667 8.5 -21
s12.834 -8 21.501 -8s15.667 2.66699 21 8s8 12.333 8 21s-2.66699 15.667 -8 21s-12.333 8 -21 8s-15.834 -2.66699 -21.501 -8zM1167.5 72.998c5.66699 5.33301 8.5 12.333 8.5 21s-2.83301 15.667 -8.5 21s-12.834 8 -21.501 8s-15.667 -2.66699 -21 -8
s-8 -12.333 -8 -21s2.66699 -15.667 8 -21s12.333 -8 21 -8s15.834 2.66699 21.501 8zM869 65.498c-5.33301 -5.66699 -8 -12.834 -8 -21.501s2.66699 -15.667 8 -21s12.333 -8 21 -8s15.667 2.66699 21 8s8 12.333 8 21s-2.66699 15.834 -8 21.501s-12.333 8.5 -21 8.5
s-15.667 -2.83301 -21 -8.5zM1090 22.998c5.33301 5.33301 8 12.333 8 21s-2.66699 15.834 -8 21.501s-12.333 8.5 -21 8.5s-15.667 -2.83301 -21 -8.5s-8 -12.834 -8 -21.501s2.66699 -15.667 8 -21s12.333 -8 21 -8s15.667 2.66699 21 8zM1000 7.99805
c5.33301 5.33301 8 12.333 8 21s-2.66699 15.834 -8 21.501s-12.333 8.5 -21 8.5s-15.667 -2.83301 -21 -8.5s-8 -12.834 -8 -21.501s2.66699 -15.667 8 -21s12.333 -8 21 -8s15.667 2.66699 21 8z" />
    </font>
</defs>
</svg>
